<svg width="33" height="33" viewBox="0 0 33 33" fill="none" xmlns="http://www.w3.org/2000/svg">
<g clip-path="url(#clip0_1_88503)">
<path d="M16.1086 0.552734C7.29926 0.552734 0.157547 7.69426 0.157547 16.5036C0.157547 25.3133 7.29926 32.4542 16.1086 32.4542C24.9189 32.4542 32.0598 25.3133 32.0598 16.5036C32.0598 7.69483 24.9189 0.553496 16.1084 0.553496L16.1086 0.552734ZM23.4236 23.5584C23.1379 24.027 22.5246 24.1756 22.056 23.888C18.3109 21.6003 13.5962 21.0823 8.04383 22.3508C7.50878 22.4727 6.97545 22.1375 6.85355 21.6023C6.73107 21.067 7.06498 20.5337 7.60136 20.4118C13.6775 19.023 18.8895 19.6213 23.0941 22.1908C23.5627 22.4784 23.7113 23.0899 23.4236 23.5584ZM25.376 19.2146C25.016 19.8003 24.2503 19.9851 23.6655 19.6251C19.3779 16.9891 12.8421 16.2259 7.77069 17.7653C7.11298 17.964 6.41831 17.5933 6.21869 16.9367C6.02059 16.279 6.39145 15.5857 7.04802 15.3857C12.841 13.628 20.0427 14.4794 24.9665 17.5051C25.5513 17.8651 25.736 18.6308 25.376 19.2148V19.2146ZM25.5436 14.692C20.4027 11.6384 11.9208 11.3577 7.0124 12.8474C6.22421 13.0864 5.39069 12.6415 5.15183 11.8533C4.91298 11.0647 5.35755 10.2318 6.14631 9.99216C11.7808 8.28168 21.1474 8.61216 27.0663 12.1259C27.7768 12.5466 28.0092 13.4623 27.5882 14.1703C27.1692 14.8792 26.2511 15.1129 25.5444 14.692H25.5436Z" fill="#1ED760"/>
</g>
<defs>
<clipPath id="clip0_1_88503">
<rect width="32" height="32" fill="white" transform="translate(0.109375 0.5)"/>
</clipPath>
</defs>
</svg>
