<svg width="33" height="33" viewBox="0 0 33 33" fill="none" xmlns="http://www.w3.org/2000/svg">
<g clip-path="url(#clip0_1_88504)">
<path d="M4.10938 15.409V17.5909C4.10938 18.6954 3.21394 19.5909 2.10938 19.5909C1.00481 19.5909 0.109375 18.6954 0.109375 17.5909V15.409C0.109375 14.3044 1.00481 13.4089 2.10938 13.4089C3.21394 13.4089 4.10938 14.3044 4.10938 15.409Z" fill="#0066D9"/>
<path d="M28.1102 15.4658C28.1097 15.4469 28.1094 15.4279 28.1094 15.409C28.1094 14.3044 29.0048 13.4089 30.1094 13.4089C31.2139 13.4089 32.1094 14.3044 32.1094 15.409C32.1094 15.428 32.1091 15.447 32.1086 15.4658H32.1094V17.6477H32.1086C32.0786 18.7259 31.1949 19.5908 30.1094 19.5908C29.0238 19.5908 28.1403 18.7259 28.1102 17.6477H28.1094V15.4658H28.1102V15.4658Z" fill="#4285F4"/>
<path d="M11.0182 21.955V24.1368C11.0182 25.2413 10.1228 26.1368 9.01822 26.1368C7.91359 26.1368 7.01822 25.2413 7.01822 24.1368V21.9549C7.01822 20.8504 7.91366 19.9549 9.01822 19.9549C10.1228 19.9549 11.0182 20.8504 11.0182 21.9549V21.955ZM11.0182 8.86401V16.0004H11.0177C10.9936 17.084 10.1076 17.955 9.01822 17.955C7.92884 17.955 7.04291 17.084 7.01878 16.0004H7.01822V8.86401C7.01822 7.75945 7.91366 6.86401 9.01822 6.86401C10.1228 6.86401 11.0182 7.75945 11.0182 8.86401Z" fill="#EA4335"/>
<path d="M21.2005 11.0459C21.2005 12.1504 22.0959 13.0459 23.2005 13.0459C24.3052 13.0459 25.2005 12.1504 25.2005 11.0459V8.86403C25.2005 7.75946 24.3051 6.86401 23.2005 6.86401C22.096 6.86401 21.2005 7.75946 21.2005 8.86403V11.0459Z" fill="#34A853"/>
<path d="M14.1094 4.68188C14.1094 5.78638 15.0048 6.68188 16.1094 6.68188C17.2139 6.68188 18.1094 5.78638 18.1094 4.68188V2.5C18.1094 1.39544 17.2139 0.5 16.1094 0.5C15.0048 0.5 14.1094 1.39544 14.1094 2.5V4.68188ZM14.1094 28.3181C14.1094 27.2136 15.0048 26.3181 16.1094 26.3181C17.2139 26.3181 18.1094 27.2136 18.1094 28.3181V30.5C18.1094 31.6046 17.2139 32.5 16.1094 32.5C15.0048 32.5 14.1094 31.6046 14.1094 30.5V28.3181Z" fill="#FAB908"/>
<path d="M21.2005 17.0457C21.2005 15.9411 22.0959 15.0457 23.2005 15.0457C24.3052 15.0457 25.2005 15.9411 25.2005 17.0457V24.1366C25.2005 25.2412 24.3051 26.1366 23.2005 26.1366C22.096 26.1366 21.2005 25.2412 21.2005 24.1366V17.0457Z" fill="#34A853"/>
<path d="M18.1094 10.6816V22.3179C18.1094 23.4225 17.2139 24.3179 16.1094 24.3179C15.0048 24.3179 14.1094 23.4225 14.1094 22.3179V10.6816C14.1094 9.57702 15.0048 8.68164 16.1094 8.68164C17.2139 8.68164 18.1094 9.57702 18.1094 10.6816Z" fill="#FAB908"/>
</g>
<defs>
<clipPath id="clip0_1_88504">
<rect width="32" height="32" fill="white" transform="translate(0.109375 0.5)"/>
</clipPath>
</defs>
</svg>
