<svg width="33" height="33" viewBox="0 0 33 33" fill="none" xmlns="http://www.w3.org/2000/svg">
<g clip-path="url(#clip0_1_88505)">
<path d="M24.9904 0.5H7.22831C3.29663 0.5 0.109375 3.68725 0.109375 7.61893V25.3811C0.109375 29.3127 3.29663 32.5 7.22831 32.5H24.9904C28.9221 32.5 32.1094 29.3127 32.1094 25.3811V7.61893C32.1094 3.68725 28.9221 0.5 24.9904 0.5Z" fill="url(#paint0_linear_1_88505)"/>
<path d="M15.1324 28.5148C14.1777 28.1734 13.9729 27.7094 13.5815 24.9905C13.126 21.83 13.0268 19.8737 13.2903 19.254C13.6401 18.4326 14.5895 17.9665 15.9175 17.9612C17.2348 17.9558 18.1927 18.4262 18.5447 19.254C18.8092 19.8726 18.71 21.83 18.2545 24.9905C17.9452 27.1985 17.7745 27.7564 17.3479 28.1318C16.7612 28.6513 15.9292 28.7953 15.1399 28.5158L15.1324 28.5148ZM11.0545 25.2721C7.75855 23.6508 5.64655 20.9073 4.87855 17.2572C4.68655 16.3153 4.65455 14.0678 4.83588 13.2038C5.31588 10.8838 6.23321 9.06943 7.75855 7.46516C9.95588 5.14836 12.7825 3.92383 15.9292 3.92383C19.0439 3.92383 21.8599 5.12596 24.0039 7.37343C25.6359 9.06943 26.5532 10.8646 27.0225 13.2294C27.1825 14.0166 27.1825 16.1628 27.0332 17.0481C26.5425 19.847 24.9852 22.3964 22.7132 24.1094C21.9025 24.7217 19.9185 25.7905 19.5985 25.7905C19.4812 25.7905 19.4705 25.6689 19.5239 25.1772C19.6199 24.3878 19.7159 24.2236 20.1639 24.0358C20.8785 23.7372 22.0945 22.871 22.8412 22.1222C24.1319 20.8422 25.0812 19.1676 25.5185 17.4076C25.7959 16.3089 25.7639 13.8662 25.4545 12.7356C24.4839 9.14089 21.5505 6.34623 17.9559 5.59956C16.9105 5.38623 15.0119 5.38623 13.9559 5.59956C10.3185 6.34623 7.31055 9.27956 6.39321 12.9702C6.14788 13.9729 6.14788 16.4156 6.39321 17.4182C7.00121 19.8609 8.57988 22.1009 10.6492 23.4342C11.0545 23.7009 11.5452 23.9782 11.7479 24.0636C12.1959 24.2556 12.2919 24.4156 12.3772 25.2049C12.4305 25.6849 12.4199 25.8236 12.3025 25.8236C12.2279 25.8236 11.6839 25.5889 11.1079 25.3116L11.0545 25.2721ZM11.0972 20.9329C9.98788 20.0476 9.00655 18.4774 8.60121 16.9372C8.35588 16.007 8.35588 14.2385 8.61188 13.3105C9.28388 10.806 11.1292 8.86463 13.6892 7.95263C14.5639 7.64329 16.5052 7.57396 17.5825 7.81183C21.2945 8.63849 23.9292 12.3558 23.4172 16.0433C23.2145 17.5292 22.7025 18.7494 21.7959 19.8833C21.3479 20.4561 20.2599 21.4172 20.0679 21.4172C20.0359 21.4172 20.0039 21.0545 20.0039 20.6129V19.8065L20.5585 19.1452C22.6492 16.6406 22.4999 13.142 20.2172 10.8465C19.3319 9.95263 18.3079 9.42783 16.9852 9.18569C16.1319 9.02783 15.9505 9.02783 15.0545 9.17503C13.6945 9.39689 12.6407 9.92383 11.7052 10.8497C9.41188 13.1217 9.26255 16.6385 11.3532 19.1452L11.9036 19.8065V20.6172C11.9036 21.0652 11.8684 21.4278 11.8247 21.4278C11.782 21.4278 11.4727 21.2145 11.142 20.9478L11.0972 20.9329ZM14.7985 16.5777C13.8492 16.1361 13.3372 15.303 13.3265 14.2172C13.3265 13.2412 13.8705 12.39 14.8092 11.8918C15.4065 11.5782 16.4625 11.5782 17.0599 11.894C17.7105 12.2321 18.2439 12.8881 18.4465 13.5729C19.0652 15.6764 16.8359 17.5196 14.8199 16.5777H14.7985Z" fill="white"/>
<path d="M16.0978 16.9917C17.567 16.9917 18.758 15.8006 18.758 14.3314C18.758 12.8622 17.567 11.6711 16.0978 11.6711C14.6285 11.6711 13.4375 12.8622 13.4375 14.3314C13.4375 15.8006 14.6285 16.9917 16.0978 16.9917Z" fill="white"/>
<path d="M16.3526 18.0222C16.5371 18.0468 16.904 18.0947 17.2432 18.2035C17.5846 18.3102 17.8939 18.4777 18.135 18.6494C18.3696 18.8201 18.5403 18.9971 18.647 19.2126C18.7536 19.4281 18.807 19.6841 18.839 20.1033C18.8603 20.5235 18.8603 21.1059 18.7643 22.1939C18.6683 23.2787 18.4763 24.8691 18.327 25.8878C18.1776 26.9118 18.071 27.3598 17.9323 27.6905C17.7936 28.0318 17.6123 28.2558 17.4096 28.4158C17.207 28.5758 16.9723 28.6718 16.7483 28.7251C16.5243 28.7785 16.3216 28.7785 16.1296 28.7785C15.9376 28.7785 15.7563 28.7785 15.511 28.7251C15.2656 28.6718 14.9456 28.5758 14.711 28.3838C14.4656 28.1918 14.3056 27.9145 14.1776 27.5518C14.0496 27.1891 13.9536 26.7518 13.8256 25.8771C13.6976 25.0025 13.527 23.7011 13.4203 22.7091C13.3136 21.7171 13.271 21.0345 13.2624 20.5758C13.2518 20.1171 13.2731 19.8899 13.3264 19.6691C13.3798 19.4558 13.4651 19.2531 13.5824 19.0825C13.6998 18.9118 13.8534 18.7625 14.0091 18.6451C14.1616 18.5278 14.3184 18.4425 14.5062 18.3763C14.6918 18.3017 14.9147 18.2377 15.1888 18.1843C15.4662 18.131 15.7862 18.0777 15.9504 18.0563C16.1147 18.0318 16.1147 18.0318 16.2982 18.0563L16.3526 18.0222Z" fill="white"/>
</g>
<defs>
<linearGradient id="paint0_linear_1_88505" x1="16.0763" y1="32.9064" x2="15.8054" y2="0.499998" gradientUnits="userSpaceOnUse">
<stop stop-color="#822CBE"/>
<stop offset="1" stop-color="#D772FB"/>
</linearGradient>
<clipPath id="clip0_1_88505">
<rect width="32" height="32" fill="white" transform="translate(0.109375 0.5)"/>
</clipPath>
</defs>
</svg>
