<svg width="25" height="25" viewBox="0 0 25 25" fill="none" xmlns="http://www.w3.org/2000/svg">
<path d="M17.5547 2.02734H7.55469C4.79326 2.02734 2.55469 4.26592 2.55469 7.02734V17.0273C2.55469 19.7888 4.79326 22.0273 7.55469 22.0273H17.5547C20.3161 22.0273 22.5547 19.7888 22.5547 17.0273V7.02734C22.5547 4.26592 20.3161 2.02734 17.5547 2.02734Z" stroke="white" stroke-width="2" stroke-linecap="round" stroke-linejoin="round"/>
<path d="M16.5547 11.3972C16.6781 12.2294 16.536 13.0794 16.1485 13.8262C15.761 14.573 15.1478 15.1786 14.3963 15.5568C13.6448 15.9351 12.7931 16.0668 11.9625 15.9331C11.1318 15.7994 10.3645 15.4072 9.76954 14.8123C9.17462 14.2174 8.78243 13.45 8.64877 12.6194C8.5151 11.7887 8.64677 10.9371 9.02503 10.1855C9.40329 9.43401 10.0089 8.8209 10.7557 8.4334C11.5025 8.0459 12.3525 7.90375 13.1847 8.02716C14.0336 8.15304 14.8196 8.54862 15.4264 9.15546C16.0332 9.76231 16.4288 10.5482 16.5547 11.3972Z" stroke="white" stroke-width="2" stroke-linecap="round" stroke-linejoin="round"/>
<path d="M18.0547 6.52734H18.0647" stroke="white" stroke-width="2" stroke-linecap="round" stroke-linejoin="round"/>
</svg>
