<svg width="20" height="20" viewBox="0 0 20 20" fill="none" xmlns="http://www.w3.org/2000/svg">
<g clip-path="url(#clip0_1_88210)">
<path d="M10 18.3332C14.6024 18.3332 18.3334 14.6022 18.3334 9.99984C18.3334 5.39746 14.6024 1.6665 10 1.6665C5.39765 1.6665 1.66669 5.39746 1.66669 9.99984C1.66669 14.6022 5.39765 18.3332 10 18.3332Z" stroke="white" stroke-width="1.66667" stroke-linecap="round" stroke-linejoin="round"/>
<path d="M1.66669 10H18.3334" stroke="white" stroke-width="1.66667" stroke-linecap="round" stroke-linejoin="round"/>
<path d="M10 1.6665C12.0844 3.94846 13.269 6.90987 13.3334 9.99984C13.269 13.0898 12.0844 16.0512 10 18.3332C7.91562 16.0512 6.73106 13.0898 6.66669 9.99984C6.73106 6.90987 7.91562 3.94846 10 1.6665V1.6665Z" stroke="white" stroke-width="1.66667" stroke-linecap="round" stroke-linejoin="round"/>
</g>
<defs>
<clipPath id="clip0_1_88210">
<rect width="20" height="20" fill="white"/>
</clipPath>
</defs>
</svg>
