<svg width="25" height="25" viewBox="0 0 25 25" fill="none" xmlns="http://www.w3.org/2000/svg">
<path d="M18.0547 9.02625C17.1594 9.02587 16.278 9.24731 15.4893 9.67078C15.4173 9.48121 15.2893 9.31802 15.1224 9.2029C14.9555 9.08777 14.7575 9.02616 14.5547 9.02625H10.5547C10.4233 9.02618 10.2933 9.05199 10.1719 9.10222C10.0506 9.15245 9.94029 9.22611 9.84742 9.31898C9.75454 9.41185 9.68088 9.52212 9.63066 9.64348C9.58043 9.76484 9.55461 9.89491 9.55469 10.0263V22.0263C9.55461 22.1576 9.58043 22.2877 9.63065 22.409C9.68088 22.5304 9.75454 22.6407 9.84741 22.7335C9.94029 22.8264 10.0506 22.9001 10.1719 22.9503C10.2933 23.0005 10.4233 23.0263 10.5547 23.0263H14.5547C14.686 23.0263 14.8161 23.0005 14.9375 22.9503C15.0588 22.9001 15.1691 22.8264 15.262 22.7335C15.3548 22.6407 15.4285 22.5304 15.4787 22.409C15.529 22.2877 15.5548 22.1576 15.5547 22.0263V16.5263C15.5547 16.261 15.66 16.0067 15.8476 15.8191C16.0351 15.6316 16.2895 15.5263 16.5547 15.5263C16.8199 15.5263 17.0743 15.6316 17.2618 15.8191C17.4493 16.0067 17.5547 16.261 17.5547 16.5263V22.0263C17.5546 22.1576 17.5804 22.2877 17.6307 22.409C17.6809 22.5304 17.7545 22.6407 17.8474 22.7335C17.9403 22.8264 18.0506 22.9001 18.1719 22.9503C18.2933 23.0005 18.4233 23.0263 18.5547 23.0263H22.5547C22.686 23.0263 22.8161 23.0005 22.9375 22.9503C23.0588 22.9001 23.1691 22.8264 23.262 22.7335C23.3548 22.6407 23.4285 22.5304 23.4787 22.409C23.529 22.2877 23.5548 22.1576 23.5547 22.0263V14.5263C23.5529 13.0681 22.9728 11.6702 21.9418 10.6392C20.9107 9.60811 19.5128 9.02807 18.0547 9.02625ZM21.5547 21.0263H19.5547V16.5263C19.5547 15.7306 19.2386 14.9675 18.676 14.4049C18.1134 13.8423 17.3503 13.5263 16.5547 13.5263C15.759 13.5263 14.996 13.8423 14.4334 14.4049C13.8708 14.9675 13.5547 15.7306 13.5547 16.5263V21.0263H11.5547V11.0263H13.5547V11.7294C13.5548 11.9366 13.6193 12.1386 13.7391 12.3076C13.859 12.4766 14.0284 12.6042 14.2239 12.6728C14.4194 12.7415 14.6314 12.7477 14.8306 12.6906C15.0298 12.6336 15.2064 12.5161 15.3359 12.3544C15.7847 11.7844 16.4003 11.3688 17.0967 11.1656C17.7931 10.9624 18.5355 10.9818 19.2204 11.221C19.9053 11.4601 20.4984 11.9072 20.9169 12.4998C21.3353 13.0924 21.5583 13.8008 21.5547 14.5263V21.0263ZM7.55469 9.02625H3.55469C3.42335 9.02618 3.29328 9.05199 3.17192 9.10222C3.05056 9.15245 2.94029 9.22611 2.84741 9.31898C2.75454 9.41185 2.68088 9.52212 2.63066 9.64348C2.58043 9.76484 2.55461 9.89491 2.55469 10.0263V22.0263C2.55461 22.1576 2.58043 22.2877 2.63065 22.409C2.68088 22.5304 2.75454 22.6407 2.84741 22.7335C2.94029 22.8264 3.05056 22.9001 3.17192 22.9503C3.29328 23.0005 3.42335 23.0263 3.55469 23.0263H7.55469C7.68603 23.0263 7.8161 23.0005 7.93746 22.9503C8.05882 22.9001 8.16909 22.8264 8.26197 22.7335C8.35484 22.6407 8.4285 22.5304 8.47872 22.409C8.52895 22.2877 8.55477 22.1576 8.55469 22.0263V10.0263C8.55476 9.89491 8.52895 9.76484 8.47872 9.64348C8.42849 9.52212 8.35484 9.41185 8.26196 9.31898C8.16909 9.22611 8.05882 9.15245 7.93746 9.10222C7.8161 9.05199 7.68603 9.02618 7.55469 9.02625ZM6.55469 21.0263H4.55469V11.0263H6.55469V21.0263ZM5.56934 1.56925C5.1317 1.54306 4.69331 1.60615 4.28082 1.7547C3.86833 1.90325 3.49036 2.13414 3.16991 2.43335C2.84945 2.73255 2.5932 3.09381 2.41675 3.49515C2.24029 3.8965 2.14731 4.32954 2.14347 4.76794C2.13962 5.20635 2.22499 5.64096 2.39437 6.04534C2.56376 6.44971 2.81363 6.81541 3.12879 7.12019C3.44394 7.42497 3.8178 7.66247 4.22762 7.81823C4.63744 7.97399 5.07466 8.04477 5.51269 8.02625H5.54101C5.97981 8.05232 6.41931 7.98864 6.83266 7.8391C7.24602 7.68957 7.62454 7.45733 7.94511 7.15656C8.26568 6.8558 8.52155 6.49283 8.6971 6.08983C8.87264 5.68684 8.96418 5.25228 8.96611 4.81271C8.96803 4.37315 8.88031 3.9378 8.70831 3.53328C8.5363 3.12876 8.28362 2.76356 7.96571 2.46C7.64779 2.15643 7.27132 1.92088 6.85929 1.76772C6.44727 1.61457 6.00834 1.54704 5.56933 1.56925H5.56934ZM5.54102 6.02625H5.51269C5.33976 6.04725 5.16433 6.03103 4.99818 5.97868C4.83203 5.92633 4.67899 5.83906 4.54933 5.72272C4.41967 5.60638 4.31639 5.46366 4.2464 5.30413C4.17642 5.1446 4.14135 4.97195 4.14356 4.79776C4.14356 4.05166 4.70313 3.56924 5.56934 3.56924C5.74404 3.54595 5.9217 3.56037 6.09035 3.61153C6.25901 3.66268 6.41475 3.74938 6.54707 3.8658C6.6794 3.98221 6.78524 4.12562 6.85748 4.28638C6.92971 4.44715 6.96665 4.62152 6.96582 4.79776C6.96582 5.54385 6.40625 6.02625 5.54102 6.02625Z" fill="white"/>
</svg>
