<svg width="79" height="64" viewBox="0 0 79 64" fill="none" xmlns="http://www.w3.org/2000/svg">
<path d="M61.4272 34.6909C59.4817 34.6909 57.4798 33.3575 57.4197 30.8349C57.3271 27.4799 58.246 24.1737 60.0592 21.3384C59.3016 20.3664 58.4241 19.4923 57.447 18.7365C54.5726 20.5136 51.2282 21.4007 47.8418 21.2843C45.2916 21.2031 43.9691 19.211 43.9764 17.284C43.9837 15.3569 45.3226 13.3756 47.8691 13.3143C51.2563 13.2214 54.5943 14.1318 57.4561 15.9289C57.9465 15.5548 58.4126 15.1504 58.8515 14.7181C59.2909 14.2861 59.7027 13.8275 60.0847 13.345C58.2905 10.4977 57.3949 7.18481 57.5126 3.8304C57.5928 1.30425 59.6038 -0.0039316 61.5492 0.00148157C63.4947 0.00689475 65.4966 1.33493 65.5567 3.85747C65.6496 7.21251 64.7306 10.5188 62.9173 13.354C63.2954 13.8393 63.7036 14.3009 64.1395 14.7362C64.576 15.1709 65.039 15.5789 65.5258 15.9577C68.4002 14.1806 71.7446 13.2935 75.131 13.4099C77.6812 13.4893 79.0037 15.4814 78.9964 17.4085C78.9891 19.3355 77.6502 21.3186 75.1037 21.3781C71.7164 21.4718 68.3781 20.5614 65.5167 18.7636C64.5361 19.5147 63.6532 20.3832 62.8881 21.3492C64.6832 24.1962 65.5794 27.5092 65.462 30.8638C65.3819 33.39 63.3708 34.6981 61.4254 34.6909M61.4654 23.5163C60.2658 25.7486 59.6714 28.2511 59.7404 30.779C59.7714 31.9609 60.6712 32.3849 61.4345 32.3867C62.1977 32.3885 63.0994 31.9735 63.1377 30.7898C63.2248 28.2629 62.6486 25.7567 61.4654 23.5163ZM59.3979 17.3381C59.7732 17.6521 60.1357 17.9859 60.4909 18.3341C60.8461 18.6824 61.1722 19.0432 61.4873 19.4167C61.8043 19.0468 62.1394 18.686 62.491 18.3341C62.8426 17.9823 63.2087 17.6575 63.584 17.3453C63.2087 17.0313 62.8444 16.6999 62.491 16.3511C62.1431 16.0028 61.8097 15.6402 61.4946 15.2684C61.1776 15.6377 60.8425 15.9986 60.4891 16.3511C60.1357 16.7035 59.7714 17.0325 59.3961 17.3381M48.3573 15.6113H47.9256C46.7325 15.6402 46.3062 16.5315 46.3026 17.2876C46.2989 18.0436 46.7197 18.9368 47.9147 18.9747C50.4666 19.0647 52.9983 18.4957 55.2611 17.3236C53.137 16.2027 50.7677 15.6148 48.361 15.6113M67.7208 17.367C69.9733 18.5561 72.4993 19.145 75.0508 19.0757C76.2458 19.0468 76.672 18.1537 76.6757 17.3994C76.6793 16.6452 76.2585 15.7484 75.0636 15.7105C72.5126 15.6247 69.9827 16.1954 67.7208 17.367ZM61.5438 2.30389C60.7824 2.30389 59.8789 2.7189 59.8406 3.90077C59.7529 6.42779 60.3291 8.93407 61.5128 11.1743C62.7121 8.94252 63.3065 6.44075 63.2379 3.9134C63.2069 2.72972 62.307 2.30749 61.5438 2.30389Z" fill="white"/>
<path d="M0.493347 46.6037H17.5762V41.7409C17.5762 39.3266 16.6138 37.4837 14.689 36.2122C12.7642 34.9407 10.3099 34.305 7.32611 34.305C5.93805 34.3148 4.55341 34.4428 3.18747 34.6875C3.01334 33.7271 2.9171 32.7544 2.89966 31.7788C2.89966 30.286 3.21237 29.2298 3.83778 28.6103C4.46319 27.9908 5.44927 27.6197 6.79603 27.497C7.88898 27.4344 8.69109 27.4026 9.20234 27.4014C12.3792 27.4014 15.1462 27.9734 17.5033 29.1173C19.7795 30.1878 21.6751 31.9158 22.9407 34.074C24.2073 36.2393 24.8407 38.7973 24.8407 41.7481V53.6571H0.493347V46.6037Z" fill="white"/>
<path d="M29.8445 57.2804C30.8391 57.2804 31.5611 57.0104 32.0104 56.4703C32.4597 55.9302 32.6844 54.9925 32.6844 53.6572V35.0756C32.6844 33.519 33.0214 32.3672 33.6954 31.6202C34.3694 30.8731 35.5079 30.4996 37.1108 30.4996C38.0669 30.5115 39.02 30.6051 39.9598 30.7793V53.6608C39.9598 57.0603 39.1899 59.634 37.65 61.3818C36.1102 63.1297 33.9097 64.0024 31.0486 64C28.984 63.9709 26.9371 63.6171 24.9846 62.9516L26.3799 56.7554C27.8554 57.1054 29.0091 57.2804 29.8409 57.2804M33.4513 25.3932C32.7893 24.7322 32.3789 23.8644 32.29 22.9375C32.2012 22.0105 32.4393 21.0817 32.9639 20.3091C33.4885 19.5364 34.2671 18.9677 35.1673 18.6997C36.0675 18.4317 37.0337 18.481 37.9014 18.8391C38.769 19.1972 39.4846 19.8421 39.9264 20.664C40.3682 21.4859 40.5088 22.434 40.3243 23.347C40.1399 24.26 39.6417 25.0815 38.9147 25.6717C38.1877 26.2619 37.2767 26.5843 36.3367 26.5841C35.7991 26.5914 35.2657 26.4895 34.7695 26.2847C34.2732 26.0798 33.8246 25.7764 33.4513 25.3932Z" fill="white"/>
</svg>
