<svg width="87" height="52" viewBox="0 0 87 52" fill="none" xmlns="http://www.w3.org/2000/svg">
<path d="M49.9886 50.4248L27.6982 50.2675L27.7384 44.674C28.4548 44.048 29.2882 43.3351 30.2322 42.5149C31.1762 41.6948 32.157 40.8412 33.1612 39.981C34.1654 39.1207 35.1295 38.2771 36.0466 37.4771C36.9638 36.6771 37.7572 35.9775 38.4333 35.3917L39.8995 34.0996L31.531 34.0393C30.5171 34.127 29.5042 33.8596 28.6656 33.2828C28.3662 32.9754 28.1368 32.6068 27.9935 32.2023C27.8502 31.7978 27.7963 31.367 27.8355 30.9396C27.8334 30.2003 27.9603 29.4663 28.2104 28.7705C28.3586 28.3182 28.5398 27.8774 28.7527 27.4517L46.4939 27.5822C47.4298 27.548 48.3447 27.8657 49.058 28.4726C49.4071 28.8001 49.6785 29.2015 49.8523 29.6475C50.0261 30.0935 50.0978 30.5728 50.0622 31.0501C50.0722 31.7523 49.8979 32.4447 49.5567 33.0585C49.1146 33.769 48.5824 34.4194 47.9734 34.9933C47.7659 35.2042 47.3039 35.6059 46.6345 36.2151C45.965 36.8244 45.175 37.5139 44.2913 38.3073C43.4076 39.1006 42.5004 39.8872 41.5832 40.7007C40.666 41.5141 39.8359 42.2438 39.0861 42.8764C38.3363 43.5091 37.7471 43.9811 37.3722 44.2757L50.0421 44.366L49.9886 50.4248Z" fill="white"/>
<path d="M52.827 24.3167C52.1115 23.5363 51.718 22.5139 51.7254 21.4552C51.7329 20.3964 52.1408 19.3797 52.8672 18.6094C53.2328 18.231 53.6738 17.9336 54.1616 17.7364C54.6494 17.5392 55.1732 17.4466 55.6991 17.4646C56.2315 17.4514 56.7606 17.55 57.2525 17.7541C57.7443 17.9583 58.1879 18.2633 58.5544 18.6496C59.2655 19.4322 59.6562 20.4537 59.6488 21.5111C59.6413 22.5685 59.2363 23.5844 58.5143 24.3569C58.1453 24.7444 57.698 25.049 57.2023 25.2504C56.7065 25.4518 56.1736 25.5455 55.6389 25.5251C55.1111 25.5356 54.5873 25.4332 54.1024 25.2248C53.6174 25.0164 53.1826 24.7068 52.827 24.3167ZM59.09 50.4867L51.8831 50.4331L52.017 30.7805C51.9916 30.336 52.069 29.8915 52.2431 29.4817C52.4173 29.0718 52.6835 28.7076 53.0212 28.4173C53.8292 27.8403 54.8122 27.5612 55.8029 27.6273C56.4047 27.6341 57.0044 27.6992 57.5937 27.8215C58.1605 27.934 58.7145 28.1033 59.2473 28.3269L59.09 50.4867Z" fill="white"/>
<path d="M85.9887 38.4561C86.038 40.8495 85.5062 43.2191 84.4388 45.3618C83.4858 47.2196 81.9934 48.7458 80.1575 49.7402C78.144 50.7835 75.8966 51.2929 73.6301 51.2197C71.3264 51.2588 69.0509 50.7092 67.019 49.623C65.1864 48.634 63.6761 47.14 62.6673 45.3183C61.6268 43.4089 61.1073 41.2593 61.161 39.0854C61.1362 36.9255 61.6603 34.7947 62.6841 32.8928C63.6281 31.1505 65.0133 29.6868 66.7009 28.6482C68.0909 27.8163 69.6502 27.3076 71.2633 27.1599C72.8764 27.0121 74.5021 27.2291 76.0201 27.7947C77.0813 28.191 78.0416 28.8175 78.8319 29.629L78.9089 18.3014C79.4505 18.0879 80.0108 17.9254 80.5826 17.8161C81.1657 17.7087 81.7572 17.6538 82.35 17.652C83.3406 17.5994 84.3189 17.8916 85.1183 18.4789C85.4533 18.7732 85.7151 19.1415 85.883 19.5546C86.0509 19.9677 86.1203 20.4143 86.0857 20.8589L85.9887 38.4561ZM70.0316 35.1422C69.0945 36.2466 68.5755 37.6452 68.5651 39.0935C68.5547 40.5418 69.0536 41.9477 69.9747 43.0655C70.9662 44.0336 72.2944 44.5797 73.6802 44.5891C75.066 44.5985 76.4014 44.0704 77.4059 43.1157C78.3366 42.009 78.8516 40.612 78.862 39.166C78.8724 37.72 78.3775 36.3157 77.4628 35.1957C76.4717 34.2272 75.1438 33.6804 73.758 33.6705C72.3722 33.6605 71.0365 34.188 70.0316 35.1422Z" fill="white"/>
<path d="M15.5915 32.0642C15.1259 32.0772 14.6624 31.9968 14.2284 31.8277C13.7944 31.6587 13.3987 31.4044 13.0645 31.0799C12.7304 30.7554 12.4646 30.3673 12.2828 29.9385C12.1011 29.5096 12.0071 29.0487 12.0064 28.5829C11.9208 25.554 12.7426 22.5686 14.3663 20.0102C13.6855 19.135 12.8984 18.3479 12.0232 17.6671C9.45252 19.2709 6.46189 20.0716 3.43374 19.9667C2.50628 19.9234 1.63137 19.5236 0.991587 18.8507C0.351804 18.1779 -0.00342982 17.2839 2.49648e-05 16.3554C0.00347975 15.427 0.365356 14.5357 1.01013 13.8676C1.6549 13.1995 2.53274 12.8062 3.46051 12.7698C6.48971 12.6858 9.47494 13.5088 12.0332 15.1331C12.4692 14.7928 12.885 14.4273 13.2784 14.0385C13.6713 13.6471 14.0402 13.2324 14.3831 12.7966C12.7773 10.2266 11.9754 7.23577 12.0801 4.20718C12.1234 3.27971 12.5232 2.40478 13.1961 1.765C13.8689 1.12522 14.7629 0.770008 15.6913 0.773462C16.6198 0.776917 17.5111 1.13877 18.1792 1.78354C18.8473 2.42831 19.2406 3.30618 19.277 4.23395C19.3593 7.26248 18.5377 10.2469 16.9171 12.8066C17.5954 13.6841 18.3828 14.4715 19.2602 15.1498C21.8306 13.5452 24.8214 12.7444 27.8497 12.8501C28.7771 12.8935 29.652 13.2933 30.2918 13.9662C30.9316 14.639 31.2868 15.533 31.2834 16.4614C31.2799 17.3899 30.918 18.2812 30.2733 18.9493C29.6285 19.6174 28.7506 20.0106 27.8229 20.0471C24.7938 20.1298 21.809 19.307 19.2502 17.6838C18.8123 18.0231 18.3953 18.3887 18.0016 18.7784C17.6106 19.1694 17.2429 19.5829 16.9003 20.0169C18.5046 22.5874 19.3053 25.5781 19.2 28.6063C19.1958 29.072 19.0984 29.5322 18.9137 29.9597C18.729 30.3872 18.4606 30.7734 18.1244 31.0956C17.7881 31.4179 17.3908 31.6695 16.9558 31.8359C16.5208 32.0022 16.0569 32.0799 15.5915 32.0642ZM15.625 21.9752C14.5535 23.9899 14.0229 26.2482 14.0852 28.5294C14.1035 28.9196 14.2714 29.2879 14.5541 29.5576C14.8368 29.8273 15.2125 29.9778 15.6032 29.9778C15.9939 29.9778 16.3696 29.8273 16.6523 29.5576C16.935 29.2879 17.1029 28.9196 17.1212 28.5294C17.1998 26.2475 16.6842 23.9844 15.625 21.9618M13.7772 16.385C14.1119 16.6695 14.4467 16.9675 14.7479 17.2821C15.0492 17.5968 15.3572 17.9248 15.6383 18.2596C15.9229 17.9248 16.2242 17.5901 16.5388 17.2888C16.8535 16.9875 17.1782 16.6796 17.5162 16.3984C17.1815 16.1139 16.8468 15.8126 16.5455 15.5013C16.2442 15.19 15.9329 14.8586 15.6518 14.5238C15.3672 14.8586 15.0693 15.1933 14.7546 15.4946C14.44 15.7959 14.1119 16.1038 13.7772 16.385ZM3.90572 14.8251H3.52078C3.13516 14.8507 2.77367 15.022 2.5096 15.3041C2.24554 15.5863 2.09864 15.9584 2.09864 16.3448C2.09864 16.7313 2.24554 17.1033 2.5096 17.3855C2.77367 17.6677 3.13516 17.8389 3.52078 17.8645C5.80152 17.9427 8.06345 17.4271 10.085 16.3683C8.18585 15.3564 6.06765 14.8255 3.91576 14.8218M21.2285 16.4084C23.2426 17.4818 25.5014 18.0125 27.7827 17.9482C28.173 17.9299 28.5412 17.762 28.8109 17.4793C29.0806 17.1966 29.2311 16.8209 29.2311 16.4302C29.2311 16.0395 29.0806 15.6638 28.8109 15.3811C28.5412 15.0984 28.173 14.9305 27.7827 14.9122C25.5019 14.8332 23.2398 15.3489 21.2185 16.4084M15.6953 2.81132C15.4985 2.7969 15.3008 2.82357 15.1149 2.88964C14.929 2.95572 14.7589 3.05974 14.6153 3.19511C14.4718 3.33048 14.358 3.49423 14.2811 3.67595C14.2042 3.85767 14.166 4.05338 14.1689 4.25067C14.092 6.53236 14.6075 8.79508 15.6651 10.8183C16.7395 8.80326 17.2713 6.54343 17.2083 4.26074C17.2129 4.06368 17.1764 3.86781 17.1012 3.68563C17.0259 3.50345 16.9135 3.33892 16.7712 3.20257C16.6288 3.06621 16.4597 2.96099 16.2744 2.89363C16.0892 2.82626 15.8919 2.79825 15.6953 2.81132Z" fill="white"/>
</svg>
