<svg width="33" height="33" viewBox="0 0 33 33" fill="none" xmlns="http://www.w3.org/2000/svg">
<path d="M28.9794 21.4432V10.7215C28.9789 10.2515 28.8548 9.78982 28.6196 9.38287C28.3844 8.97592 28.0463 8.63798 27.6392 8.40296L18.2577 3.04214C17.8503 2.80688 17.388 2.68303 16.9175 2.68303C16.447 2.68303 15.9848 2.80688 15.5773 3.04214L6.19589 8.40296C5.78882 8.63798 5.45071 8.97592 5.21548 9.38287C4.98024 9.78982 4.85616 10.2515 4.85568 10.7215V21.4432C4.85616 21.9132 4.98024 22.3749 5.21548 22.7818C5.45071 23.1888 5.78882 23.5267 6.19589 23.7617L15.5773 29.1225C15.9848 29.3578 16.447 29.4817 16.9175 29.4817C17.388 29.4817 17.8503 29.3578 18.2577 29.1225L27.6392 23.7617C28.0463 23.5267 28.3844 23.1888 28.6196 22.7818C28.8548 22.3749 28.9789 21.9132 28.9794 21.4432Z" stroke="#611DA5" stroke-width="2.68041" stroke-linecap="round" stroke-linejoin="round"/>
<path d="M5.21753 9.32779L16.9175 16.0958L28.6175 9.32779" stroke="#611DA5" stroke-width="2.68041" stroke-linecap="round" stroke-linejoin="round"/>
<path d="M16.9175 29.5918V16.0825" stroke="#611DA5" stroke-width="2.68041" stroke-linecap="round" stroke-linejoin="round"/>
</svg>
