<svg width="33" height="33" viewBox="0 0 33 33" fill="none" xmlns="http://www.w3.org/2000/svg">
<path d="M16.9175 29.4845C24.3193 29.4845 30.3196 23.4842 30.3196 16.0825C30.3196 8.68073 24.3193 2.68042 16.9175 2.68042C9.51578 2.68042 3.51547 8.68073 3.51547 16.0825C3.51547 23.4842 9.51578 29.4845 16.9175 29.4845Z" stroke="#611DA5" stroke-width="2.68041" stroke-linecap="round" stroke-linejoin="round"/>
<path d="M16.9175 21.4433C19.8782 21.4433 22.2784 19.0432 22.2784 16.0825C22.2784 13.1218 19.8782 10.7216 16.9175 10.7216C13.9568 10.7216 11.5567 13.1218 11.5567 16.0825C11.5567 19.0432 13.9568 21.4433 16.9175 21.4433Z" stroke="#611DA5" stroke-width="2.68041" stroke-linecap="round" stroke-linejoin="round"/>
<path d="M20.7103 19.8754L26.3928 25.5578" stroke="#611DA5" stroke-width="2.68041" stroke-linecap="round" stroke-linejoin="round"/>
<path d="M7.44226 25.5578L13.1247 19.8754" stroke="#611DA5" stroke-width="2.68041" stroke-linecap="round" stroke-linejoin="round"/>
<path d="M20.7103 12.2899L26.3928 6.60745" stroke="#611DA5" stroke-width="2.68041" stroke-linecap="round" stroke-linejoin="round"/>
<path d="M20.7103 12.2899L25.4413 7.55896" stroke="#611DA5" stroke-width="2.68041" stroke-linecap="round" stroke-linejoin="round"/>
<path d="M7.44226 6.60745L13.1247 12.2899" stroke="#611DA5" stroke-width="2.68041" stroke-linecap="round" stroke-linejoin="round"/>
</svg>
