<svg width="28" height="25" viewBox="0 0 28 25" fill="none" xmlns="http://www.w3.org/2000/svg">
<path fill-rule="evenodd" clip-rule="evenodd" d="M15.2639 24.1443H4.52995C3.79318 24.1443 3.19591 23.5399 3.19591 22.7984V17.449C3.19591 16.7057 3.7978 16.1031 4.52995 16.1031H5.87632V13.4227H4.52995C3.79318 13.4227 3.19591 12.8183 3.19591 12.0768V8.06187H1.84953C1.11276 8.06187 0.515495 7.45747 0.515495 6.71594V1.36655C0.515495 0.62322 1.11739 0.0206299 1.84953 0.0206299H12.5835C13.3203 0.0206299 13.9176 0.62503 13.9176 1.36655V5.38145H15.2639C16.0007 5.38145 16.598 5.98585 16.598 6.72738V10.7423H20.6186C24.3195 10.7423 27.3196 13.7424 27.3196 17.4433C27.3196 21.1442 24.3195 24.1443 20.6186 24.1443C19.11 24.1443 17.7179 23.6459 16.598 22.8046C16.5946 23.5451 15.994 24.1443 15.2639 24.1443ZM8.55666 13.4225V16.1029H14.0515C14.2525 15.1127 14.6719 14.2017 15.2572 13.4225H8.55666ZM3.19584 2.70088V5.38129H11.2371V2.70088H3.19584ZM5.87625 8.06171V10.7421H13.9175V8.06171H5.87625ZM5.87625 18.7834V21.4638H13.9175V18.7834H5.87625ZM20.6185 21.4638C22.839 21.4638 24.6391 19.6637 24.6391 17.4431C24.6391 15.2226 22.839 13.4225 20.6185 13.4225C18.398 13.4225 16.5979 15.2226 16.5979 17.4431C16.5979 19.6637 18.398 21.4638 20.6185 21.4638Z" fill="#611DA5"/>
</svg>
