<svg width="33" height="33" viewBox="0 0 33 33" fill="none" xmlns="http://www.w3.org/2000/svg">
<path d="M14.2371 6.70103C13.972 6.70103 13.7129 6.77964 13.4925 6.9269C13.2721 7.07416 13.1004 7.28348 12.9989 7.52837C12.8975 7.77326 12.871 8.04273 12.9227 8.3027C12.9744 8.56268 13.102 8.80148 13.2894 8.98891C13.4769 9.17634 13.7157 9.30398 13.9757 9.3557C14.2356 9.40741 14.5051 9.38087 14.75 9.27943C14.9949 9.17799 15.2042 9.00622 15.3515 8.78582C15.4987 8.56542 15.5773 8.30631 15.5773 8.04124C15.5773 7.6858 15.4361 7.34491 15.1848 7.09357C14.9334 6.84223 14.5926 6.70103 14.2371 6.70103ZM8.87629 6.70103C8.61123 6.70103 8.35211 6.77964 8.13171 6.9269C7.91132 7.07416 7.73954 7.28348 7.6381 7.52837C7.53667 7.77326 7.51013 8.04273 7.56184 8.3027C7.61355 8.56268 7.74119 8.80148 7.92862 8.98891C8.11606 9.17634 8.35486 9.30398 8.61483 9.3557C8.87481 9.40741 9.14428 9.38087 9.38917 9.27943C9.63406 9.17799 9.84337 9.00622 9.99063 8.78582C10.1379 8.56542 10.2165 8.30631 10.2165 8.04124C10.2165 7.6858 10.0753 7.34491 9.82396 7.09357C9.57262 6.84223 9.23174 6.70103 8.87629 6.70103ZM19.5979 6.70103C19.3329 6.70103 19.0738 6.77964 18.8534 6.9269C18.633 7.07416 18.4612 7.28348 18.3598 7.52837C18.2583 7.77326 18.2318 8.04273 18.2835 8.3027C18.3352 8.56268 18.4628 8.80148 18.6503 8.98891C18.8377 9.17634 19.0765 9.30398 19.3365 9.3557C19.5965 9.40741 19.8659 9.38087 20.1108 9.27943C20.3557 9.17799 20.565 9.00622 20.7123 8.78582C20.8595 8.56542 20.9381 8.30631 20.9381 8.04124C20.9381 7.6858 20.7969 7.34491 20.5456 7.09357C20.2943 6.84223 19.9534 6.70103 19.5979 6.70103ZM27.6392 1.34021H6.19588C5.12955 1.34021 4.10689 1.76381 3.35287 2.51782C2.59886 3.27183 2.17526 4.29449 2.17526 5.36083V26.8041C2.17526 27.8705 2.59886 28.8931 3.35287 29.6471C4.10689 30.4011 5.12955 30.8247 6.19588 30.8247H27.6392C28.7055 30.8247 29.7282 30.4011 30.4822 29.6471C31.2362 28.8931 31.6598 27.8705 31.6598 26.8041V5.36083C31.6598 4.29449 31.2362 3.27183 30.4822 2.51782C29.7282 1.76381 28.7055 1.34021 27.6392 1.34021ZM28.9794 26.8041C28.9794 27.1596 28.8382 27.5005 28.5868 27.7518C28.3355 28.0031 27.9946 28.1443 27.6392 28.1443H6.19588C5.84044 28.1443 5.49955 28.0031 5.24821 27.7518C4.99687 27.5005 4.85567 27.1596 4.85567 26.8041V14.7423H28.9794V26.8041ZM28.9794 12.0619H4.85567V5.36083C4.85567 5.00538 4.99687 4.6645 5.24821 4.41316C5.49955 4.16182 5.84044 4.02062 6.19588 4.02062H27.6392C27.9946 4.02062 28.3355 4.16182 28.5868 4.41316C28.8382 4.6645 28.9794 5.00538 28.9794 5.36083V12.0619Z" fill="#611DA5"/>
</svg>
