<svg width="201" height="57" viewBox="0 0 201 57" fill="none" xmlns="http://www.w3.org/2000/svg">
<g clip-path="url(#clip0_1_88369)">
<path d="M13.6384 30.6602C13.1002 30.6602 12.6292 30.468 12.2256 30.0835C11.8411 29.6799 11.6489 29.209 11.6489 28.6707C11.6489 28.1133 11.8411 27.6424 12.2256 27.258C12.6292 26.8735 13.1002 26.6813 13.6384 26.6813C14.1958 26.6813 14.6667 26.8735 15.0512 27.258C15.4356 27.6424 15.6278 28.1133 15.6278 28.6707C15.6278 29.209 15.4356 29.6799 15.0512 30.0835C14.6667 30.468 14.1958 30.6602 13.6384 30.6602ZM18.8282 30.6602C18.29 30.6602 17.8191 30.468 17.4154 30.0835C17.031 29.6799 16.8388 29.209 16.8388 28.6707C16.8388 28.1133 17.031 27.6424 17.4154 27.258C17.8191 26.8735 18.29 26.6813 18.8282 26.6813C19.3856 26.6813 19.8566 26.8735 20.241 27.258C20.6254 27.6424 20.8177 28.1133 20.8177 28.6707C20.8177 29.209 20.6254 29.6799 20.241 30.0835C19.8566 30.468 19.3856 30.6602 18.8282 30.6602ZM28.6601 38.4161C28.6601 39.8578 28.9965 40.9053 29.6692 41.5589C30.342 42.2124 31.4376 42.5392 32.9561 42.5392V45.9414C30.1882 45.9414 28.2757 45.0572 27.2185 43.2888C26.5842 44.1538 25.748 44.8169 24.71 45.2783C23.6721 45.7204 22.4803 45.9414 21.1348 45.9414H13.4654C11.5624 45.9414 9.89015 45.5954 8.44853 44.9034C7.0069 44.2115 5.89205 43.2408 5.10396 41.9914C4.33509 40.7419 3.95066 39.3099 3.95066 37.6953C3.95066 37.061 4.02754 36.3402 4.18132 35.5329C4.45042 34.3027 5.24812 33.6876 6.57441 33.6876C7.03573 33.6876 7.46822 33.7357 7.87188 33.8318C7.52589 35.0043 7.35289 36.0807 7.35289 37.061C7.35289 38.7717 7.87188 40.1172 8.90984 41.0975C9.96704 42.0586 11.4855 42.5392 13.4654 42.5392H21.1348C22.5188 42.5392 23.5375 42.2028 24.1911 41.53C24.8446 40.8381 25.1714 39.8001 25.1714 38.4161V34.4084C25.1714 33.7933 25.3444 33.2839 25.6904 32.8803C26.0363 32.4574 26.613 32.246 27.4203 32.246C27.7278 32.246 28.1411 32.294 28.6601 32.3901V38.4161ZM45.703 24.7784C46.049 24.7399 46.2797 24.7207 46.395 24.7207C47.6444 24.7207 48.2691 25.5376 48.2691 27.1715C48.2691 27.4598 48.2595 27.6808 48.2403 27.8346C46.3181 28.0268 44.4152 28.4593 42.5314 29.1321C40.6669 29.7856 39.0716 30.5833 37.7453 31.5252C41.0322 31.9288 43.5598 33.0148 45.3282 34.7832C47.0966 36.5516 47.9808 39.1369 47.9808 42.5392V45.9414H32.9591C32.4209 45.9414 31.998 45.778 31.6904 45.4513C31.3829 45.1053 31.2291 44.7016 31.2291 44.2403C31.2291 43.779 31.3829 43.3849 31.6904 43.0582C31.998 42.7122 32.4209 42.5392 32.9591 42.5392H44.4921C44.4921 40.5593 44.1268 39.012 43.3964 37.8971C42.666 36.7631 41.6088 35.9558 40.2249 35.4752C38.8601 34.9755 37.0917 34.6775 34.9197 34.5814L34.3719 31.8135C34.3334 31.6597 34.3142 31.4291 34.3142 31.1215C34.3142 30.3526 34.6313 29.7087 35.2657 29.1897C38.0144 27.0369 41.4935 25.5665 45.703 24.7784ZM50.9406 48.5075C51.7864 48.7189 52.4495 48.8247 52.9301 48.8247C53.6028 48.8247 54.0738 48.6036 54.3429 48.1615C54.6312 47.7386 54.7753 46.9986 54.7753 45.9414V34.4084C54.7753 33.678 54.9291 33.1302 55.2367 32.765C55.5442 32.3997 56.0632 32.2171 56.7936 32.2171C57.1973 32.2171 57.6874 32.2748 58.2641 32.3901V45.9414C58.2641 48.0558 57.8604 49.6224 57.0531 50.6411C56.2458 51.6598 55.006 52.1692 53.3337 52.1692C52.3919 52.1692 51.3443 52.0154 50.191 51.7079L50.9406 48.5075ZM69.2495 42.5392V45.9414H61.753V26.7966C61.753 26.0662 61.9068 25.5184 62.2143 25.1532C62.5219 24.788 63.0409 24.6054 63.7713 24.6054C64.175 24.6054 64.6651 24.663 65.2418 24.7784V42.5392H69.2495ZM79.7481 30.4007C81.1128 30.4007 82.3623 30.7467 83.4963 31.4387C84.6304 32.1114 85.5146 33.0437 86.1489 34.2354C86.8025 35.4272 87.1292 36.7535 87.1292 38.2143C87.1292 39.7905 86.7928 41.1744 86.1201 42.3662C85.4665 43.5387 84.592 44.4421 83.4963 45.0764C82.4007 45.6915 81.209 45.9991 79.9211 45.9991C78.9216 45.9991 77.9317 45.7972 76.9514 45.3936C75.9711 44.9899 75.0676 44.3845 74.2411 43.5771C73.7029 44.346 73.0013 44.9323 72.1363 45.3359C71.2906 45.7396 70.3295 45.9414 69.2531 45.9414C68.7149 45.9414 68.2728 45.778 67.9268 45.4513C67.5616 45.1053 67.379 44.6824 67.379 44.1826C67.379 43.6829 67.552 43.2888 67.898 43.0005C68.2439 42.6929 68.6957 42.5392 69.2531 42.5392C69.849 42.5392 70.3679 42.4142 70.81 42.1644C71.2521 41.8952 71.5693 41.53 71.7615 41.0687C71.9153 40.6843 72.0402 40.3095 72.1363 39.9442C72.2324 39.579 72.3189 39.2042 72.3958 38.8198C72.5112 38.2047 72.6457 37.5992 72.7995 37.0033C73.3185 34.889 74.1738 33.2647 75.3656 32.1306C76.5573 30.9773 78.0182 30.4007 79.7481 30.4007ZM79.8346 42.5968C80.911 42.5968 81.8144 42.2028 82.5449 41.4147C83.2753 40.6266 83.6405 39.5598 83.6405 38.2143C83.6405 36.9457 83.2753 35.9077 82.5449 35.1004C81.8144 34.2931 80.8822 33.8894 79.7481 33.8894C78.8639 33.8894 78.1335 34.1874 77.5568 34.7832C76.9994 35.3791 76.5477 36.3017 76.2017 37.5512C75.9711 38.3777 75.7596 39.3099 75.5674 40.3479C76.2017 41.0975 76.8841 41.6646 77.6145 42.049C78.3641 42.4142 79.1042 42.5968 79.8346 42.5968ZM106.495 45.9414C104.592 45.9414 102.92 45.5954 101.478 44.9034C100.037 44.2115 98.9219 43.2408 98.1338 41.9914C97.3649 40.7419 96.9805 39.3099 96.9805 37.6953C96.9805 37.061 97.0574 36.3402 97.2111 35.5329C97.4802 34.3027 98.2779 33.6876 99.6042 33.6876C100.066 33.6876 100.498 33.7357 100.902 33.8318C100.556 35.0043 100.383 36.0807 100.383 37.061C100.383 38.7717 100.902 40.1172 101.94 41.0975C102.997 42.0586 104.515 42.5392 106.495 42.5392H118.201V34.4084C118.201 33.7933 118.374 33.2839 118.72 32.8803C119.066 32.4574 119.643 32.246 120.45 32.246C120.758 32.246 121.171 32.294 121.69 32.3901V45.9414H106.495ZM109.263 52.5152C108.725 52.5152 108.254 52.3134 107.85 51.9097C107.466 51.5253 107.274 51.064 107.274 50.5258C107.274 49.9683 107.466 49.4974 107.85 49.113C108.254 48.7285 108.725 48.5363 109.263 48.5363C109.821 48.5363 110.291 48.7285 110.676 49.113C111.06 49.4974 111.253 49.9683 111.253 50.5258C111.253 51.064 111.06 51.5253 110.676 51.9097C110.291 52.3134 109.821 52.5152 109.263 52.5152ZM125.612 26.7966C125.612 26.0662 125.766 25.5184 126.074 25.1532C126.381 24.788 126.9 24.6054 127.631 24.6054C128.034 24.6054 128.525 24.663 129.101 24.7784V45.9414H125.612V26.7966ZM124.805 21.405C124.805 21.7894 124.498 21.9816 123.883 21.9816C123.575 21.9816 123.258 21.9432 122.931 21.8663V20.9436C122.931 20.0979 123.142 19.4251 123.565 18.9254C123.988 18.4064 124.555 18.1469 125.266 18.1469C125.709 18.1469 126.093 18.2334 126.42 18.4064C126.766 18.5602 127.054 18.7235 127.285 18.8965C127.535 19.0695 127.688 19.1849 127.746 19.2425C128.131 19.5116 128.448 19.7038 128.698 19.8192C128.947 19.9345 129.236 19.9922 129.563 19.9922C129.812 19.9922 129.985 19.9249 130.082 19.7903C130.197 19.6366 130.255 19.3771 130.255 19.0119V18.0604C130.581 17.9835 130.879 17.9451 131.148 17.9451C131.494 17.9451 131.735 18.0219 131.869 18.1757C132.023 18.3295 132.1 18.5794 132.1 18.9254V19.0119C132.1 19.8961 131.869 20.5977 131.408 21.1166C130.966 21.6164 130.351 21.8663 129.563 21.8663C129.005 21.8663 128.534 21.7798 128.15 21.6068C127.785 21.4146 127.304 21.1262 126.708 20.7418L126.218 20.4247C126.064 20.3093 125.91 20.2132 125.757 20.1363C125.622 20.0402 125.497 19.9922 125.382 19.9922C124.997 19.9922 124.805 20.3093 124.805 20.9436V21.405Z" fill="#404041"/>
<path d="M185.211 31.0854C184.756 31.0979 184.304 31.0195 183.88 30.8544C183.456 30.6893 183.07 30.4409 182.743 30.1241C182.417 29.8073 182.157 29.4284 181.98 29.0097C181.802 28.591 181.71 28.1409 181.709 27.686C181.627 24.7277 182.43 21.8123 184.013 19.3123C183.684 18.8843 183.327 18.4773 182.947 18.0938C182.564 17.7091 182.157 17.3493 181.728 17.0163C179.218 18.5826 176.297 19.3645 173.34 19.2617C172.432 19.2237 171.574 18.8354 170.946 18.1781C170.317 17.5209 169.968 16.6458 169.972 15.7366C169.975 14.8275 170.33 13.955 170.963 13.3021C171.595 12.6493 172.456 12.2668 173.365 12.2351C176.323 12.1533 179.238 12.9562 181.737 14.5413C182.165 14.2106 182.572 13.8539 182.955 13.4727C183.339 13.089 183.699 12.6819 184.033 12.2542C182.466 9.74419 181.683 6.82373 181.786 3.86648C181.817 2.95359 182.203 2.08881 182.861 1.45536C183.519 0.821909 184.398 0.46951 185.312 0.472677C186.225 0.475844 187.101 0.834359 187.755 1.47236C188.409 2.11035 188.789 2.97782 188.814 3.89092C188.895 6.84889 188.092 9.7637 186.508 12.2629C186.838 12.6913 187.195 13.0983 187.576 13.4815C187.96 13.8656 188.367 14.2253 188.795 14.5587C191.305 12.991 194.226 12.2087 197.184 12.3118C198.097 12.3437 198.962 12.7297 199.595 13.388C200.228 14.0463 200.581 14.9252 200.577 15.8386C200.574 16.7521 200.215 17.6283 199.577 18.2818C198.939 18.9354 198.071 19.315 197.158 19.3401C194.2 19.4209 191.285 18.6179 188.786 17.0338C187.93 17.6954 187.16 18.4609 186.492 19.3123C188.059 21.823 188.841 24.7441 188.737 27.7017C188.733 28.1565 188.638 28.6059 188.458 29.0233C188.277 29.4407 188.015 29.8177 187.686 30.1322C187.358 30.4467 186.97 30.6924 186.545 30.8546C186.12 31.0168 185.667 31.0922 185.213 31.0766M185.248 21.2252C184.2 23.1927 183.681 25.3986 183.742 27.627C183.772 27.998 183.94 28.3444 184.213 28.5973C184.486 28.8502 184.844 28.9912 185.217 28.9925C185.589 28.9938 185.948 28.8553 186.223 28.6043C186.498 28.3533 186.668 28.0082 186.701 27.6374C186.777 25.4096 186.274 23.2002 185.241 21.2252M183.434 15.7772C183.759 16.054 184.076 16.3481 184.383 16.6475C184.689 16.9469 184.978 17.274 185.253 17.603C185.53 17.2758 185.824 16.9591 186.123 16.6545C186.422 16.3499 186.75 16.0592 187.079 15.7842C186.751 15.5081 186.435 15.218 186.13 14.9139C185.825 14.6099 185.535 14.2918 185.26 13.9599C184.982 14.2872 184.692 14.6034 184.389 14.9086C184.087 15.2138 183.769 15.5039 183.436 15.7789M173.795 14.2559H173.419C173.048 14.2858 172.701 14.4538 172.448 14.727C172.195 15.0001 172.054 15.3584 172.053 15.7307C172.052 16.1029 172.19 16.462 172.441 16.7369C172.692 17.0119 173.037 17.1823 173.408 17.2148C175.636 17.2917 177.846 16.7885 179.82 15.7545C177.965 14.7661 175.897 14.2475 173.795 14.2438M190.702 15.7929C192.67 16.8408 194.876 17.3596 197.104 17.2985C197.475 17.2687 197.822 17.1004 198.075 16.8272C198.328 16.5541 198.469 16.196 198.47 15.8237C198.471 15.4515 198.333 15.0924 198.082 14.8175C197.831 14.5426 197.486 14.3719 197.115 14.3394C194.887 14.2623 192.677 14.7655 190.702 15.7997M185.307 2.5192C185.115 2.50595 184.922 2.53281 184.741 2.59782C184.559 2.66283 184.394 2.76465 184.254 2.89698C184.114 3.0293 184.003 3.18918 183.928 3.36654C183.853 3.5439 183.816 3.73495 183.819 3.92746C183.741 6.15537 184.244 8.3651 185.279 10.3396C186.327 8.37216 186.846 6.1662 186.784 3.93787C186.788 3.74543 186.752 3.55416 186.679 3.37631C186.605 3.19847 186.495 3.03793 186.357 2.90463C186.218 2.77132 186.053 2.66817 185.872 2.60185C185.691 2.53554 185.499 2.50737 185.307 2.5192Z" fill="#802BD6"/>
<path d="M133.737 41.7196H147.434V37.784C147.474 36.9007 147.281 36.0225 146.875 35.2371C146.468 34.4518 145.863 33.787 145.119 33.3092C143.349 32.2191 141.294 31.6822 139.217 31.767C138.104 31.7746 136.994 31.8777 135.899 32.0751C135.759 31.2982 135.681 30.5112 135.668 29.7218C135.575 28.8014 135.845 27.8811 136.42 27.1562C137.082 26.5887 137.92 26.2683 138.792 26.2494C139.662 26.1989 140.31 26.1729 140.72 26.1729C143.017 26.1203 145.294 26.5966 147.376 27.5652C149.198 28.43 150.714 29.8257 151.728 31.5686C152.781 33.4655 153.307 35.6099 153.251 37.7789V47.4234H133.737V41.7196Z" fill="#802BD6"/>
<path d="M157.626 51.0026C157.975 51.0339 158.327 50.9858 158.654 50.8619C158.982 50.738 159.277 50.5415 159.518 50.2872C159.981 49.5479 160.188 48.6771 160.107 47.8087V31.4195C160.019 30.3299 160.333 29.2458 160.989 28.3718C161.389 28.0064 161.861 27.7296 162.375 27.5595C162.889 27.3894 163.434 27.3299 163.972 27.3849C164.804 27.3975 165.634 27.4819 166.451 27.6373V47.8087C166.627 50.2474 165.91 52.6669 164.434 54.6161C163.706 55.4043 162.812 56.0206 161.816 56.4204C160.821 56.8202 159.748 56.9934 158.678 56.9275C156.875 56.9012 155.088 56.5892 153.383 56.0033L154.601 50.5396C155.59 50.8046 156.604 50.9598 157.626 51.0026ZM160.778 22.889C160.199 22.3073 159.838 21.5427 159.759 20.7252C159.679 19.9076 159.885 19.0878 160.342 18.4052C160.799 17.7226 161.478 17.2192 162.264 16.981C163.05 16.7428 163.895 16.7845 164.653 17.0987C165.412 17.4129 166.039 17.9804 166.426 18.7046C166.814 19.4288 166.939 20.2649 166.779 21.0706C166.62 21.8764 166.186 22.602 165.552 23.124C164.917 23.6459 164.122 23.9318 163.301 23.9333C162.831 23.9404 162.365 23.8515 161.932 23.6719C161.498 23.4923 161.105 23.2259 160.778 22.889Z" fill="#802BD6"/>
</g>
<defs>
<clipPath id="clip0_1_88369">
<rect width="200.052" height="56.4257" fill="white" transform="translate(0.502686 0.5)"/>
</clipPath>
</defs>
</svg>
