<svg width="88" height="29" viewBox="0 0 88 29" fill="none" xmlns="http://www.w3.org/2000/svg">
<path d="M25.1636 9.13807C27.5154 9.13807 29.4219 7.23159 29.4219 4.87983C29.4219 2.52806 27.5154 0.621582 25.1636 0.621582C22.8118 0.621582 20.9054 2.52806 20.9054 4.87983C20.9054 7.23159 22.8118 9.13807 25.1636 9.13807Z" fill="#3FB0E0"/>
<path d="M4.5666 9.13807C6.91836 9.13807 8.82485 7.23159 8.82485 4.87983C8.82485 2.52806 6.91836 0.621582 4.5666 0.621582C2.21483 0.621582 0.30835 2.52806 0.30835 4.87983C0.30835 7.23159 2.21483 9.13807 4.5666 9.13807Z" fill="#E01A65"/>
<path d="M14.805 9.13807C17.1567 9.13807 19.0632 7.23159 19.0632 4.87983C19.0632 2.52806 17.1567 0.621582 14.805 0.621582C12.4532 0.621582 10.5467 2.52806 10.5467 4.87983C10.5467 7.23159 12.4532 9.13807 14.805 9.13807Z" fill="#8E86FF"/>
<path d="M1.58663 28.1391H5.32855V21.6081C5.32855 20.0277 6.02581 19.4002 7.21114 19.4002C8.41971 19.4002 9.23317 20.1671 9.23317 21.9335V28.1391H12.9751V21.9335C12.9751 20.1671 13.8118 19.4002 15.0204 19.4002C16.2057 19.4002 16.8797 20.0277 16.8797 21.6081V28.1391H20.6216V20.539C20.6216 17.5176 18.3207 15.9604 15.3458 15.9604C13.4864 15.9604 12.0454 16.6111 11.139 17.7268C10.2326 16.6111 8.74509 15.9604 6.88575 15.9604C3.86432 15.9604 1.58663 17.5176 1.58663 20.539V28.1391Z" fill="white"/>
<path d="M34.1416 21.0503C34.1416 17.1457 31.3061 15.9604 27.6804 15.9604C24.9147 15.9604 23.5434 16.6344 23.5434 17.9824C23.5434 18.8424 24.2639 19.5164 24.3801 19.6326C24.6357 19.4466 25.5887 18.9353 27.5177 18.9353C29.563 18.9353 30.3765 19.5861 30.3765 20.6785C29.9349 20.6087 29.3073 20.5855 28.308 20.5855C24.3336 20.5855 22.5905 21.7011 22.5905 24.5598C22.5905 26.6748 23.9153 28.4645 28.6333 28.4645C31.4223 28.4645 33.7698 28.1856 34.1416 28.0693V21.0503ZM30.3997 25.6987C30.1905 25.7684 29.4236 25.8149 28.6101 25.8149C26.5416 25.8149 26.3092 25.0712 26.3092 24.5134C26.3092 23.7696 26.7043 23.0956 28.5636 23.0956C29.656 23.0956 30.1208 23.1421 30.3997 23.2118V25.6987Z" fill="white"/>
<path d="M35.8623 28.1391H47.4367V24.9782H40.8592C41.8122 24.2112 45.7633 20.6785 46.3211 20.1207C47.088 19.4002 47.3902 18.8424 47.3902 18.0754C47.3902 16.89 46.6232 16.2858 45.5308 16.2858H36.3271C36.2109 16.4949 35.8623 17.2852 35.8623 18.0986C35.8623 19.2142 36.3968 19.7023 37.7913 19.7023H42.1375C41.3938 20.3996 37.7216 23.6069 35.8623 25.2338V28.1391Z" fill="white"/>
<path d="M53.7777 23.7696C59.286 23.7696 60.6805 22.3751 60.6805 20.0742C60.6805 17.9359 58.7049 15.9604 55.3349 15.9604C51.7324 15.9604 48.9666 18.4705 48.9666 22.2124C48.9666 26.1868 51.7556 28.4645 55.2187 28.4645C58.0309 28.4645 59.867 27.5115 60.3551 27.2094L59.0536 24.6063C58.9373 24.7225 57.6358 25.3268 56.0321 25.3268C53.9404 25.3268 53.0804 24.4901 52.9642 23.7696H53.7777ZM52.7783 21.3525C52.848 20.1207 53.6382 18.8424 55.3116 18.8424C56.497 18.8424 57.078 19.4002 57.078 20.0509C57.078 20.6785 56.9153 21.3525 52.7783 21.3525Z" fill="white"/>
<path d="M66.8058 23.7696C72.3141 23.7696 73.7086 22.3751 73.7086 20.0742C73.7086 17.9359 71.733 15.9604 68.363 15.9604C64.7605 15.9604 61.9947 18.4705 61.9947 22.2124C61.9947 26.1868 64.7837 28.4645 68.2468 28.4645C71.059 28.4645 72.8951 27.5115 73.3832 27.2094L72.0817 24.6063C71.9654 24.7225 70.6639 25.3268 69.0602 25.3268C66.9685 25.3268 66.1085 24.4901 65.9923 23.7696H66.8058ZM65.8064 21.3525C65.8761 20.1207 66.6663 18.8424 68.3397 18.8424C69.5251 18.8424 70.1061 19.4002 70.1061 20.0509C70.1061 20.6785 69.9434 21.3525 65.8064 21.3525Z" fill="white"/>
<path d="M87.922 11.3585C87.7361 11.2888 86.9924 11.0099 86.1556 11.0099C84.9703 11.0099 84.2033 11.4515 84.2033 12.66V17.2387C83.6455 16.6809 82.5299 15.9604 80.7868 15.9604C77.6259 15.9604 75.0461 18.4473 75.0461 22.2124C75.0461 25.9543 77.8119 28.4645 81.4608 28.4645C83.692 28.4645 85.5746 27.651 86.7599 26.0938C87.5037 25.0944 87.922 23.6534 87.922 21.6779V11.3585ZM81.5538 25.0247C79.9966 25.0247 78.881 23.9091 78.881 22.2357C78.881 20.5623 79.9966 19.3769 81.5538 19.3769C83.111 19.3769 84.2266 20.632 84.2266 22.2357C84.2266 23.9788 83.111 25.0247 81.5538 25.0247Z" fill="white"/>
</svg>
