<svg width="112" height="36" viewBox="0 0 112 36" fill="none" xmlns="http://www.w3.org/2000/svg">
<path d="M31.9823 10.8586C34.9808 10.8586 37.4116 8.42784 37.4116 5.42931C37.4116 2.43078 34.9808 0 31.9823 0C28.9837 0 26.5529 2.43078 26.5529 5.42931C26.5529 8.42784 28.9837 10.8586 31.9823 10.8586Z" fill="#3FB0E0"/>
<path d="M5.72082 10.8586C8.71935 10.8586 11.1501 8.42784 11.1501 5.42931C11.1501 2.43078 8.71935 0 5.72082 0C2.72229 0 0.291504 2.43078 0.291504 5.42931C0.291504 8.42784 2.72229 10.8586 5.72082 10.8586Z" fill="#E01A65"/>
<path d="M18.7749 10.8586C21.7734 10.8586 24.2042 8.42784 24.2042 5.42931C24.2042 2.43078 21.7734 0 18.7749 0C15.7763 0 13.3456 2.43078 13.3456 5.42931C13.3456 8.42784 15.7763 10.8586 18.7749 10.8586Z" fill="#8E86FF"/>
<path d="M1.92132 35.0851H6.69232V26.7581C6.69232 24.743 7.58133 23.9429 9.09264 23.9429C10.6336 23.9429 11.6708 24.9208 11.6708 27.173V35.0851H16.4418V27.173C16.4418 24.9208 17.5086 23.9429 19.0495 23.9429C20.5608 23.9429 21.4202 24.743 21.4202 26.7581V35.0851H26.1912V25.395C26.1912 21.5426 23.2575 19.5571 19.4644 19.5571C17.0937 19.5571 15.2564 20.3869 14.1007 21.8093C12.945 20.3869 11.0485 19.5571 8.67777 19.5571C4.82541 19.5571 1.92132 21.5426 1.92132 25.395V35.0851Z" fill="white"/>
<path d="M43.4294 26.0469C43.4294 21.0685 39.8141 19.5571 35.1912 19.5571C31.6648 19.5571 29.9165 20.4165 29.9165 22.1353C29.9165 23.2317 30.8351 24.0911 30.9833 24.2393C31.3092 24.0022 32.5242 23.3502 34.9838 23.3502C37.5915 23.3502 38.6287 24.18 38.6287 25.5728C38.0657 25.4839 37.2656 25.4542 35.9913 25.4542C30.924 25.4542 28.7015 26.8766 28.7015 30.5216C28.7015 33.2182 30.3906 35.5 36.4062 35.5C39.9622 35.5 42.9552 35.1444 43.4294 34.9962V26.0469ZM38.6584 31.9736C38.3917 32.0625 37.4137 32.1218 36.3766 32.1218C33.7392 32.1218 33.4428 31.1735 33.4428 30.4623C33.4428 29.514 33.9466 28.6546 36.3173 28.6546C37.7101 28.6546 38.3027 28.7139 38.6584 28.8028V31.9736Z" fill="white"/>
<path d="M45.6232 35.0851H60.3807V31.055H51.9944C53.2094 30.0771 58.2471 25.5728 58.9583 24.8616C59.9362 23.9429 60.3214 23.2317 60.3214 22.2538C60.3214 20.7425 59.3435 19.972 57.9507 19.972H46.2158C46.0677 20.2387 45.6232 21.2463 45.6232 22.2834C45.6232 23.7058 46.3047 24.3282 48.0827 24.3282H53.6242C52.6759 25.2172 47.9939 29.3066 45.6232 31.3809V35.0851Z" fill="white"/>
<path d="M68.4655 29.514C75.4887 29.514 77.2667 27.736 77.2667 24.8023C77.2667 22.076 74.7478 19.5571 70.451 19.5571C65.8578 19.5571 62.3314 22.7576 62.3314 27.5286C62.3314 32.5959 65.8874 35.5 70.3028 35.5C73.8885 35.5 76.2295 34.285 76.8518 33.8998L75.1923 30.5808C75.0442 30.729 73.3847 31.4995 71.34 31.4995C68.673 31.4995 67.5765 30.4327 67.4284 29.514H68.4655ZM67.1913 26.4321C67.2802 24.8616 68.2877 23.2317 70.4213 23.2317C71.9327 23.2317 72.6735 23.9429 72.6735 24.7727C72.6735 25.5728 72.4661 26.4321 67.1913 26.4321Z" fill="white"/>
<path d="M85.0765 29.514C92.0997 29.514 93.8777 27.736 93.8777 24.8023C93.8777 22.076 91.3588 19.5571 87.062 19.5571C82.4688 19.5571 78.9424 22.7576 78.9424 27.5286C78.9424 32.5959 82.4984 35.5 86.9138 35.5C90.4995 35.5 92.8405 34.285 93.4628 33.8998L91.8033 30.5808C91.6552 30.729 89.9957 31.4995 87.951 31.4995C85.284 31.4995 84.1875 30.4327 84.0394 29.514H85.0765ZM83.8023 26.4321C83.8912 24.8616 84.8987 23.2317 87.0323 23.2317C88.5436 23.2317 89.2845 23.9429 89.2845 24.7727C89.2845 25.5728 89.077 26.4321 83.8023 26.4321Z" fill="white"/>
<path d="M112 13.6897C111.763 13.6008 110.815 13.2452 109.748 13.2452C108.237 13.2452 107.259 13.8082 107.259 15.3492V21.187C106.547 20.4758 105.125 19.5571 102.902 19.5571C98.8723 19.5571 95.583 22.7279 95.583 27.5286C95.583 32.2996 99.1094 35.5 103.762 35.5C106.607 35.5 109.007 34.4628 110.518 32.4774C111.467 31.2031 112 29.3659 112 26.847V13.6897ZM103.88 31.1142C101.895 31.1142 100.473 29.6918 100.473 27.5582C100.473 25.4246 101.895 23.9133 103.88 23.9133C105.866 23.9133 107.288 25.5135 107.288 27.5582C107.288 29.7807 105.866 31.1142 103.88 31.1142Z" fill="white"/>
</svg>
