<svg width="108" height="46" viewBox="0 0 108 46" fill="none" xmlns="http://www.w3.org/2000/svg">
<g clip-path="url(#clip0_1_88408)">
<g clip-path="url(#clip1_1_88408)">
<path d="M67.6137 23.7399C67.2367 23.3673 66.7423 23.137 66.2147 23.0882C65.6871 23.0393 65.1588 23.1749 64.7199 23.4719C64.281 23.7688 63.9585 24.2088 63.8073 24.7169C63.6562 25.225 63.6857 25.7699 63.8909 26.2586C64.0961 26.7474 64.4642 27.1499 64.9327 27.3977C65.4011 27.6454 65.9409 27.7231 66.4602 27.6174C66.9794 27.5118 67.446 27.2293 67.7805 26.8182C68.1151 26.407 68.2968 25.8926 68.2949 25.3625C68.2981 25.0598 68.2393 24.7597 68.1222 24.4806C68.005 24.2016 67.832 23.9494 67.6137 23.7399ZM73.0259 23.7399C72.6489 23.3656 72.1538 23.1336 71.625 23.0836C71.0962 23.0336 70.5664 23.1685 70.1259 23.4654C69.6854 23.7623 69.3614 24.2029 69.2091 24.712C69.0568 25.2211 69.0857 25.7673 69.2908 26.2575C69.4959 26.7477 69.8645 27.1516 70.3338 27.4004C70.8032 27.6492 71.3442 27.7275 71.8648 27.6219C72.3854 27.5164 72.8533 27.2335 73.1888 26.8215C73.5243 26.4095 73.7066 25.8939 73.7048 25.3625C73.708 25.06 73.6495 24.7601 73.5328 24.4811C73.416 24.202 73.2435 23.9498 73.0259 23.7399ZM73.5866 8.11877H70.8063H73.5866Z" fill="white"/>
<path d="M83.5114 2.28933C83.134 1.91542 82.6388 1.68383 82.11 1.63394C81.5812 1.58405 81.0515 1.71894 80.6108 2.01567C80.1702 2.3124 79.8459 2.75265 79.6931 3.26157C79.5402 3.77049 79.5683 4.31667 79.7725 4.80724C79.9767 5.2978 80.3444 5.70247 80.8131 5.95244C81.2818 6.2024 81.8226 6.28224 82.3435 6.17836C82.8644 6.07449 83.3332 5.79333 83.6703 5.38268C84.0074 4.97203 84.192 4.45724 84.1926 3.92584C84.1971 3.62092 84.1391 3.31831 84.0219 3.03679C83.9047 2.75527 83.7309 2.50085 83.5114 2.28933Z" fill="white"/>
<path d="M103.696 7.27502C104.809 7.96246 105.719 8.93369 106.333 10.0891C106.983 11.2996 107.316 12.6555 107.299 14.0297C107.335 15.3756 107.006 16.7061 106.347 17.8799C105.749 18.917 104.872 19.7657 103.817 20.3301C102.754 20.8942 101.567 21.1834 100.365 21.1715C99.3766 21.17 98.3965 20.9958 97.4685 20.6569C96.4986 20.3018 95.6002 19.7758 94.8157 19.1038C94.2689 19.7785 93.5637 20.3073 92.7629 20.643C91.8971 21.0035 90.9668 21.1833 90.029 21.1715C89.7439 21.1797 89.4601 21.131 89.194 21.0283C88.9278 20.9256 88.6848 20.771 88.479 20.5735C88.2771 20.3865 88.1169 20.1589 88.0091 19.9056C87.9013 19.6523 87.8482 19.3791 87.8535 19.1038C87.8449 18.8387 87.8941 18.5749 87.9977 18.3307C88.1013 18.0865 88.2569 17.8678 88.4535 17.6899C88.89 17.3138 89.4536 17.1189 90.029 17.1451C90.4949 17.1739 90.959 17.0651 91.3635 16.8322C91.67 16.6246 91.9029 16.3252 92.0285 15.9768C92.2191 15.4237 92.3784 14.8604 92.5057 14.2893C92.6865 13.5074 92.8131 12.9997 92.8857 12.7664C93.4464 10.6987 94.3299 9.09312 95.5362 7.94956C96.1209 7.38762 96.8107 6.94679 97.5662 6.65242C98.3216 6.35805 99.1278 6.21593 99.9383 6.23423C101.264 6.21903 102.567 6.57989 103.696 7.27502ZM102.213 16.5471C102.867 15.9583 103.193 15.1192 103.191 14.0297C103.224 13.0746 102.905 12.1406 102.295 11.4057C102.005 11.0635 101.642 10.7914 101.232 10.6099C100.822 10.4285 100.377 10.3423 99.929 10.358C99.5914 10.3457 99.2551 10.4062 98.9429 10.5354C98.6306 10.6646 98.3499 10.8594 98.1195 11.1067C97.6562 11.6043 97.2438 12.3978 96.8823 13.4873C96.7021 14.0247 96.5695 14.577 96.4861 15.1377C96.4456 15.2848 96.4138 15.4342 96.3912 15.5851C96.3573 15.7842 96.3077 15.9803 96.2429 16.1716C96.7549 16.5814 97.3343 16.8991 97.955 17.1104C98.5324 17.3124 99.139 17.4181 99.7506 17.4233C100.654 17.4527 101.535 17.136 102.213 16.5378V16.5471Z" fill="white"/>
<path d="M90.5129 17.1498V21.1761H84.0094C84.0094 23.1171 83.5738 24.5852 82.7027 25.5804C81.8315 26.5756 80.5889 27.0747 78.9748 27.0778C77.8092 27.0607 76.6535 26.8597 75.5505 26.4821L76.3406 22.9448C76.9802 23.1158 77.6368 23.2153 78.2983 23.2415C78.859 23.2415 79.266 23.087 79.5193 22.7779C79.7742 22.4696 79.9016 21.9365 79.9016 21.1715V8.11877H84.0094V17.159L90.5129 17.1498Z" fill="white"/>
<path d="M73.5862 8.12072V21.1781H57.8199C57.5348 21.1859 57.2511 21.137 56.985 21.0343C56.719 20.9317 56.4759 20.7773 56.2699 20.58C56.0685 20.3932 55.9086 20.1659 55.8009 19.9131C55.6931 19.6603 55.6397 19.3876 55.6443 19.1127C55.6356 18.8472 55.6847 18.583 55.7883 18.3384C55.8919 18.0938 56.0476 17.8747 56.2444 17.6964C56.6804 17.3195 57.2443 17.1245 57.8199 17.1517H69.4807V8.11145L73.5862 8.12072Z" fill="white"/>
<path d="M60.7227 17.1513V21.1777H44.2173V17.1513H53.8694V14.3697C53.8694 12.9897 53.3288 11.9373 52.2476 11.2126C51.3799 10.6552 50.3934 10.3098 49.3677 10.2042C48.9666 10.1523 48.5627 10.126 48.1583 10.1254L45.7464 10.1324V6.19174H48.6726C48.8626 6.19174 49.0201 6.19174 49.1476 6.19174C50.7652 6.15377 52.3699 6.4893 53.8369 7.17226C55.1249 7.78202 56.1971 8.76909 56.9114 10.0026C57.6537 11.3401 58.0249 12.8519 57.9864 14.3813V17.1629L60.7227 17.1513Z" fill="white"/>
<path opacity="0.41" d="M48.1492 10.1268V10.1315L45.7373 10.1268H48.1492Z" fill="white"/>
<path d="M35.7563 21.101C38.9731 21.101 41.5809 18.492 41.5809 15.2735C41.5809 12.0551 38.9731 9.44604 35.7563 9.44604C32.5394 9.44604 29.9316 12.0551 29.9316 15.2735C29.9316 18.492 32.5394 21.101 35.7563 21.101Z" fill="#1E9AD6"/>
<path d="M21.4218 21.101C24.6387 21.101 27.2464 18.492 27.2464 15.2735C27.2464 12.0551 24.6387 9.44604 21.4218 9.44604C18.205 9.44604 15.5972 12.0551 15.5972 15.2735C15.5972 18.492 18.205 21.101 21.4218 21.101Z" fill="#E91C48"/>
<path d="M7.4119 21.101C10.6287 21.101 13.2365 18.492 13.2365 15.2735C13.2365 12.0551 10.6287 9.44604 7.4119 9.44604C4.19505 9.44604 1.58728 12.0551 1.58728 15.2735C1.58728 18.492 4.19505 21.101 7.4119 21.101Z" fill="#FFC908"/>
<path d="M25.2216 35.5573V44.6694H21.2458V36.5842C21.2458 34.5629 20.187 33.2787 18.4656 33.2787C16.67 33.2787 15.3888 34.6695 15.3888 36.7441V44.6694H11.3991V36.5842C11.3991 34.5629 10.3403 33.2787 8.64204 33.2787C6.84646 33.2787 5.56291 34.6695 5.56291 36.7441V44.6694H1.58484V30.0381H5.40305V31.7395C6.26724 30.5527 7.87283 29.6533 9.89315 29.6533C11.9135 29.6533 13.6117 30.5805 14.5755 32.1243C15.6645 30.4878 17.6524 29.6533 19.7051 29.6533C23.0391 29.6533 25.2216 32.0919 25.2216 35.5573Z" fill="white"/>
<path d="M33.8762 30.0527C34.691 30.0324 35.4999 30.1953 36.2434 30.5295C36.9868 30.8637 37.6458 31.3606 38.1717 31.9836V30.4282H41.9065V44.6701H38.1717V42.7717C37.6457 43.3839 36.9905 43.8718 36.2533 44.2001C35.5161 44.5284 34.7153 44.6889 33.9086 44.6701C30.0487 44.6701 27.2453 41.4643 27.2453 37.3846C27.2453 33.3049 30.0487 30.0527 33.8762 30.0527ZM34.5921 41.265C36.5846 41.265 38.079 39.7072 38.079 37.373C38.079 35.0388 36.5846 33.4787 34.5921 33.4787C32.6946 33.4787 31.2303 35.0364 31.2303 37.373C31.2303 39.7096 32.6946 41.265 34.5921 41.265Z" fill="white"/>
<path d="M44.3661 30.3585H56.8957V32.1133C56.8967 32.7378 56.6664 33.3407 56.2493 33.8054L49.6833 41.1326H56.9259V44.6699H44.044V42.5837C44.0449 42.1785 44.1941 41.7876 44.4634 41.485L51.2565 33.8749H46.1593C45.6813 33.8749 45.2228 33.6849 44.8848 33.3467C44.5467 33.0085 44.3568 32.5498 44.3568 32.0715L44.3661 30.3585Z" fill="white"/>
<path d="M59.8171 33.7966C60.3818 32.4335 61.4461 31.338 62.792 30.7345C68.371 28.2519 73.4681 32.0651 73.4681 37.1044C73.4751 37.5976 73.4434 38.0905 73.3732 38.5787H63.0631C63.4708 40.3636 64.7868 41.4623 66.5384 41.4623C68.0443 41.4623 69.0869 40.8666 69.4229 39.8397H73.1507C72.5901 42.4961 70.2709 44.6704 66.3229 44.6704C61.1053 44.6704 57.4562 39.4943 59.8171 33.7966ZM63.0608 36.0057H69.5781C69.2653 34.2208 67.9563 33.1847 66.4457 33.1847C64.6918 33.1847 63.4708 34.3136 63.0631 36.0057H63.0608Z" fill="white"/>
<path d="M76.3281 33.7966C76.8928 32.4335 77.9571 31.338 79.303 30.7345C84.9005 28.2519 89.9976 32.0651 89.9976 37.1044C90.0046 37.5976 89.9729 38.0905 89.9027 38.5787H79.5926C80.0003 40.3636 81.3163 41.4623 83.0679 41.4623C84.5738 41.4623 85.6164 40.8666 85.9524 39.8397H89.6733C89.1103 42.4961 86.7911 44.6704 82.8431 44.6704C77.6255 44.6704 73.9765 39.4943 76.3281 33.7966ZM79.5717 36.0057H86.0891C85.7763 34.2208 84.4673 33.1847 82.9567 33.1847C81.2121 33.1847 79.9911 34.3136 79.5833 36.0057H79.5717Z" fill="white"/>
<path d="M99.1872 29.8343C99.9804 29.8142 100.769 29.9649 101.498 30.276C102.228 30.5871 102.883 31.0515 103.418 31.6377V22.1848H107.336V44.3056H103.545V42.7271C103.013 43.3515 102.348 43.8497 101.6 44.1857C100.851 44.5216 100.038 44.6869 99.2174 44.6695C95.3018 44.6695 92.459 41.4243 92.459 37.2751C92.459 33.1258 95.3018 29.8343 99.1872 29.8343ZM99.9124 41.2111C101.935 41.2111 103.45 39.6626 103.45 37.2704C103.45 34.8783 101.935 33.3298 99.9124 33.3298C97.9848 33.3298 96.502 34.8783 96.502 37.2704C96.502 39.6626 97.9848 41.2134 99.9124 41.2134V41.2111Z" fill="white"/>
</g>
</g>
<defs>
<clipPath id="clip0_1_88408">
<rect width="107" height="45" fill="white" transform="translate(0.554688 0.5)"/>
</clipPath>
<clipPath id="clip1_1_88408">
<rect width="106.15" height="44" fill="white" transform="translate(1.30276 1.15039)"/>
</clipPath>
</defs>
</svg>
