<svg width="182" height="57" viewBox="0 0 182 57" fill="none" xmlns="http://www.w3.org/2000/svg">
<g clip-path="url(#clip0_1_88274)">
<path d="M11.8232 43.1637V46.5659H8.96876C8.96876 48.6803 8.5651 50.2469 7.75779 51.2656C6.95048 52.2844 5.71069 52.7937 4.0384 52.7937C3.09654 52.7937 2.04896 52.64 0.89566 52.3324L1.6453 49.132C2.49106 49.3434 3.1542 49.4492 3.63475 49.4492C4.3075 49.4492 4.77844 49.2281 5.04754 48.786C5.33586 48.3631 5.48003 47.6231 5.48003 46.5659V35.0329C5.48003 34.3025 5.6338 33.7547 5.94135 33.3895C6.24889 33.0243 6.76788 32.8417 7.4983 32.8417C7.90195 32.8417 8.39211 32.8993 8.96876 33.0146V43.1637H11.8232ZM7.15231 30.7657C6.6141 30.7657 6.14317 30.5735 5.73952 30.1891C5.35508 29.7854 5.16287 29.3145 5.16287 28.7763C5.16287 28.2188 5.35508 27.7479 5.73952 27.3635C6.14317 26.979 6.6141 26.7868 7.15231 26.7868C7.70974 26.7868 8.18067 26.979 8.5651 27.3635C8.94953 27.7479 9.14175 28.2188 9.14175 28.7763C9.14175 29.3145 8.94953 29.7854 8.5651 30.1891C8.18067 30.5735 7.70974 30.7657 7.15231 30.7657ZM17.587 30.4197C17.0488 30.4197 16.5778 30.2275 16.1742 29.8431C15.7897 29.4394 15.5975 28.9685 15.5975 28.4303C15.5975 27.8729 15.7897 27.4019 16.1742 27.0175C16.5778 26.6331 17.0488 26.4408 17.587 26.4408C18.1444 26.4408 18.6153 26.6331 18.9998 27.0175C19.3842 27.4019 19.5764 27.8729 19.5764 28.4303C19.5764 28.9685 19.3842 29.4394 18.9998 29.8431C18.6153 30.2275 18.1444 30.4197 17.587 30.4197ZM19.3457 39.0406C19.3457 40.4823 19.6821 41.5298 20.3549 42.1834C21.0276 42.8369 22.1233 43.1637 23.6418 43.1637V46.5659C20.8739 46.5659 18.9613 45.6817 17.9041 43.9133C17.2698 44.7783 16.4337 45.4415 15.3957 45.9028C14.3577 46.3449 13.166 46.5659 11.8205 46.5659C11.2823 46.5659 10.8402 46.4025 10.4942 46.0758C10.129 45.7298 9.94636 45.3069 9.94636 44.8071C9.94636 44.3074 10.1194 43.9133 10.4653 43.625C10.8113 43.3175 11.263 43.1637 11.8205 43.1637C13.2044 43.1637 14.2232 42.8369 14.8767 42.1834C15.5302 41.5106 15.857 40.463 15.857 39.0406V35.0329C15.857 34.3025 16.0108 33.7547 16.3183 33.3895C16.6259 33.0243 17.1449 32.8417 17.8753 32.8417C18.2789 32.8417 18.7691 32.8993 19.3457 33.0146V39.0406ZM46.7123 33.0435C46.7123 32.4284 46.8853 31.919 47.2313 31.5154C47.5773 31.0925 48.1539 30.881 48.9612 30.881C49.2688 30.881 49.682 30.9291 50.201 31.0252V46.5659H44.694C42.1375 46.5659 40.3499 45.7298 39.3312 44.0575C38.7737 44.8648 38.0625 45.4895 37.1976 45.9316C36.3326 46.3545 35.3715 46.5659 34.3143 46.5659C32.1615 46.5659 30.6238 45.7009 29.7011 43.971C29.0476 44.8167 28.2018 45.4607 27.1639 45.9028C26.1451 46.3449 24.9726 46.5659 23.6463 46.5659C23.0889 46.5659 22.6372 46.4121 22.2912 46.1046C21.9452 45.7778 21.7722 45.3646 21.7722 44.8648C21.7722 44.365 21.9452 43.9614 22.2912 43.6538C22.6372 43.3271 23.0889 43.1637 23.6463 43.1637C25.0303 43.1637 26.049 42.8369 26.7025 42.1834C27.3561 41.5106 27.6828 40.463 27.6828 39.0406V33.995C27.6828 33.3799 27.8558 32.8705 28.2018 32.4668C28.5478 32.044 29.1245 31.8325 29.9318 31.8325C30.2393 31.8325 30.6526 31.8806 31.1716 31.9767V39.0406C31.1716 40.4054 31.4407 41.4337 31.9789 42.1257C32.5171 42.8177 33.2956 43.1637 34.3143 43.1637C35.237 43.1637 35.9482 42.8273 36.4479 42.1545C36.9477 41.4626 37.1976 40.4246 37.1976 39.0406V33.995C37.1976 33.3799 37.3706 32.8705 37.7165 32.4668C38.0625 32.044 38.6392 31.8325 39.4465 31.8325C39.754 31.8325 40.1673 31.8806 40.6863 31.9767V39.0406C40.6863 41.7893 41.83 43.1637 44.1174 43.1637H46.7123V33.0435ZM37.2552 28.7474C36.717 28.7474 36.2461 28.5552 35.8424 28.1708C35.458 27.7671 35.2658 27.2962 35.2658 26.758C35.2658 26.2006 35.458 25.7296 35.8424 25.3452C36.2461 24.9608 36.717 24.7686 37.2552 24.7686C37.8127 24.7686 38.2836 24.9608 38.668 25.3452C39.0524 25.7296 39.2447 26.2006 39.2447 26.758C39.2447 27.2962 39.0524 27.7671 38.668 28.1708C38.2836 28.5552 37.8127 28.7474 37.2552 28.7474ZM44.2904 28.7474C43.7521 28.7474 43.2812 28.5552 42.8776 28.1708C42.4931 27.7671 42.3009 27.2962 42.3009 26.758C42.3009 26.2006 42.4931 25.7296 42.8776 25.3452C43.2812 24.9608 43.7521 24.7686 44.2904 24.7686C44.8478 24.7686 45.3187 24.9608 45.7031 25.3452C46.0876 25.7296 46.2798 26.2006 46.2798 26.758C46.2798 27.2962 46.0876 27.7671 45.7031 28.1708C45.3187 28.5552 44.8478 28.7474 44.2904 28.7474ZM40.744 24.6821C40.2057 24.6821 39.7348 24.4898 39.3312 24.1054C38.9467 23.7018 38.7545 23.2308 38.7545 22.6926C38.7545 22.1352 38.9467 21.6643 39.3312 21.2798C39.7348 20.8954 40.2057 20.7032 40.744 20.7032C41.3014 20.7032 41.7723 20.8954 42.1567 21.2798C42.5412 21.6643 42.7334 22.1352 42.7334 22.6926C42.7334 23.2308 42.5412 23.7018 42.1567 24.1054C41.7723 24.4898 41.3014 24.6821 40.744 24.6821ZM71.7175 46.5659H68.7189C68.3921 48.8725 67.5079 50.6313 66.0663 51.8423C64.6439 53.0532 62.7698 53.6587 60.444 53.6587C59.4252 53.6587 58.3104 53.5434 57.0994 53.3127V49.9682C57.9644 50.1027 58.8197 50.17 59.6655 50.17C62.7025 50.17 64.5382 48.9686 65.1725 46.5659H61.4531C59.8962 46.5659 58.5506 46.2103 57.4166 45.4991C56.3017 44.7687 55.456 43.8268 54.8793 42.6735C54.3219 41.501 54.0432 40.2516 54.0432 38.9253C54.0432 37.5798 54.3315 36.3016 54.9081 35.0906C55.504 33.8796 56.369 32.8993 57.5031 32.1497C58.6371 31.4 59.973 31.0252 61.5108 31.0252C62.914 31.0252 64.1634 31.3808 65.259 32.092C66.3739 32.784 67.2484 33.7835 67.8828 35.0906C68.5171 36.3784 68.8342 37.897 68.8342 39.6461V43.1637H71.7175V46.5659ZM57.3589 38.8388C57.3589 39.5885 57.5223 40.29 57.8491 40.9436C58.1758 41.5971 58.6468 42.1353 59.2618 42.5582C59.8962 42.9619 60.6458 43.1637 61.5108 43.1637H65.4032V39.5596C65.4032 37.945 65.0283 36.7052 64.2787 35.8402C63.5291 34.956 62.5872 34.5139 61.4531 34.5139C60.6074 34.5139 59.8769 34.7254 59.2618 35.1483C58.6468 35.5519 58.1758 36.0901 57.8491 36.7629C57.5223 37.4164 57.3589 38.1084 57.3589 38.8388ZM79.2351 39.0406C79.2351 40.4823 79.5715 41.5298 80.2442 42.1834C80.917 42.8369 82.0126 43.1637 83.5311 43.1637V46.5659C80.7632 46.5659 78.8507 45.6817 77.7935 43.9133C77.1592 44.7783 76.323 45.4415 75.285 45.9028C74.2471 46.3449 73.0553 46.5659 71.7098 46.5659C71.1524 46.5659 70.7007 46.4121 70.3547 46.1046C70.0087 45.7778 69.8357 45.3646 69.8357 44.8648C69.8357 44.365 70.0087 43.9614 70.3547 43.6538C70.7007 43.3271 71.1524 43.1637 71.7098 43.1637C73.0938 43.1637 74.1125 42.8369 74.7661 42.1834C75.4196 41.5106 75.7464 40.463 75.7464 39.0406V27.4211C75.7464 26.6907 75.9001 26.1429 76.2077 25.7777C76.5152 25.4125 77.0342 25.2299 77.7646 25.2299C78.1683 25.2299 78.6584 25.2875 79.2351 25.4029V39.0406ZM106.602 33.0435C106.602 32.4284 106.775 31.919 107.121 31.5154C107.467 31.0925 108.043 30.881 108.851 30.881C109.158 30.881 109.571 30.9291 110.09 31.0252V46.5659H104.583C102.027 46.5659 100.239 45.7298 99.2205 44.0575C98.6631 44.8648 97.9519 45.4895 97.0869 45.9316C96.2219 46.3545 95.2608 46.5659 94.2037 46.5659C92.0508 46.5659 90.5131 45.7009 89.5905 43.971C88.9369 44.8167 88.0912 45.4607 87.0532 45.9028C86.0345 46.3449 84.8619 46.5659 83.5356 46.5659C82.9782 46.5659 82.5265 46.4121 82.1805 46.1046C81.8345 45.7778 81.6615 45.3646 81.6615 44.8648C81.6615 44.365 81.8345 43.9614 82.1805 43.6538C82.5265 43.3271 82.9782 43.1637 83.5356 43.1637C84.9196 43.1637 85.9383 42.8369 86.5919 42.1834C87.2454 41.5106 87.5722 40.463 87.5722 39.0406V33.995C87.5722 33.3799 87.7452 32.8705 88.0912 32.4668C88.4372 32.044 89.0138 31.8325 89.8211 31.8325C90.1287 31.8325 90.5419 31.8806 91.0609 31.9767V39.0406C91.0609 40.4054 91.33 41.4337 91.8682 42.1257C92.4064 42.8177 93.1849 43.1637 94.2037 43.1637C95.1263 43.1637 95.8375 42.8273 96.3373 42.1545C96.837 41.4626 97.0869 40.4246 97.0869 39.0406V33.995C97.0869 33.3799 97.2599 32.8705 97.6059 32.4668C97.9519 32.044 98.5285 31.8325 99.3358 31.8325C99.6434 31.8325 100.057 31.8806 100.576 31.9767V39.0406C100.576 41.7893 101.719 43.1637 104.007 43.1637H106.602V33.0435Z" fill="#404041"/>
<path d="M114.737 41.7186H128.434V37.7833C128.474 36.8999 128.281 36.0215 127.875 35.2361C127.469 34.4508 126.863 33.786 126.119 33.3082C124.349 32.2182 122.294 31.6812 120.217 31.7661C119.104 31.7736 117.994 31.8767 116.899 32.0741C116.759 31.2973 116.681 30.5102 116.668 29.7208C116.575 28.8004 116.845 27.8801 117.42 27.1552C118.082 26.5878 118.92 26.2673 119.792 26.2484C120.662 26.1979 121.31 26.1719 121.721 26.1719C124.017 26.1193 126.294 26.5956 128.377 27.5642C130.198 28.4291 131.715 29.8248 132.728 31.5676C133.781 33.4645 134.307 35.6089 134.251 37.7779V47.4224H114.737V41.7186Z" fill="#802BD6"/>
<path d="M138.626 50.9999C138.975 51.0316 139.327 50.9838 139.655 50.8599C139.982 50.7359 140.278 50.5391 140.518 50.2845C140.981 49.5452 141.188 48.6744 141.107 47.806V31.4168C141.019 30.3272 141.333 29.2431 141.989 28.3691C142.389 28.0037 142.861 27.7269 143.375 27.5568C143.89 27.3868 144.434 27.3272 144.973 27.3822C145.805 27.3948 146.634 27.4793 147.451 27.6346V47.806C147.627 50.2447 146.91 52.6642 145.434 54.6134C144.706 55.4016 143.812 56.0179 142.816 56.4177C141.821 56.8175 140.749 56.9908 139.678 56.9249C137.875 56.8985 136.088 56.5866 134.383 56.0006L135.601 50.5369C136.59 50.8019 137.604 50.9572 138.626 50.9999ZM141.779 22.8863C141.199 22.3046 140.838 21.54 140.759 20.7225C140.679 19.905 140.885 19.0851 141.342 18.4025C141.799 17.7199 142.478 17.2165 143.264 16.9783C144.05 16.7401 144.895 16.7818 145.654 17.096C146.413 17.4103 147.039 17.9777 147.427 18.7019C147.814 19.4261 147.939 20.2622 147.779 21.068C147.62 21.8737 147.186 22.5993 146.552 23.1213C145.918 23.6432 145.122 23.9291 144.301 23.9306C143.831 23.9378 143.365 23.8488 142.932 23.6692C142.498 23.4896 142.106 23.2232 141.779 22.8863Z" fill="#802BD6"/>
<path d="M166.147 31.5293C165.692 31.5421 165.24 31.4636 164.816 31.2986C164.392 31.1336 164.005 30.8854 163.679 30.5685C163.352 30.2517 163.093 29.8727 162.915 29.4538C162.738 29.035 162.646 28.5849 162.645 28.13C162.563 25.1721 163.365 22.2571 164.95 19.7579C164.62 19.3296 164.264 18.9226 163.883 18.5394C163.499 18.1553 163.092 17.7955 162.664 17.4621C160.154 19.0289 157.234 19.8112 154.276 19.7091C153.364 19.6774 152.499 19.2916 151.865 18.6335C151.232 17.9753 150.879 17.0965 150.883 16.1831C150.886 15.2696 151.244 14.3933 151.882 13.7396C152.52 13.0859 153.388 12.7061 154.301 12.6807C157.259 12.5989 160.174 13.4019 162.673 14.987C163.101 14.6563 163.508 14.2994 163.891 13.9182C164.275 13.5341 164.634 13.1272 164.969 12.6998C163.402 10.1891 162.619 7.2681 162.722 4.31033C162.753 3.39743 163.139 2.53271 163.797 1.89926C164.455 1.26581 165.334 0.913358 166.248 0.916525C167.161 0.919692 168.037 1.27821 168.691 1.9162C169.345 2.5542 169.725 3.42156 169.75 4.33466C169.831 7.29318 169.028 10.2087 167.444 12.7085C167.774 13.1365 168.131 13.5434 168.512 13.927C168.895 14.312 169.302 14.6719 169.731 15.0043C172.242 13.4381 175.163 12.6558 178.12 12.7573C179.033 12.7892 179.898 13.1752 180.531 13.8335C181.165 14.4917 181.517 15.3707 181.513 16.2842C181.51 17.1976 181.151 18.0739 180.513 18.7274C179.875 19.381 179.007 19.7605 178.094 19.7857C175.136 19.8665 172.222 19.0635 169.722 17.4794C169.295 17.8105 168.888 18.1674 168.504 18.5482C168.12 18.9315 167.761 19.3384 167.428 19.7666C168.995 22.2768 169.776 25.1973 169.673 28.1544C169.67 28.6092 169.575 29.0586 169.394 29.4761C169.214 29.8936 168.952 30.2708 168.623 30.5854C168.295 30.8999 167.906 31.1455 167.481 31.3076C167.056 31.4697 166.603 31.5451 166.149 31.5293M166.184 21.6777C165.136 23.6452 164.617 25.8512 164.678 28.0795C164.708 28.4506 164.876 28.7968 165.149 29.0498C165.422 29.3027 165.78 29.4438 166.153 29.4451C166.525 29.4464 166.884 29.3079 167.159 29.0569C167.434 28.8059 167.605 28.4608 167.637 28.0899C167.713 25.8622 167.21 23.6527 166.177 21.6777M164.37 16.2297C164.695 16.5082 165.011 16.7983 165.319 17.1C165.626 17.4017 165.916 17.7202 166.189 18.0556C166.466 17.7284 166.76 17.4116 167.059 17.107C167.359 16.8024 167.686 16.5117 168.015 16.2367C167.687 15.9582 167.371 15.6681 167.066 15.3664C166.761 15.0647 166.471 14.7462 166.196 14.4108C165.918 14.738 165.628 15.0543 165.326 15.3594C165.023 15.6646 164.705 15.9547 164.372 16.2297M154.731 14.7085C154.605 14.7085 154.48 14.7085 154.355 14.7085C153.984 14.7383 153.637 14.9065 153.384 15.1796C153.132 15.4527 152.99 15.8109 152.989 16.1831C152.988 16.5554 153.126 16.9145 153.377 17.1895C153.628 17.4644 153.973 17.6349 154.344 17.6674C156.572 17.7442 158.782 17.2411 160.757 16.2071C158.901 15.2192 156.832 14.701 154.731 14.698M171.639 16.2454C173.606 17.2941 175.812 17.813 178.04 17.751C178.411 17.7211 178.758 17.553 179.011 17.2799C179.264 17.0067 179.405 16.6485 179.406 16.2763C179.407 15.9041 179.269 15.5449 179.018 15.27C178.767 14.9951 178.422 14.8245 178.051 14.792C175.823 14.715 173.613 15.2182 171.639 16.2523M166.243 2.97181C166.051 2.95856 165.858 2.98531 165.677 3.05032C165.496 3.11533 165.33 3.21721 165.19 3.34954C165.05 3.48186 164.939 3.64174 164.864 3.8191C164.789 3.99645 164.752 4.1874 164.755 4.37992C164.677 6.60782 165.18 8.81766 166.215 10.7922C167.263 8.82472 167.782 6.61871 167.721 4.39038C167.725 4.19793 167.689 4.00677 167.615 3.82892C167.541 3.65108 167.432 3.49043 167.293 3.35713C167.154 3.22383 166.989 3.12073 166.808 3.05441C166.627 2.9881 166.435 2.95998 166.243 2.97181Z" fill="#802BD6"/>
</g>
<defs>
<clipPath id="clip0_1_88274">
<rect width="180.906" height="56.4257" fill="white" transform="translate(0.648926 0.5)"/>
</clipPath>
</defs>
</svg>
