<svg width="25" height="25" viewBox="0 0 25 25" fill="none" xmlns="http://www.w3.org/2000/svg">
<path d="M22.5059 15.6417C21.8886 15.498 21.3065 15.2316 20.7943 14.8583C20.2821 14.485 19.8502 14.0125 19.5244 13.4689C19.3757 13.2492 19.1459 13.0976 18.8855 13.0475C18.6251 12.9973 18.3554 13.0526 18.1357 13.2013C17.9161 13.3499 17.7645 13.5798 17.7143 13.8402C17.6642 14.1006 17.7195 14.3703 17.8682 14.5899C18.4877 15.5351 19.3079 16.332 20.2705 16.9239C20.1357 16.9493 19.9893 16.9738 19.8291 16.9991C19.5446 17.0597 19.2869 17.2093 19.0933 17.4264C18.8998 17.6435 18.7805 17.9166 18.7529 18.2061C18.0863 18.0925 17.4053 18.0912 16.7383 18.2022C16.019 18.361 15.3478 18.6887 14.7803 19.1583C14.1964 19.676 13.4557 19.9828 12.6768 20.0294H12.416C11.6362 19.9826 10.8947 19.6752 10.3105 19.1564C9.75106 18.693 9.09033 18.3678 8.38183 18.2072C7.70601 18.0992 7.01723 18.1005 6.34183 18.2111C6.31546 17.9229 6.19841 17.6506 6.00749 17.4332C5.81658 17.2157 5.56164 17.0645 5.27933 17.0011C5.1221 16.9767 4.97757 16.9522 4.84476 16.9268C5.52449 16.5336 6.13162 16.0266 6.63968 15.4278C6.87415 15.1559 7.08642 14.8656 7.27445 14.5597C7.41478 14.3349 7.46012 14.0636 7.40051 13.8053C7.3409 13.5471 7.18121 13.3231 6.95654 13.1826C6.73188 13.042 6.4606 12.9964 6.20232 13.0558C5.94405 13.1151 5.7199 13.2746 5.57913 13.4991C5.44591 13.7158 5.29605 13.9219 5.13089 14.1153C4.4918 14.9156 3.58536 15.4583 2.57816 15.6437C2.28583 15.69 2.02018 15.8406 1.83039 16.0678C1.6406 16.2949 1.53953 16.5831 1.54589 16.879C1.54556 17.063 1.58486 17.2448 1.66113 17.4122C1.97656 18.128 2.8164 18.5802 4.4453 18.8868L4.47656 19.0167C4.50488 19.1349 4.53417 19.255 4.56835 19.3644C4.64501 19.6422 4.81261 19.8863 5.04434 20.0577C5.27608 20.229 5.55857 20.3178 5.84667 20.3097C6.05024 20.3045 6.25248 20.2753 6.44921 20.2228C6.97232 20.1168 7.50973 20.1012 8.03808 20.1769C8.45242 20.2995 8.83546 20.51 9.16113 20.794C10.0805 21.553 11.2246 21.9873 12.416 22.0294H12.6768C13.8756 21.9854 15.0263 21.5467 15.9502 20.7814C16.2774 20.4966 16.6641 20.2884 17.082 20.1721C17.288 20.1358 17.4969 20.1181 17.706 20.1193C18.0274 20.1188 18.3478 20.1545 18.6611 20.2258C18.8641 20.2637 19.0699 20.2849 19.2763 20.2893C19.5572 20.2968 19.8325 20.21 20.0582 20.0427C20.2839 19.8754 20.447 19.6373 20.5215 19.3664C20.5595 19.2443 20.5888 19.1271 20.6162 19.0119L20.6474 18.8879C22.2714 18.5823 23.1142 18.133 23.415 17.4475C23.4911 17.2986 23.5344 17.1351 23.542 16.968C23.5667 16.6573 23.474 16.3487 23.2822 16.1031C23.0903 15.8575 22.8133 15.6929 22.5059 15.6417ZM4.35644 11.1759C4.56105 11.2146 4.77264 11.1888 4.96194 11.102C5.15124 11.0153 5.30889 10.8718 5.41308 10.6915C5.80917 10.8931 6.24356 11.0083 6.68749 11.0294C7.15851 11.0356 7.61309 10.8564 7.95312 10.5304C8.06069 10.4301 8.14482 10.3073 8.1995 10.1707C8.25419 10.0342 8.2781 9.88723 8.26952 9.74039L8.23339 9.13883C8.06959 7.95196 8.12255 6.74521 8.38968 5.57724C8.72715 4.8101 9.28342 4.15955 9.98885 3.70704C10.6943 3.25454 11.5175 3.02018 12.3555 3.0333L12.7432 3.02939C13.5804 3.01822 14.4024 3.25378 15.1066 3.70669C15.8108 4.15961 16.3661 4.80984 16.7032 5.57627C16.9703 6.74521 17.0233 7.9529 16.8595 9.14072L16.8497 9.30381L16.8223 9.74717C16.8168 9.89158 16.8418 10.0355 16.8956 10.1697C16.9495 10.3038 17.031 10.425 17.1348 10.5255C17.4714 10.85 17.9212 11.0304 18.3887 11.0284C18.8227 10.9905 19.2447 10.8664 19.63 10.6632C19.7081 10.8411 19.8363 10.9925 19.9989 11.0988C20.1616 11.2051 20.3516 11.2617 20.546 11.2618H20.5635C20.8288 11.2571 21.0812 11.1473 21.2655 10.9565C21.4497 10.7657 21.5506 10.5095 21.546 10.2442C21.52 9.91029 21.3925 9.59227 21.1806 9.33287C20.9687 9.07347 20.6825 8.88511 20.3604 8.79306C20.1258 8.69701 19.8745 8.6485 19.6211 8.65034C19.3676 8.65219 19.117 8.70435 18.8839 8.80381C19.0591 7.44669 18.9381 6.06772 18.5294 4.76181C18.0373 3.63875 17.225 2.68569 16.1941 2.02183C15.1632 1.35796 13.9595 1.01276 12.7335 1.02938L12.3409 1.03329C11.1179 1.01835 9.91771 1.36413 8.89018 2.02744C7.86264 2.69075 7.05336 3.64216 6.56347 4.76279C6.15164 6.08624 6.0317 7.48325 6.21191 8.85752C6.17773 8.84189 6.14062 8.82432 6.10058 8.80576C5.85622 8.70688 5.59403 8.65969 5.33053 8.66716C5.06703 8.67464 4.80794 8.73662 4.56958 8.84919C4.33122 8.96176 4.11877 9.12249 3.94561 9.32125C3.77244 9.52 3.64233 9.75247 3.56347 10.004C3.5135 10.2645 3.56893 10.5342 3.7176 10.7539C3.86626 10.9736 4.09602 11.1254 4.35644 11.1759Z" fill="white"/>
</svg>
