<svg width="49" height="49" viewBox="0 0 49 49" fill="none" xmlns="http://www.w3.org/2000/svg">
<g clip-path="url(#clip0_1_88591)">
<path d="M34.5547 42.5V38.5C34.5547 36.3783 33.7118 34.3434 32.2115 32.8431C30.7113 31.3429 28.6764 30.5 26.5547 30.5H10.5547C8.43296 30.5 6.39812 31.3429 4.89783 32.8431C3.39754 34.3434 2.55469 36.3783 2.55469 38.5V42.5" stroke="#611DA5" stroke-width="4" stroke-linecap="round" stroke-linejoin="round"/>
<path d="M18.5547 22.5C22.973 22.5 26.5547 18.9183 26.5547 14.5C26.5547 10.0817 22.973 6.5 18.5547 6.5C14.1364 6.5 10.5547 10.0817 10.5547 14.5C10.5547 18.9183 14.1364 22.5 18.5547 22.5Z" stroke="#611DA5" stroke-width="4" stroke-linecap="round" stroke-linejoin="round"/>
<path d="M46.5547 42.4998V38.4998C46.5534 36.7272 45.9634 35.0053 44.8774 33.6044C43.7914 32.2035 42.2709 31.2029 40.5547 30.7598" stroke="#611DA5" stroke-width="4" stroke-linecap="round" stroke-linejoin="round"/>
<path d="M32.5547 6.75977C34.2755 7.20037 35.8008 8.20117 36.89 9.60439C37.9792 11.0076 38.5704 12.7334 38.5704 14.5098C38.5704 16.2861 37.9792 18.0119 36.89 19.4151C35.8008 20.8184 34.2755 21.8192 32.5547 22.2598" stroke="#611DA5" stroke-width="4" stroke-linecap="round" stroke-linejoin="round"/>
</g>
<defs>
<clipPath id="clip0_1_88591">
<rect width="48" height="48" fill="white" transform="translate(0.554688 0.5)"/>
</clipPath>
</defs>
</svg>
