<svg width="45" height="45" viewBox="0 0 45 45" fill="none" xmlns="http://www.w3.org/2000/svg">
<path d="M42.5295 2.42568C42.6546 2.55085 42.7444 2.70695 42.7896 2.87809C43.8193 6.79898 43.7145 10.9316 42.4875 14.7953C41.2605 18.659 38.9617 22.0949 35.8585 24.7033L35.8414 24.7176L35.825 24.7326L33.3509 27.0077L32.9171 27.4066L33.0559 27.9793L34.3929 33.4956C34.3929 33.4957 34.3929 33.4957 34.3929 33.4957C34.6441 34.5403 34.557 35.6377 34.1442 36.6296C33.7333 37.6167 33.021 38.4486 32.1091 39.0065L24.3136 43.4033C24.1769 43.4804 24.0241 43.5242 23.8674 43.5313C23.7106 43.5383 23.5545 43.5084 23.4114 43.444C23.2684 43.3796 23.1425 43.2825 23.0439 43.1604C22.9453 43.0384 22.8768 42.8949 22.8439 42.7415L21.5566 36.7353L21.3278 35.6679L20.2845 35.9892C18.73 36.4678 17.1298 36.7827 15.5098 36.9286C15.4733 36.9315 15.445 36.9327 15.4218 36.9327C15.2905 36.9327 15.1606 36.9068 15.0393 36.8566C14.9181 36.8063 14.808 36.7327 14.7152 36.6399L14.7149 36.6396L8.51472 30.4394L8.51468 30.4394C8.40632 30.331 8.3243 30.1992 8.27493 30.0542C8.22564 29.9093 8.21022 29.7551 8.22984 29.6034C8.43976 28.0117 8.79759 26.4429 9.29868 24.9176L9.64583 23.8608L8.55823 23.6277L2.41273 22.3103L2.41232 22.3102C2.25896 22.2774 2.11546 22.209 1.99343 22.1105C1.8714 22.0119 1.77426 21.8861 1.70986 21.7431C1.64546 21.6001 1.61561 21.4439 1.62272 21.2873C1.62982 21.1306 1.67369 20.9778 1.75078 20.8412L1.75085 20.8411L6.15123 13.0413L6.16122 13.0235L6.17049 13.0054C6.67149 12.0263 7.50983 11.2616 8.5307 10.8525C9.55157 10.4433 10.686 10.4173 11.7245 10.7794L11.7712 10.7957L11.8192 10.8072L17.0288 12.0642L17.6299 12.2092L18.0282 11.7363L20.2566 9.09033C20.2569 9.09002 20.2571 9.08971 20.2574 9.0894C22.8735 5.99761 26.3096 3.70746 30.17 2.48259C34.0302 1.25781 38.1578 1.14796 42.0777 2.16568C42.2486 2.21096 42.4044 2.30066 42.5295 2.42568ZM4.82817 19.4552L4.16046 20.6393L5.48971 20.9242L9.69783 21.8259L10.4463 21.9863L10.7965 21.3056C11.6428 19.661 12.6675 18.1146 13.8523 16.6944C13.8528 16.6937 13.8533 16.6931 13.8538 16.6925L15.1509 15.1525L16.1915 13.9169L14.6215 13.5364L11.2647 12.7229C10.6699 12.4846 10.0076 12.4694 9.40086 12.6824C8.76858 12.9043 8.24404 13.3573 7.93241 13.95L4.82817 19.4552ZM24.2302 39.6636L24.515 40.993L25.6993 40.3251L31.1309 37.2617L30.6397 36.3907L31.2101 37.2121C31.7258 36.8539 32.1199 36.3467 32.3395 35.7584C32.5583 35.1721 32.5935 34.5332 32.4404 33.9265L31.6347 30.6022L31.235 28.9532L29.986 30.1016L28.5078 31.4608C27.1114 32.6834 25.5637 33.7216 23.9027 34.5499L23.2087 34.896L23.3712 35.6543L24.2302 39.6636ZM27.1532 29.9889L27.1646 29.9791L27.1757 29.9688L34.5275 23.2123C37.1863 20.9871 39.2016 18.0912 40.3643 14.8246C41.5297 11.5505 41.7959 8.02371 41.1351 4.61172L41.0061 3.94578L40.3397 3.81937C36.9395 3.1744 33.429 3.44334 30.1668 4.59875C26.9045 5.75416 24.0073 7.75464 21.771 10.3959L21.7693 10.3979L18.8995 13.8052L18.8792 13.8294L18.8604 13.8547C18.8372 13.886 18.8121 13.9158 18.7852 13.944L18.7635 13.9667L18.7432 13.9908L15.3865 17.9762L15.3849 17.9781C12.7723 21.0962 11.0389 24.8549 10.3635 28.8663L10.2779 29.3748L10.6425 29.7395L15.4511 34.5481L15.7974 34.8944L16.2833 34.8331C20.3051 34.326 24.087 32.6405 27.1532 29.9889ZM32.0222 11.1325C32.2848 11.1325 32.5449 11.1842 32.7876 11.2847C33.0302 11.3852 33.2507 11.5325 33.4364 11.7183C33.6221 11.904 33.7695 12.1245 33.87 12.3671C33.9705 12.6098 34.0222 12.8699 34.0222 13.1325V13.1326C34.0222 13.5281 33.9049 13.9148 33.6851 14.2437C33.4653 14.5726 33.153 14.829 32.7875 14.9803C32.4221 15.1317 32.02 15.1713 31.632 15.0941C31.244 15.017 30.8877 14.8265 30.608 14.5468C30.3283 14.2671 30.1378 13.9107 30.0606 13.5228C29.9834 13.1348 30.023 12.7327 30.1744 12.3672C30.3258 12.0018 30.5821 11.6894 30.911 11.4696C31.2399 11.2499 31.6266 11.1326 32.0222 11.1326V11.1325Z" fill="black" stroke="#611DA5" stroke-width="2"/>
</svg>
