<svg width="25" height="25" viewBox="0 0 25 25" fill="none" xmlns="http://www.w3.org/2000/svg">
<path d="M23.5459 3.97755C23.546 3.80092 23.4993 3.62741 23.4106 3.47469C23.3218 3.32198 23.1942 3.19552 23.0406 3.10818C22.8871 3.02085 22.7132 2.97576 22.5365 2.97751C22.3599 2.97927 22.1869 3.0278 22.0351 3.11817C21.4498 3.46655 20.8197 3.73335 20.1621 3.91117C19.2231 3.1054 18.0255 2.66447 16.7881 2.66898C15.4307 2.67054 14.127 3.19957 13.1524 4.14436C12.1777 5.08915 11.6083 6.37574 11.5645 7.73246C8.8885 7.30572 6.46315 5.90899 4.75097 3.8086C4.6478 3.68343 4.51605 3.58491 4.36683 3.52135C4.2176 3.45778 4.05528 3.43103 3.89355 3.44335C3.73191 3.45666 3.57594 3.50914 3.43914 3.59626C3.30234 3.68338 3.18881 3.80251 3.10839 3.94335C2.69591 4.66316 2.45902 5.47011 2.41694 6.29866C2.37486 7.12721 2.52878 7.954 2.8662 8.7119L2.86425 8.71385C2.71259 8.80725 2.58744 8.93801 2.50075 9.0936C2.41407 9.24919 2.36875 9.42442 2.36913 9.60253C2.36729 9.74946 2.3761 9.89633 2.3955 10.042C2.49763 11.3002 3.05528 12.478 3.96386 13.3545C3.90222 13.4719 3.8646 13.6004 3.8532 13.7326C3.8418 13.8647 3.85684 13.9978 3.89745 14.124C4.29356 15.3582 5.13595 16.4001 6.25976 17.0459C5.118 17.4874 3.88518 17.6413 2.66991 17.4941C2.44498 17.4659 2.21714 17.515 2.02376 17.6333C1.83037 17.7515 1.68293 17.932 1.60562 18.1451C1.52831 18.3582 1.52572 18.5913 1.59827 18.8061C1.67082 19.0208 1.8142 19.2046 2.00491 19.3271C4.095 20.6733 6.52858 21.389 9.01468 21.3887C11.8339 21.4204 14.5846 20.5195 16.8389 18.8261C19.0932 17.1328 20.7246 14.7419 21.4795 12.0253C21.8325 10.842 22.0128 9.61382 22.0147 8.37891C22.0147 8.31348 22.0147 8.2461 22.0137 8.17872C22.5358 7.61565 22.9403 6.95402 23.2034 6.23262C23.4665 5.51121 23.5829 4.74454 23.5459 3.97755ZM20.2392 7.18946C20.0741 7.3848 19.9905 7.63626 20.0058 7.89161C20.0156 8.05661 20.0146 8.22261 20.0146 8.37891C20.0126 9.42245 19.8596 10.4602 19.5605 11.46C18.944 13.7714 17.5697 15.809 15.6576 17.2466C13.7455 18.6841 11.4064 19.4384 9.01468 19.3887C8.15556 19.3889 7.29939 19.288 6.4639 19.0879C7.52931 18.7446 8.52549 18.2152 9.40628 17.5244C9.5685 17.3967 9.68723 17.2219 9.74616 17.024C9.8051 16.8261 9.80136 16.6148 9.73545 16.4192C9.66955 16.2235 9.5447 16.053 9.37806 15.9311C9.21141 15.8092 9.01112 15.7418 8.80468 15.7383C7.97351 15.7254 7.17981 15.3903 6.59081 14.8037C6.74023 14.7754 6.88867 14.7402 7.03613 14.6982C7.25214 14.6368 7.44117 14.5044 7.57279 14.3224C7.7044 14.1404 7.77095 13.9194 7.7617 13.695C7.75245 13.4706 7.66795 13.2559 7.52181 13.0853C7.37567 12.9148 7.17638 12.7984 6.95605 12.7549C6.47358 12.6596 6.01959 12.4544 5.62936 12.1551C5.23913 11.8558 4.92317 11.4706 4.70605 11.0293C4.88678 11.054 5.06866 11.0693 5.25097 11.0752C5.46755 11.0785 5.67956 11.0128 5.85634 10.8876C6.03312 10.7624 6.16551 10.5843 6.23437 10.3789C6.30035 10.1717 6.29695 9.94857 6.2247 9.74344C6.15244 9.53831 6.01527 9.36233 5.83398 9.24219C5.39413 8.94916 5.03382 8.55161 4.78533 8.08515C4.53685 7.61868 4.40793 7.09787 4.41015 6.56935C4.41015 6.50295 4.4121 6.43654 4.41601 6.37111C6.65727 8.46136 9.56433 9.69356 12.625 9.8506C12.7795 9.85669 12.9334 9.82759 13.075 9.7655C13.2166 9.70341 13.3422 9.60996 13.4424 9.4922C13.5416 9.3733 13.6118 9.23301 13.6476 9.08236C13.6833 8.93171 13.6836 8.77482 13.6484 8.62404C13.5912 8.3854 13.562 8.14091 13.5615 7.89552C13.5624 7.04005 13.9026 6.21989 14.5075 5.61499C15.1124 5.01008 15.9326 4.66985 16.7881 4.66895C17.2282 4.66777 17.6638 4.75785 18.0674 4.9335C18.4709 5.10914 18.8337 5.36655 19.1328 5.68946C19.2481 5.81354 19.3933 5.90605 19.5545 5.95819C19.7157 6.01034 19.8875 6.02037 20.0537 5.98735C20.4645 5.90741 20.8694 5.79974 21.2656 5.66509C20.9953 6.21806 20.6499 6.73104 20.2392 7.18946Z" fill="white"/>
</svg>
