<svg width="25" height="25" viewBox="0 0 25 25" fill="none" xmlns="http://www.w3.org/2000/svg">
<g clip-path="url(#clip0_119_40946)">
<path d="M23.0947 6.44734C22.9759 5.97275 22.734 5.53792 22.3933 5.18675C22.0527 4.83558 21.6254 4.58053 21.1547 4.44734C19.4347 4.02734 12.5547 4.02734 12.5547 4.02734C12.5547 4.02734 5.67469 4.02734 3.95469 4.48734C3.48394 4.62053 3.05667 4.87558 2.71604 5.22675C2.37541 5.57792 2.13348 6.01275 2.01469 6.48734C1.69991 8.2329 1.54593 10.0037 1.55469 11.7773C1.54347 13.5644 1.69746 15.3486 2.01469 17.1073C2.14565 17.5672 2.393 17.9855 2.73284 18.3218C3.07268 18.6582 3.49352 18.9012 3.95469 19.0273C5.67469 19.4873 12.5547 19.4873 12.5547 19.4873C12.5547 19.4873 19.4347 19.4873 21.1547 19.0273C21.6254 18.8942 22.0527 18.6391 22.3933 18.2879C22.734 17.9368 22.9759 17.5019 23.0947 17.0273C23.4071 15.2949 23.561 13.5377 23.5547 11.7773C23.5659 9.9903 23.4119 8.20604 23.0947 6.44734V6.44734Z" stroke="white" stroke-width="2" stroke-linecap="round" stroke-linejoin="round"/>
<path d="M10.3047 15.0473L16.0547 11.7773L10.3047 8.50732V15.0473Z" stroke="white" stroke-width="2" stroke-linecap="round" stroke-linejoin="round"/>
</g>
<defs>
<clipPath id="clip0_119_40946">
<rect width="24" height="24" fill="white" transform="translate(0.554688 0.0273438)"/>
</clipPath>
</defs>
</svg>
