<svg width="85" height="33" viewBox="0 0 85 33" fill="none" xmlns="http://www.w3.org/2000/svg">
<g clip-path="url(#clip0_81_470)">
<path d="M75.8604 19.9918C75.6026 19.9991 75.346 19.9546 75.1057 19.8611C74.8653 19.7675 74.6462 19.6268 74.4611 19.4471C74.2761 19.2675 74.1289 19.0527 74.0282 18.8152C73.9275 18.5778 73.8755 18.3226 73.875 18.0647C73.8286 16.3878 74.2835 14.7352 75.1815 13.3183C74.9947 13.0755 74.7926 12.8448 74.5766 12.6276C74.3593 12.4098 74.1286 12.2058 73.8859 12.0168C72.4629 12.905 70.8072 13.3486 69.1307 13.2907C68.6131 13.2727 68.1229 13.054 67.7638 12.6809C67.4047 12.3078 67.2048 11.8096 67.2066 11.2917C67.2084 10.7739 67.4117 10.277 67.7734 9.90644C68.1351 9.53583 68.6268 9.32052 69.1445 9.30612C70.8215 9.25972 72.4741 9.71499 73.8908 10.6136C74.1334 10.4261 74.3641 10.2238 74.5816 10.0077C74.7988 9.78993 75.0028 9.55926 75.1924 9.31696C74.3041 7.89356 73.8605 6.23759 73.9185 4.56076C73.9364 4.04322 74.1552 3.55298 74.5283 3.19387C74.9014 2.83475 75.3996 2.63494 75.9174 2.63673C76.4353 2.63853 76.9321 2.84178 77.3027 3.20347C77.6733 3.56517 77.8886 4.0569 77.903 4.57455C77.949 6.25181 77.4938 7.90467 76.5956 9.3219C76.783 9.56452 76.9853 9.79523 77.2014 10.0127C77.4183 10.231 77.649 10.435 77.8922 10.6234C79.3157 9.7355 80.9716 9.29199 82.6484 9.34955C83.1659 9.36765 83.6561 9.58645 84.0152 9.95965C84.3742 10.3328 84.5739 10.8311 84.572 11.349C84.5701 11.8669 84.3667 12.3636 84.0049 12.7342C83.6431 13.1047 83.1513 13.3199 82.6336 13.3341C80.9567 13.3799 79.3042 12.9247 77.8872 12.0266C77.6449 12.2143 77.4142 12.4167 77.1965 12.6325C76.979 12.8498 76.7754 13.0806 76.5867 13.3233C77.4748 14.7464 77.918 16.4021 77.8596 18.0785C77.8574 18.3364 77.8036 18.5911 77.7013 18.8278C77.599 19.0645 77.4504 19.2784 77.2641 19.4567C77.0779 19.635 76.8578 19.7742 76.6169 19.8662C76.376 19.9581 76.1191 20.0008 75.8614 19.9918M75.8812 14.4067C75.287 15.5221 74.9929 16.7728 75.0276 18.0361C75.0445 18.2464 75.1398 18.4427 75.2947 18.5861C75.4495 18.7295 75.6526 18.8095 75.8636 18.8103C76.0747 18.811 76.2783 18.7325 76.4341 18.5902C76.59 18.4479 76.6867 18.2522 76.7051 18.042C76.7483 16.779 76.4631 15.5264 75.8772 14.4067M74.8529 11.3181C75.0371 11.476 75.2164 11.6405 75.3907 11.8115C75.5651 11.9826 75.7295 12.1632 75.8841 12.3533C76.041 12.1678 76.2078 11.9882 76.3775 11.8155C76.5472 11.6428 76.7327 11.478 76.9192 11.3221C76.7337 11.1642 76.5545 10.9997 76.3814 10.8287C76.2084 10.6577 76.044 10.4771 75.8881 10.287C75.7308 10.4725 75.5664 10.6517 75.3947 10.8248C75.223 10.9978 75.0427 11.1622 74.8539 11.3181M69.3882 10.4557C69.3172 10.4557 69.2461 10.4557 69.1751 10.4557C68.9647 10.4726 68.7684 10.568 68.625 10.7228C68.4816 10.8776 68.4016 11.0807 68.4009 11.2917C68.4001 11.5028 68.4787 11.7064 68.621 11.8622C68.7633 12.0181 68.9589 12.1148 69.1692 12.1332C70.4322 12.1768 71.6848 11.8915 72.8044 11.3053C71.7527 10.7452 70.5797 10.4515 69.3882 10.4498M78.9737 11.327C80.0889 11.9216 81.3397 12.2157 82.603 12.1806C82.8134 12.1636 83.0097 12.0683 83.1531 11.9135C83.2965 11.7587 83.3765 11.5556 83.3772 11.3446C83.3779 11.1335 83.2994 10.9299 83.1571 10.774C83.0148 10.6182 82.8192 10.5215 82.6089 10.5031C81.3459 10.4594 80.0932 10.7447 78.9737 11.331M75.9147 3.80192C75.8058 3.79441 75.6965 3.80958 75.5938 3.84643C75.491 3.88329 75.3971 3.94104 75.3178 4.01606C75.2385 4.09108 75.1756 4.18172 75.1332 4.28227C75.0907 4.38282 75.0695 4.49107 75.071 4.60021C75.0269 5.86326 75.3122 7.11607 75.8989 8.23549C76.493 7.12008 76.7872 5.86944 76.7525 4.60614C76.7547 4.49704 76.7343 4.38866 76.6926 4.28784C76.6508 4.18702 76.5886 4.09594 76.5099 4.02037C76.4312 3.9448 76.3376 3.88635 76.2352 3.84875C76.1327 3.81115 76.0236 3.79522 75.9147 3.80192Z" fill="white"/>
<path d="M46.5778 23.9913H54.3427V21.7603C54.3654 21.2595 54.256 20.7616 54.0257 20.3164C53.7954 19.8711 53.4521 19.4942 53.0303 19.2234C52.0268 18.6054 50.8617 18.3009 49.6842 18.349C49.0534 18.3533 48.4242 18.4118 47.8034 18.5236C47.7238 18.0832 47.6799 17.6371 47.6722 17.1896C47.6198 16.6678 47.7727 16.1461 48.0985 15.7351C48.4739 15.4134 48.9492 15.2317 49.4434 15.221C49.9368 15.1924 50.3039 15.1775 50.5368 15.1775C51.8385 15.1477 53.1296 15.4179 54.3102 15.967C55.3426 16.4573 56.2026 17.2485 56.7771 18.2366C57.3742 19.312 57.6724 20.5277 57.6405 21.7574V27.225H46.5778V23.9913Z" fill="white"/>
<path d="M60.1211 29.2536C60.3189 29.2716 60.5182 29.2445 60.704 29.1742C60.8898 29.104 61.0573 28.9924 61.1937 28.848C61.4561 28.4289 61.5733 27.9352 61.5272 27.4429V18.1515C61.4773 17.5338 61.6553 16.9192 62.0275 16.4237C62.2541 16.2165 62.5219 16.0596 62.8134 15.9632C63.1048 15.8668 63.4134 15.833 63.7188 15.8642C64.1905 15.8713 64.6606 15.9192 65.124 16.0073V27.4429C65.2236 28.8255 64.8172 30.1971 63.9803 31.3022C63.5677 31.749 63.0608 32.0984 62.4964 32.3251C61.9319 32.5517 61.3242 32.65 60.7171 32.6126C59.6951 32.5977 58.682 32.4208 57.7153 32.0886L58.4061 28.9911C58.9664 29.1414 59.5415 29.2294 60.1211 29.2536ZM61.9081 13.3153C61.5794 12.9856 61.375 12.552 61.3299 12.0885C61.2848 11.625 61.4016 11.1603 61.6606 10.7733C61.9196 10.3863 62.3047 10.101 62.7503 9.96597C63.196 9.83092 63.6747 9.85443 64.1049 10.0326C64.5352 10.2107 64.8904 10.5325 65.1101 10.9431C65.3298 11.3537 65.4005 11.8277 65.3101 12.2845C65.2197 12.7413 64.9737 13.1527 64.6141 13.4486C64.2546 13.7445 63.8036 13.9066 63.338 13.9074C63.0718 13.9114 62.8077 13.861 62.5618 13.7592C62.3159 13.6574 62.0935 13.5063 61.9081 13.3153Z" fill="white"/>
<path d="M7.049 25.1259V27.0547H5.43077C5.43077 28.2534 5.20192 29.1415 4.74424 29.7191C4.28656 30.2966 3.58369 30.5854 2.63563 30.5854C2.10167 30.5854 1.50777 30.4982 0.853935 30.3239L1.27893 28.5095C1.7584 28.6293 2.13436 28.6893 2.40679 28.6893C2.78819 28.6893 3.05517 28.564 3.20773 28.3133C3.37119 28.0736 3.45292 27.654 3.45292 27.0547V20.5164C3.45292 20.1023 3.5401 19.7917 3.71445 19.5846C3.88881 19.3776 4.18303 19.2741 4.59713 19.2741C4.82597 19.2741 5.10385 19.3068 5.43077 19.3722V25.1259H7.049ZM11.3137 22.7884C11.3137 23.6057 11.5044 24.1996 11.8858 24.5701C12.2672 24.9406 12.8884 25.1259 13.7493 25.1259V27.0547C12.1801 27.0547 11.0958 26.5534 10.4964 25.5509C10.1368 26.0412 9.6628 26.4172 9.07435 26.6787C8.4859 26.9294 7.81027 27.0547 7.04747 27.0547C6.74235 27.0547 6.49171 26.9621 6.29556 26.7768C6.08851 26.5807 5.98499 26.3409 5.98499 26.0576C5.98499 25.7743 6.08307 25.5509 6.27922 25.3874C6.47537 25.2131 6.73145 25.1259 7.04747 25.1259C7.83207 25.1259 8.40962 24.9406 8.78013 24.5701C9.15063 24.1887 9.33588 23.5948 9.33588 22.7884V20.5164C9.33588 20.1023 9.42306 19.7917 9.59742 19.5846C9.77177 19.3776 10.066 19.2741 10.4801 19.2741C10.7089 19.2741 10.9868 19.3068 11.3137 19.3722V22.7884ZM8.84551 30.7652C8.54039 30.7652 8.27341 30.6508 8.04456 30.4219C7.82662 30.204 7.71765 29.9424 7.71765 29.6373C7.71765 29.3213 7.82662 29.0543 8.04456 28.8364C8.27341 28.6184 8.54039 28.5095 8.84551 28.5095C9.16153 28.5095 9.42851 28.6184 9.64646 28.8364C9.8644 29.0543 9.97337 29.3213 9.97337 29.6373C9.97337 29.9424 9.8644 30.204 9.64646 30.4219C9.42851 30.6508 9.16153 30.7652 8.84551 30.7652ZM11.7878 30.7652C11.4826 30.7652 11.2157 30.6508 10.9868 30.4219C10.7689 30.204 10.6599 29.9424 10.6599 29.6373C10.6599 29.3213 10.7689 29.0543 10.9868 28.8364C11.2157 28.6184 11.4826 28.5095 11.7878 28.5095C12.1038 28.5095 12.3708 28.6184 12.5887 28.8364C12.8066 29.0543 12.9156 29.3213 12.9156 29.6373C12.9156 29.9424 12.8066 30.204 12.5887 30.4219C12.3708 30.6508 12.1038 30.7652 11.7878 30.7652ZM26.8285 19.3885C26.8285 19.0398 26.9265 18.751 27.1227 18.5222C27.3188 18.2824 27.6458 18.1626 28.1034 18.1626C28.2778 18.1626 28.5121 18.1898 28.8063 18.2443V27.0547H25.6843C24.2349 27.0547 23.2215 26.5807 22.6439 25.6326C22.3279 26.0903 21.9247 26.4444 21.4343 26.6951C20.944 26.9348 20.3991 27.0547 19.7998 27.0547C18.5793 27.0547 17.7075 26.5643 17.1844 25.5836C16.8139 26.063 16.3345 26.4281 15.746 26.6787C15.1684 26.9294 14.5037 27.0547 13.7518 27.0547C13.4358 27.0547 13.1797 26.9675 12.9836 26.7932C12.7874 26.6079 12.6893 26.3736 12.6893 26.0903C12.6893 25.807 12.7874 25.5781 12.9836 25.4038C13.1797 25.2185 13.4358 25.1259 13.7518 25.1259C14.5364 25.1259 15.114 24.9406 15.4845 24.5701C15.855 24.1887 16.0402 23.5948 16.0402 22.7884V19.9279C16.0402 19.5792 16.1383 19.2904 16.3345 19.0616C16.5306 18.8218 16.8575 18.702 17.3152 18.702C17.4896 18.702 17.7238 18.7292 18.0181 18.7837V22.7884C18.0181 23.5621 18.1706 24.1451 18.4758 24.5374C18.7809 24.9297 19.2222 25.1259 19.7998 25.1259C20.3228 25.1259 20.726 24.9352 21.0094 24.5538C21.2927 24.1615 21.4343 23.573 21.4343 22.7884V19.9279C21.4343 19.5792 21.5324 19.2904 21.7286 19.0616C21.9247 18.8218 22.2516 18.702 22.7093 18.702C22.8837 18.702 23.118 18.7292 23.4122 18.7837V22.7884C23.4122 24.3467 24.0606 25.1259 25.3573 25.1259H26.8285V19.3885ZM21.467 16.953C21.1619 16.953 20.8949 16.844 20.6661 16.6261C20.4482 16.3972 20.3392 16.1302 20.3392 15.8251C20.3392 15.5091 20.4482 15.2421 20.6661 15.0242C20.8949 14.8062 21.1619 14.6972 21.467 14.6972C21.7831 14.6972 22.05 14.8062 22.268 15.0242C22.4859 15.2421 22.5949 15.5091 22.5949 15.8251C22.5949 16.1302 22.4859 16.3972 22.268 16.6261C22.05 16.844 21.7831 16.953 21.467 16.953ZM25.4554 16.953C25.1503 16.953 24.8833 16.844 24.6545 16.6261C24.4365 16.3972 24.3276 16.1302 24.3276 15.8251C24.3276 15.5091 24.4365 15.2421 24.6545 15.0242C24.8833 14.8062 25.1503 14.6972 25.4554 14.6972C25.7714 14.6972 26.0384 14.8062 26.2564 15.0242C26.4743 15.2421 26.5833 15.5091 26.5833 15.8251C26.5833 16.1302 26.4743 16.3972 26.2564 16.6261C26.0384 16.844 25.7714 16.953 25.4554 16.953ZM23.4449 14.6482C23.1398 14.6482 22.8728 14.5392 22.6439 14.3213C22.426 14.0924 22.317 13.8255 22.317 13.5203C22.317 13.2043 22.426 12.9373 22.6439 12.7194C22.8728 12.5015 23.1398 12.3925 23.4449 12.3925C23.7609 12.3925 24.0279 12.5015 24.2458 12.7194C24.4638 12.9373 24.5727 13.2043 24.5727 13.5203C24.5727 13.8255 24.4638 14.0924 24.2458 14.3213C24.0279 14.5392 23.7609 14.6482 23.4449 14.6482ZM35.2835 25.1259V27.0547H31.0336V16.2011C31.0336 15.787 31.1207 15.4764 31.2951 15.2693C31.4694 15.0623 31.7637 14.9588 32.1778 14.9588C32.4066 14.9588 32.6845 14.9915 33.0114 15.0569V25.1259H35.2835ZM42.5104 15.0569C42.7065 15.0351 42.8373 15.0242 42.9027 15.0242C43.611 15.0242 43.9652 15.4873 43.9652 16.4136C43.9652 16.577 43.9597 16.7023 43.9488 16.7895C42.8591 16.8985 41.7803 17.1437 40.7123 17.5251C39.6553 17.8956 38.7508 18.3478 37.9989 18.8818C39.8623 19.1106 41.2953 19.7263 42.2979 20.7289C43.3004 21.7314 43.8017 23.1971 43.8017 25.1259V27.0547H35.2855C34.9804 27.0547 34.7407 26.9621 34.5663 26.7768C34.3919 26.5807 34.3048 26.3518 34.3048 26.0903C34.3048 25.8288 34.3919 25.6054 34.5663 25.4201C34.7407 25.224 34.9804 25.1259 35.2855 25.1259H41.8238C41.8238 24.0035 41.6168 23.1262 41.2027 22.4942C40.7886 21.8513 40.1893 21.3936 39.4047 21.1212C38.631 20.8378 37.6284 20.6689 36.397 20.6144L36.0865 19.0452C36.0647 18.9581 36.0538 18.8273 36.0538 18.6529C36.0538 18.217 36.2336 17.852 36.5932 17.5578C38.1515 16.3373 40.1239 15.5036 42.5104 15.0569Z" fill="white"/>
</g>
<defs>
<clipPath id="clip0_81_470">
<rect width="83.8112" height="31.9891" fill="white" transform="translate(0.64909 0.621582)"/>
</clipPath>
</defs>
</svg>
