<svg width="68" height="35" viewBox="0 0 68 35" fill="none" xmlns="http://www.w3.org/2000/svg">
<g clip-path="url(#clip0_81_404)">
<path d="M4.96288 20.0504C4.78852 20.7478 4.70134 21.4017 4.70134 22.0119C4.70134 23.1452 5.03916 23.9952 5.71479 24.5619C6.40131 25.1394 7.45289 25.4282 8.86953 25.4282H10.4878C11.5339 25.4282 12.313 25.2865 12.8252 25.0032C13.3483 24.7199 13.6098 24.3221 13.6098 23.8099C13.6098 23.483 13.5281 23.2269 13.3646 23.0417C13.2012 22.8564 12.9887 22.7202 12.7271 22.633C12.4765 22.535 12.1006 22.426 11.5993 22.3061C11.1198 22.1972 10.6948 22.0882 10.3243 21.9792C9.9647 21.8593 9.60509 21.7068 9.24548 21.5215C8.60255 21.1728 8.11217 20.7315 7.77436 20.1975C7.44744 19.6527 7.28398 19.037 7.28398 18.3504C7.28398 17.6094 7.49103 16.9501 7.90513 16.3726C8.33012 15.7841 8.91857 15.3265 9.67047 14.9995C10.4224 14.6726 11.2724 14.5092 12.2204 14.5092C13.0159 14.5092 13.8441 14.629 14.705 14.8688C15.0101 14.956 15.239 15.0704 15.3915 15.212C15.555 15.3537 15.6367 15.5444 15.6367 15.7841C15.6367 16.0784 15.4896 16.487 15.1954 17.0101C14.1056 16.5851 13.0922 16.3726 12.155 16.3726C11.2833 16.3726 10.5804 16.5524 10.0464 16.912C9.52336 17.2716 9.26183 17.7511 9.26183 18.3504C9.26183 18.6883 9.33811 18.9661 9.49067 19.1841C9.64323 19.402 9.93201 19.6145 10.357 19.8216C10.782 20.0177 11.414 20.2302 12.2531 20.459C12.8852 20.6334 13.4355 20.835 13.904 21.0638C14.3835 21.2927 14.7813 21.6305 15.0973 22.0773C15.4242 22.5241 15.5877 23.1016 15.5877 23.8099C15.5877 24.9106 15.1409 25.7714 14.2473 26.3926C13.3646 27.0246 12.1115 27.3406 10.4878 27.3406H8.86953C7.71442 27.3406 6.67919 27.1663 5.76382 26.8176C4.84846 26.4798 4.11834 25.9458 3.57348 25.2157C3.03952 24.4856 2.77254 23.5702 2.77254 22.4696C2.77254 22.0664 2.81613 21.5924 2.9033 21.0475C2.96869 20.6661 3.094 20.3882 3.27926 20.2139C3.46451 20.0286 3.74239 19.936 4.11289 19.936C4.36353 19.936 4.64686 19.9741 4.96288 20.0504ZM7.65994 31.0185C7.35482 31.0185 7.08783 30.904 6.85899 30.6752C6.64105 30.4572 6.53208 30.1957 6.53208 29.8906C6.53208 29.5746 6.64105 29.3076 6.85899 29.0896C7.08783 28.8717 7.35482 28.7627 7.65994 28.7627C7.97596 28.7627 8.24294 28.8717 8.46088 29.0896C8.67883 29.3076 8.7878 29.5746 8.7878 29.8906C8.7878 30.1957 8.67883 30.4572 8.46088 30.6752C8.24294 30.904 7.97596 31.0185 7.65994 31.0185ZM10.6022 31.0185C10.2971 31.0185 10.0301 30.904 9.80124 30.6752C9.5833 30.4572 9.47432 30.1957 9.47432 29.8906C9.47432 29.5746 9.5833 29.3076 9.80124 29.0896C10.0301 28.8717 10.2971 28.7627 10.6022 28.7627C10.9182 28.7627 11.1852 28.8717 11.4031 29.0896C11.6211 29.3076 11.73 29.5746 11.73 29.8906C11.73 30.1957 11.6211 30.4572 11.4031 30.6752C11.1852 30.904 10.9182 31.0185 10.6022 31.0185ZM22.2642 21.3744V23.3032H18.0143V12.4496C18.0143 12.0355 18.1014 11.7249 18.2758 11.5179C18.4501 11.3108 18.7444 11.2073 19.1585 11.2073C19.3873 11.2073 19.6652 11.24 19.9921 11.3054V21.3744H22.2642ZM24.5546 16.7649C24.5546 16.3508 24.6418 16.0402 24.8162 15.8332C24.9905 15.6261 25.2847 15.5226 25.6988 15.5226C25.9277 15.5226 26.2056 15.5553 26.5325 15.6207V23.3032H22.2662C21.9611 23.3032 21.7105 23.2106 21.5143 23.0253C21.3073 22.8292 21.2037 22.5895 21.2037 22.3061C21.2037 22.0228 21.3018 21.7994 21.498 21.6359C21.6941 21.4616 21.9502 21.3744 22.2662 21.3744H24.5546V16.7649ZM24.7835 27.0301C24.4783 27.0301 24.2114 26.9156 23.9825 26.6868C23.7646 26.4689 23.6556 26.2073 23.6556 25.9022C23.6556 25.5862 23.7646 25.3192 23.9825 25.1013C24.2114 24.8833 24.4783 24.7743 24.7835 24.7743C25.0995 24.7743 25.3665 24.8833 25.5844 25.1013C25.8024 25.3192 25.9113 25.5862 25.9113 25.9022C25.9113 26.2073 25.8024 26.4689 25.5844 26.6868C25.3665 26.9156 25.0995 27.0301 24.7835 27.0301Z" fill="#10C48A"/>
<path d="M58.3383 17.4074C58.0805 17.4146 57.8239 17.3702 57.5835 17.2766C57.3432 17.1831 57.124 17.0423 56.939 16.8627C56.7539 16.6831 56.6067 16.4682 56.506 16.2307C56.4054 15.9933 56.3533 15.7381 56.3529 15.4802C56.3066 13.8034 56.7614 12.1508 57.6594 10.7339C57.4725 10.4911 57.2705 10.2603 57.0545 10.0431C56.8369 9.82561 56.6062 9.62161 56.3638 9.43228C54.9409 10.321 53.2851 10.7646 51.6085 10.7062C51.091 10.6882 50.6007 10.4695 50.2416 10.0964C49.8825 9.7233 49.6827 9.22505 49.6845 8.7072C49.6863 8.18935 49.8895 7.69258 50.2512 7.32197C50.6129 6.95136 51.1047 6.73602 51.6223 6.72162C53.2993 6.6757 54.9518 7.13093 56.3687 8.0291C56.6115 7.84193 56.8422 7.63955 57.0594 7.42321C57.2769 7.20566 57.4809 6.97503 57.6702 6.73252C56.7817 5.30924 56.3381 3.65315 56.3963 1.97629C56.4143 1.45874 56.633 0.96848 57.0061 0.609363C57.3792 0.250246 57.8774 0.0504627 58.3953 0.0522581C58.9131 0.0540535 59.41 0.257304 59.7806 0.619C60.1512 0.980695 60.3665 1.47242 60.3809 1.99008C60.427 3.66736 59.9718 5.32024 59.0734 6.7374C59.2608 6.98003 59.4631 7.21074 59.6793 7.42815C59.8961 7.64645 60.1268 7.8505 60.37 8.03898C61.7935 7.15087 63.4495 6.70768 65.1262 6.76607C65.6412 6.78775 66.1278 7.00805 66.4838 7.38075C66.8398 7.75345 67.0376 8.24955 67.0357 8.76496C67.0337 9.28037 66.8323 9.77497 66.4735 10.145C66.1147 10.5151 65.6266 10.7318 65.1115 10.7496C63.4346 10.7958 61.7821 10.3409 60.3651 9.44312C60.1227 9.63049 59.8921 9.83253 59.6743 10.048C59.4569 10.2654 59.2532 10.4961 59.0645 10.7388C59.9528 12.1622 60.396 13.8182 60.3375 15.495C60.3351 15.7527 60.2812 16.0074 60.1789 16.244C60.0765 16.4806 59.9279 16.6943 59.7417 16.8726C59.5554 17.0508 59.3354 17.19 59.0945 17.2818C58.8537 17.3736 58.5969 17.4163 58.3393 17.4074M58.359 11.8222C57.7652 12.9378 57.4711 14.1883 57.5054 15.4516C57.5224 15.662 57.6177 15.8583 57.7725 16.0017C57.9274 16.1451 58.1304 16.225 58.3415 16.2258C58.5525 16.2265 58.7561 16.148 58.912 16.0057C59.0678 15.8634 59.1645 15.6677 59.183 15.4575C59.2262 14.1945 58.9409 12.9419 58.355 11.8222M57.3308 8.73467C57.515 8.89123 57.6942 9.05569 57.8686 9.22805C58.0429 9.40041 58.2074 9.58063 58.362 9.76877C58.5189 9.58425 58.6856 9.40467 58.8553 9.231C59.0251 9.05733 59.2106 8.89353 59.3971 8.73762C59.2115 8.58072 59.032 8.41396 58.8593 8.24423C58.6866 8.07451 58.5208 7.88896 58.3659 7.70345C58.209 7.88797 58.0432 8.06757 57.8725 8.24026C57.7018 8.41294 57.5183 8.57872 57.3318 8.73364M51.8661 7.87022C51.795 7.87022 51.724 7.87022 51.6529 7.87022C51.4426 7.88714 51.2462 7.98249 51.1029 8.13733C50.9595 8.29217 50.8795 8.4952 50.8787 8.70624C50.878 8.91727 50.9565 9.12092 51.0988 9.27677C51.2411 9.43262 51.4368 9.52933 51.647 9.54774C52.9101 9.59175 54.1628 9.30646 55.2823 8.71985C54.2306 8.15975 53.0576 7.86599 51.8661 7.86432M61.4515 8.74153C62.5668 9.33608 63.8175 9.63028 65.0809 9.59514C65.2912 9.57821 65.4876 9.48287 65.6309 9.32803C65.7743 9.17319 65.8543 8.97009 65.8551 8.75906C65.8558 8.54802 65.7772 8.34443 65.635 8.18858C65.4927 8.03273 65.297 7.93603 65.0868 7.91762C63.8238 7.87437 62.5712 8.15963 61.4515 8.74551M58.3926 1.21646C58.2837 1.20894 58.1744 1.22411 58.0716 1.26097C57.9689 1.29782 57.8749 1.35555 57.7956 1.43057C57.7164 1.50559 57.6535 1.59622 57.611 1.69677C57.5685 1.79732 57.5474 1.90563 57.5489 2.01477C57.5046 3.27784 57.7899 4.53064 58.3767 5.64999C58.9709 4.53461 59.2651 3.28398 59.2303 2.02068C59.2326 1.91157 59.2122 1.8032 59.1704 1.70237C59.1287 1.60155 59.0665 1.51047 58.9878 1.4349C58.909 1.35933 58.8155 1.30091 58.713 1.26331C58.6106 1.22572 58.5015 1.20975 58.3926 1.21646Z" fill="white"/>
<path d="M29.1542 23.4362H36.9191V21.2061C36.9417 20.7053 36.8324 20.2073 36.6021 19.7621C36.3717 19.3169 36.0285 18.94 35.6067 18.6691C34.6033 18.0508 33.4382 17.746 32.2606 17.7938C31.6298 17.7981 31.0006 17.8566 30.3798 17.9685C30.3001 17.528 30.2562 17.0819 30.2485 16.6344C30.1962 16.1129 30.3491 15.5915 30.6748 15.1808C31.05 14.8588 31.5255 14.6771 32.0198 14.6667C32.5132 14.6371 32.8803 14.6223 33.1131 14.6223C34.4149 14.5925 35.7059 14.8626 36.8865 15.4117C37.9195 15.9037 38.7794 16.6965 39.3534 17.6862C39.9506 18.762 40.2488 19.9781 40.2169 21.208V26.6757H29.1542V23.4362Z" fill="white"/>
<path d="M42.6974 28.6974C42.8953 28.7154 43.0946 28.6883 43.2804 28.618C43.4662 28.5478 43.6336 28.4362 43.7701 28.2919C44.0326 27.8728 44.1498 27.379 44.1036 26.8867V17.5953C44.0537 16.9779 44.2317 16.3636 44.6039 15.8684C44.8304 15.6611 45.0981 15.504 45.3896 15.4074C45.6811 15.3108 45.9897 15.2769 46.2952 15.308C46.7668 15.3156 47.2369 15.3635 47.7004 15.4511V26.8867C47.8001 28.2693 47.3936 29.641 46.5567 30.746C46.1442 31.193 45.6373 31.5425 45.0729 31.7692C44.5084 31.9958 43.9006 32.094 43.2935 32.0564C42.2714 32.042 41.2582 31.8651 40.2917 31.5324L40.9824 28.4359C41.5428 28.5854 42.1179 28.6731 42.6974 28.6974ZM44.4845 12.7591C44.1562 12.4296 43.9523 11.9965 43.9073 11.5336C43.8624 11.0706 43.9793 10.6063 44.238 10.2198C44.4968 9.8333 44.8815 9.5484 45.3267 9.41355C45.7718 9.2787 46.2499 9.30227 46.6797 9.48022C47.1094 9.65817 47.4643 9.97952 47.6838 10.3896C47.9033 10.7997 47.974 11.2731 47.8838 11.7294C47.7935 12.1857 47.548 12.5967 47.1889 12.8924C46.8299 13.188 46.3795 13.3502 45.9143 13.3512C45.6482 13.3553 45.384 13.3049 45.1381 13.2031C44.8922 13.1012 44.6698 12.9502 44.4845 12.7591Z" fill="white"/>
</g>
<defs>
<clipPath id="clip0_81_404">
<rect width="66.0494" height="34.4747" fill="white" transform="translate(0.991302 0.0673828)"/>
</clipPath>
</defs>
</svg>
