<svg width="212" height="51" viewBox="0 0 212 51" fill="none" xmlns="http://www.w3.org/2000/svg">
<g clip-path="url(#clip0_150_41218)">
<path d="M45.5474 44.9438L25.3818 44.8015L25.4182 39.7412C26.0662 39.1759 26.8183 38.5258 27.6743 37.791C28.5303 37.0561 29.4135 36.2919 30.324 35.4985C31.2345 34.7112 32.1047 33.9551 32.9344 33.2303L35.0936 31.3437L36.42 30.1748L28.8492 30.1233C27.9317 30.2005 27.0157 29.9576 26.257 29.4358C25.9861 29.1578 25.7786 28.8243 25.649 28.4583C25.5193 28.0924 25.4705 27.7026 25.506 27.316C25.5045 26.6482 25.6193 25.9852 25.8452 25.3567C25.9787 24.9414 26.1427 24.5366 26.3357 24.1454L42.3858 24.2635C43.2326 24.2326 44.0602 24.5199 44.7055 25.069C45.0218 25.3656 45.2676 25.7293 45.4248 26.1333C45.582 26.5374 45.6467 26.9715 45.614 27.4039C45.6199 28.0329 45.4623 28.6528 45.1567 29.2027C44.7575 29.846 44.2759 30.4344 43.7243 30.953C43.5366 31.1438 43.1187 31.5072 42.513 32.0583L40.3932 33.951C39.5856 34.6597 38.769 35.3815 37.9433 36.1163C37.1176 36.8512 36.3645 37.5073 35.6842 38.0847C35.0058 38.6621 34.489 39.0841 34.1337 39.3505L45.5958 39.4323L45.5474 44.9438Z" fill="white"/>
<path d="M48.1153 21.326C47.468 20.62 47.112 19.6951 47.1187 18.7373C47.1255 17.7794 47.4945 16.8596 48.1517 16.1628C48.8426 15.4914 49.7699 15.1189 50.7332 15.1257C51.6965 15.1325 52.6185 15.5181 53.2998 16.1991C53.9431 16.9071 54.2965 17.8312 54.2898 18.7878C54.2831 19.7444 53.9167 20.6635 53.2635 21.3624C52.93 21.7134 52.5255 21.9893 52.0769 22.1716C51.6283 22.3538 51.146 22.4382 50.6621 22.4192C50.1842 22.4291 49.7097 22.3367 49.2705 22.1482C48.8312 21.9596 48.4374 21.6793 48.1153 21.326ZM53.7813 45.0014L47.2613 44.956L47.3825 27.1767C47.3593 26.774 47.4292 26.3715 47.5867 26.0002C47.7443 25.6289 47.9852 25.2988 48.291 25.0357C49.0226 24.5151 49.9114 24.2627 50.8075 24.321C51.3519 24.3272 51.8945 24.386 52.4277 24.4967C52.9401 24.5999 53.4411 24.7531 53.9236 24.954L53.7813 45.0014Z" fill="white"/>
<path d="M78.1178 34.1155C78.1628 36.2807 77.6817 38.4246 76.7156 40.3629C75.8535 42.0436 74.5034 43.4243 72.8424 44.3239C71.0209 45.2678 68.9877 45.7286 66.9372 45.6625C64.853 45.6993 62.794 45.202 60.9563 44.2179C59.2985 43.3232 57.9321 41.9716 57.0195 40.3235C56.0781 38.5962 55.6081 36.6514 55.6567 34.6848C55.6343 32.7308 56.1084 30.8031 57.0346 29.0824C57.8904 27.5075 59.1432 26.1837 60.6686 25.2425C61.9269 24.4919 63.3374 24.0329 64.7964 23.8993C66.2554 23.7657 67.7258 23.9608 69.0994 24.4703C70.0595 24.8288 70.9283 25.3956 71.6432 26.1298L71.7129 15.882C72.2024 15.6885 72.7095 15.5424 73.227 15.4459C73.7541 15.3458 74.2895 15.2961 74.826 15.2975C75.722 15.2475 76.6074 15.5109 77.3304 16.0425C77.6332 16.309 77.8699 16.6422 78.0218 17.0159C78.1737 17.3895 78.2366 17.7934 78.2056 18.1956L78.1178 34.1155ZM63.6818 31.1205C62.8343 32.1191 62.3648 33.3839 62.3554 34.6936C62.346 36.0034 62.7972 37.2748 63.6303 38.2855C64.5269 39.1617 65.7283 39.6564 66.9819 39.6654C68.2356 39.6744 69.444 39.1972 70.3532 38.3339C71.1954 37.3322 71.6614 36.0679 71.6708 34.7592C71.6802 33.4505 71.2324 32.1796 70.4046 31.1659C69.5076 30.2901 68.306 29.796 67.0524 29.7875C65.7987 29.779 64.5905 30.2568 63.6818 31.1205Z" fill="white"/>
<path d="M14.4297 28.3332C14.0085 28.3449 13.5892 28.2721 13.1966 28.1192C12.8039 27.9662 12.4459 27.7362 12.1436 27.4427C11.8413 27.1491 11.6008 26.798 11.4364 26.41C11.272 26.022 11.187 25.605 11.1864 25.1837C11.1089 22.4435 11.8524 19.7427 13.3213 17.4282C13.0144 17.032 12.6837 16.6548 12.3311 16.2986C11.9787 15.9434 11.6045 15.6107 11.2106 15.3023C8.88498 16.7533 6.17943 17.4776 3.43993 17.3827C2.60087 17.3435 1.80936 16.9818 1.23056 16.3731C0.651766 15.7644 0.330393 14.9557 0.333519 14.1157C0.336644 13.2757 0.664025 12.4694 1.24734 11.865C1.83065 11.2606 2.62484 10.9048 3.46416 10.8719C6.20443 10.7974 8.90466 11.5417 11.2197 13.0098C11.6149 12.7028 11.9911 12.3722 12.3462 12.0196C12.7009 11.6659 13.0346 11.2918 13.3456 10.8991C11.8932 8.57399 11.1677 5.86834 11.2621 3.12849C11.3009 2.28943 11.6623 1.49776 12.2707 0.918708C12.8792 0.339654 13.6877 0.0179125 14.5277 0.0206472C15.3676 0.0233819 16.1741 0.350398 16.7787 0.933402C17.3834 1.51641 17.7396 2.31036 17.773 3.14965C17.8474 5.8895 17.1042 8.58946 15.638 10.9052C15.9431 11.302 16.2729 11.6792 16.6252 12.0347C16.9793 12.3892 17.3545 12.7219 17.7487 13.031C20.074 11.5792 22.7798 10.8548 25.5194 10.9506C26.3584 10.9898 27.15 11.3515 27.7287 11.9602C28.3075 12.5689 28.6289 13.3777 28.6258 14.2176C28.6227 15.0576 28.2953 15.8639 27.712 16.4684C27.1287 17.0728 26.3345 17.4285 25.4951 17.4615C22.7569 17.5405 20.057 16.8025 17.7396 15.3417C16.9459 15.9553 16.2335 16.6677 15.6198 17.4615C17.0717 19.7867 17.7961 22.4925 17.7003 25.2322C17.6965 25.6533 17.6084 26.0695 17.4413 26.4561C17.2741 26.8427 17.0312 27.1919 16.727 27.4831C16.4228 27.7744 16.0633 28.0018 15.6698 28.1519C15.2763 28.3021 14.8567 28.3719 14.4357 28.3574M14.466 19.23C13.4963 21.0537 13.0163 23.0978 13.073 25.1625C13.0896 25.5155 13.2415 25.8487 13.4973 26.0927C13.753 26.3367 14.0929 26.4728 14.4463 26.4728C14.7998 26.4728 15.1397 26.3367 15.3954 26.0927C15.6512 25.8487 15.8031 25.5155 15.8197 25.1625C15.8908 23.0981 15.4243 21.0508 14.466 19.2209M12.7944 14.1758C13.0972 14.4332 13.4001 14.7057 13.6726 14.9904C13.9452 15.275 14.2238 15.5688 14.4781 15.8716C14.7355 15.5688 15.0081 15.266 15.2928 14.9934C15.5774 14.7209 15.8712 14.4423 16.177 14.1879C15.8742 13.9305 15.5714 13.6609 15.2988 13.3763C15.0263 13.0916 14.7446 12.7949 14.4903 12.492C14.2329 12.7949 13.9633 13.0977 13.6787 13.3702C13.394 13.6428 13.0972 13.9214 12.7944 14.1758ZM3.85784 12.7585C3.74276 12.7585 3.62466 12.7585 3.50959 12.7585C3.15651 12.7751 2.82337 12.927 2.57936 13.1827C2.33536 13.4385 2.19923 13.7784 2.19923 14.1319C2.19923 14.4853 2.33536 14.8252 2.57936 15.0809C2.82337 15.3367 3.15651 15.4886 3.50959 15.5052C5.57292 15.5759 7.61924 15.1095 9.44811 14.1516C7.72676 13.2367 5.80718 12.7584 3.85784 12.7585ZM19.5203 14.1909C21.3426 15.1616 23.3857 15.6426 25.4497 15.587C25.7986 15.5638 26.1256 15.4089 26.3645 15.1536C26.6034 14.8983 26.7363 14.5617 26.7363 14.2121C26.7363 13.8625 26.6034 13.5259 26.3645 13.2706C26.1256 13.0153 25.7986 12.8604 25.4497 12.8372C23.3865 12.7674 21.3404 13.2338 19.5112 14.1909M14.5145 1.88987C14.3364 1.87683 14.1577 1.90098 13.9895 1.96075C13.8213 2.02053 13.6674 2.11466 13.5375 2.23713C13.4076 2.35959 13.3046 2.50769 13.2351 2.67209C13.1656 2.83649 13.131 3.01359 13.1336 3.19207C13.064 5.25627 13.5304 7.30325 14.4872 9.1336C15.459 7.31164 15.9401 5.26828 15.8833 3.20418C15.8874 3.02578 15.8544 2.84846 15.7864 2.6835C15.7183 2.51854 15.6167 2.3695 15.488 2.24591C15.3593 2.12231 15.2063 2.02685 15.0387 1.96556C14.8711 1.90427 14.6926 1.87849 14.5145 1.88987Z" fill="white"/>
<path d="M83.0851 23.5278H96.8772V25.8458H85.5834V31.5893H96.0273V33.7785H85.5834V40.1916H97.0704V42.4452H83.0851V23.5278ZM100.122 28.6531H102.324V30.6105C102.977 29.8035 103.668 29.224 104.398 28.8721C105.128 28.5201 105.939 28.3441 106.832 28.3441C108.789 28.3441 110.111 29.0266 110.798 30.3916C111.176 31.1385 111.365 32.2074 111.365 33.5982V42.4452H109.008V33.7527C109.008 32.9114 108.884 32.2331 108.635 31.718C108.222 30.8595 107.476 30.4303 106.394 30.4303C105.844 30.4303 105.394 30.4861 105.042 30.5977C104.406 30.7865 103.848 31.1643 103.368 31.7309C102.981 32.1859 102.728 32.6581 102.608 33.1475C102.496 33.6282 102.44 34.3193 102.44 35.2208V42.4452H100.122V28.6531ZM115.267 24.8027H117.61V28.6531H119.812V30.5462H117.61V39.5477C117.61 40.0285 117.773 40.3504 118.1 40.5135C118.28 40.608 118.58 40.6552 119.001 40.6552C119.113 40.6552 119.233 40.6552 119.362 40.6552C119.491 40.6466 119.641 40.6337 119.812 40.6166V42.4452C119.546 42.5225 119.267 42.5783 118.975 42.6126C118.692 42.6469 118.383 42.6641 118.048 42.6641C116.966 42.6641 116.232 42.3894 115.846 41.8399C115.46 41.2819 115.267 40.5607 115.267 39.6765V30.5462H113.399V28.6531H115.267V24.8027ZM127.887 28.3441C128.866 28.3441 129.814 28.5759 130.733 29.0395C131.651 29.4945 132.351 30.0869 132.832 30.8166C133.295 31.512 133.605 32.3233 133.759 33.2505C133.896 33.8858 133.965 34.8988 133.965 36.2896H123.856C123.899 37.689 124.23 38.8137 124.848 39.6636C125.466 40.5049 126.423 40.9256 127.719 40.9256C128.93 40.9256 129.896 40.5264 130.617 39.728C131.029 39.2644 131.321 38.7278 131.493 38.1183H133.772C133.712 38.6248 133.51 39.1914 133.167 39.8181C132.832 40.4363 132.454 40.9428 132.033 41.3377C131.329 42.0245 130.458 42.4881 129.419 42.7285C128.861 42.8659 128.23 42.9345 127.526 42.9345C125.809 42.9345 124.354 42.3121 123.161 41.0673C121.967 39.8138 121.371 38.0625 121.371 35.8132C121.371 33.5982 121.972 31.7996 123.174 30.4174C124.375 29.0352 125.947 28.3441 127.887 28.3441ZM131.583 34.4481C131.488 33.4437 131.269 32.6409 130.926 32.04C130.291 30.9239 129.23 30.3659 127.745 30.3659C126.681 30.3659 125.788 30.7522 125.067 31.5249C124.345 32.2889 123.963 33.2634 123.92 34.4481H131.583ZM136.888 28.6531H139.09V31.0355C139.271 30.5719 139.713 30.0096 140.417 29.3485C141.121 28.6789 141.932 28.3441 142.851 28.3441C142.894 28.3441 142.967 28.3484 143.07 28.3569C143.173 28.3655 143.349 28.3827 143.598 28.4085V30.8552C143.46 30.8295 143.331 30.8123 143.211 30.8037C143.1 30.7951 142.975 30.7908 142.838 30.7908C141.67 30.7908 140.773 31.1686 140.146 31.9241C139.52 32.671 139.206 33.5338 139.206 34.5125V42.4452H136.888V28.6531ZM151.427 40.887C152.509 40.887 153.406 40.4363 154.119 39.5348C154.84 38.6248 155.2 37.2683 155.2 35.4655C155.2 34.3666 155.042 33.4222 154.724 32.6324C154.123 31.1128 153.024 30.353 151.427 30.353C149.822 30.353 148.723 31.1557 148.131 32.7611C147.813 33.6196 147.654 34.71 147.654 36.0321C147.654 37.0966 147.813 38.0024 148.131 38.7493C148.732 40.1744 149.83 40.887 151.427 40.887ZM145.426 28.7175H147.68V30.5462C148.143 29.9194 148.65 29.4344 149.199 29.091C149.981 28.5759 150.899 28.3183 151.955 28.3183C153.518 28.3183 154.844 28.9193 155.935 30.1212C157.025 31.3145 157.57 33.023 157.57 35.2465C157.57 38.2513 156.784 40.3976 155.213 41.6854C154.217 42.501 153.058 42.9088 151.736 42.9088C150.698 42.9088 149.826 42.6813 149.122 42.2263C148.71 41.9687 148.251 41.5266 147.744 40.8999V47.944H145.426V28.7175ZM160.352 28.6531H162.554V31.0355C162.734 30.5719 163.176 30.0096 163.88 29.3485C164.584 28.6789 165.395 28.3441 166.314 28.3441C166.357 28.3441 166.43 28.3484 166.533 28.3569C166.636 28.3655 166.812 28.3827 167.061 28.4085V30.8552C166.924 30.8295 166.795 30.8123 166.675 30.8037C166.563 30.7951 166.438 30.7908 166.301 30.7908C165.134 30.7908 164.236 31.1686 163.61 31.9241C162.983 32.671 162.67 33.5338 162.67 34.5125V42.4452H160.352V28.6531ZM169.07 28.7175H171.426V42.4452H169.07V28.7175ZM169.07 23.5278H171.426V26.1549H169.07V23.5278ZM176.32 38.1183C176.389 38.8909 176.582 39.4833 176.899 39.8954C177.483 40.6423 178.496 41.0158 179.939 41.0158C180.797 41.0158 181.553 40.8312 182.205 40.462C182.858 40.0843 183.184 39.5048 183.184 38.7235C183.184 38.1311 182.922 37.6804 182.398 37.3714C182.063 37.1825 181.402 36.9636 180.415 36.7146L178.574 36.251C177.397 35.9591 176.53 35.6329 175.972 35.2723C174.976 34.6456 174.478 33.7785 174.478 32.671C174.478 31.366 174.946 30.3101 175.882 29.5031C176.826 28.6961 178.093 28.2926 179.681 28.2926C181.759 28.2926 183.257 28.9021 184.175 30.1212C184.751 30.8939 185.03 31.7266 185.012 32.6195H182.823C182.78 32.0958 182.596 31.6193 182.269 31.19C181.737 30.5805 180.814 30.2757 179.501 30.2757C178.625 30.2757 177.96 30.4431 177.505 30.778C177.058 31.1128 176.835 31.5549 176.835 32.1044C176.835 32.7053 177.131 33.1861 177.724 33.5467C178.067 33.7613 178.574 33.9502 179.243 34.1133L180.776 34.4867C182.441 34.8903 183.557 35.2809 184.124 35.6586C185.025 36.251 185.476 37.1825 185.476 38.4531C185.476 39.6808 185.008 40.741 184.072 41.6339C183.145 42.5267 181.729 42.9732 179.823 42.9732C177.771 42.9732 176.316 42.5096 175.457 41.5824C174.607 40.6466 174.152 39.4919 174.092 38.1183H176.32ZM193.872 28.3441C194.851 28.3441 195.8 28.5759 196.718 29.0395C197.637 29.4945 198.337 30.0869 198.817 30.8166C199.281 31.512 199.59 32.3233 199.745 33.2505C199.882 33.8858 199.951 34.8988 199.951 36.2896H189.842C189.885 37.689 190.215 38.8137 190.833 39.6636C191.451 40.5049 192.409 40.9256 193.705 40.9256C194.915 40.9256 195.881 40.5264 196.602 39.728C197.014 39.2644 197.306 38.7278 197.478 38.1183H199.757C199.697 38.6248 199.496 39.1914 199.152 39.8181C198.817 40.4363 198.44 40.9428 198.019 41.3377C197.315 42.0245 196.444 42.4881 195.405 42.7285C194.847 42.8659 194.216 42.9345 193.512 42.9345C191.795 42.9345 190.34 42.3121 189.146 41.0673C187.953 39.8138 187.356 38.0625 187.356 35.8132C187.356 33.5982 187.957 31.7996 189.159 30.4174C190.361 29.0352 191.932 28.3441 193.872 28.3441ZM197.568 34.4481C197.474 33.4437 197.255 32.6409 196.911 32.04C196.276 30.9239 195.216 30.3659 193.731 30.3659C192.666 30.3659 191.773 30.7522 191.052 31.5249C190.331 32.2889 189.949 33.2634 189.906 34.4481H197.568Z" fill="white"/>
</g>
<defs>
<clipPath id="clip0_150_41218">
<rect width="210.734" height="50.8727" fill="white" transform="translate(0.320312)"/>
</clipPath>
</defs>
</svg>
