<svg width="120" height="30" viewBox="0 0 120 30" fill="none" xmlns="http://www.w3.org/2000/svg">
<g clip-path="url(#clip0_81_449)">
<path d="M67.7259 15.0723C67.5121 14.8611 67.2319 14.7305 66.9327 14.7028C66.6336 14.6751 66.3341 14.752 66.0853 14.9203C65.8364 15.0887 65.6536 15.3381 65.5679 15.6262C65.4822 15.9143 65.499 16.2231 65.6153 16.5002C65.7316 16.7773 65.9403 17.0055 66.2059 17.146C66.4715 17.2864 66.7775 17.3305 67.0719 17.2706C67.3663 17.2107 67.6308 17.0505 67.8204 16.8174C68.0101 16.5844 68.1131 16.2927 68.112 15.9922C68.1139 15.8206 68.0805 15.6504 68.0141 15.4922C67.9477 15.334 67.8496 15.1911 67.7259 15.0723ZM70.7942 15.0723C70.5804 14.8601 70.2997 14.7286 69.9999 14.7002C69.7002 14.6719 69.3998 14.7484 69.1501 14.9167C68.9003 15.085 68.7167 15.3348 68.6303 15.6234C68.544 15.912 68.5604 16.2217 68.6766 16.4996C68.7929 16.7775 69.0019 17.0065 69.268 17.1475C69.5341 17.2886 69.8408 17.333 70.1359 17.2731C70.431 17.2133 70.6963 17.0529 70.8865 16.8193C71.0767 16.5858 71.1801 16.2934 71.179 15.9922C71.1809 15.8207 71.1477 15.6507 71.0815 15.4925C71.0153 15.3343 70.9176 15.1913 70.7942 15.0723ZM71.112 6.21631H69.5358H71.112Z" fill="white"/>
<path d="M76.7386 2.91149C76.5247 2.69952 76.2439 2.56822 75.9442 2.53994C75.6444 2.51166 75.344 2.58813 75.0943 2.75635C74.8445 2.92457 74.6606 3.17416 74.574 3.46268C74.4873 3.7512 74.5032 4.06085 74.619 4.33896C74.7347 4.61707 74.9432 4.84649 75.2089 4.9882C75.4746 5.12991 75.7812 5.17517 76.0765 5.11628C76.3718 5.0574 76.6376 4.898 76.8287 4.66519C77.0199 4.43238 77.1245 4.14054 77.1248 3.83927C77.1274 3.66641 77.0945 3.49485 77.0281 3.33525C76.9616 3.17565 76.8631 3.03141 76.7386 2.91149Z" fill="white"/>
<path d="M88.182 5.73791C88.8129 6.12763 89.3288 6.67825 89.6768 7.33327C90.0455 8.01952 90.234 8.78823 90.2245 9.56731C90.2449 10.3303 90.0584 11.0846 89.6847 11.7501C89.3456 12.338 88.8487 12.8192 88.2503 13.1391C87.6479 13.4589 86.9751 13.6229 86.2932 13.6162C85.7331 13.6153 85.1775 13.5166 84.6514 13.3244C84.1015 13.1231 83.5922 12.8249 83.1474 12.444C82.8374 12.8265 82.4376 13.1262 81.9837 13.3165C81.4928 13.5209 80.9654 13.6229 80.4337 13.6162C80.2721 13.6208 80.1112 13.5932 79.9603 13.535C79.8095 13.4768 79.6717 13.3891 79.555 13.2771C79.4405 13.1711 79.3497 13.0421 79.2886 12.8985C79.2275 12.7549 79.1974 12.6 79.2004 12.444C79.1955 12.2936 79.2234 12.1441 79.2821 12.0056C79.3409 11.8672 79.4291 11.7432 79.5406 11.6423C79.788 11.4291 80.1075 11.3186 80.4337 11.3335C80.6979 11.3498 80.9609 11.2881 81.1903 11.1561C81.3641 11.0384 81.4961 10.8686 81.5673 10.6712C81.6754 10.3576 81.7657 10.0382 81.8379 9.71449C81.9403 9.27119 82.0121 8.98339 82.0533 8.8511C82.3711 7.67889 82.872 6.76863 83.5559 6.12032C83.8874 5.80174 84.2785 5.55183 84.7067 5.38494C85.135 5.21806 85.592 5.13749 86.0515 5.14786C86.8032 5.13924 87.5418 5.34382 88.182 5.73791ZM87.3414 10.9945C87.7118 10.6607 87.8966 10.185 87.8957 9.56731C87.9146 9.02581 87.7336 8.49631 87.3874 8.0797C87.2233 7.88569 87.0173 7.73144 86.785 7.62856C86.5528 7.52567 86.3002 7.47683 86.0463 7.48571C85.8549 7.47875 85.6642 7.51305 85.4872 7.58628C85.3102 7.65952 85.151 7.76998 85.0205 7.91018C84.7578 8.19228 84.524 8.64215 84.3191 9.2598C84.2169 9.56448 84.1417 9.87758 84.0944 10.1955C84.0714 10.2789 84.0535 10.3635 84.0406 10.4491C84.0214 10.562 83.9933 10.6731 83.9565 10.7816C84.2468 11.0139 84.5753 11.194 84.9272 11.3138C85.2545 11.4283 85.5984 11.4882 85.9452 11.4912C86.4575 11.5079 86.9569 11.3284 87.3414 10.9892V10.9945Z" fill="white"/>
<path d="M80.7082 11.3362V13.6188H77.0212C77.0212 14.7192 76.7743 15.5515 76.2804 16.1157C75.7866 16.6799 75.0821 16.9629 74.167 16.9646C73.5062 16.9549 72.851 16.841 72.2257 16.6269L72.6736 14.6215C73.0362 14.7185 73.4084 14.7749 73.7835 14.7897C74.1013 14.7897 74.3321 14.7021 74.4757 14.5269C74.6202 14.3521 74.6924 14.0499 74.6924 13.6162V6.21631H77.0212V11.3414L80.7082 11.3362Z" fill="white"/>
<path d="M71.112 6.21717V13.6197H62.1737C62.0121 13.6241 61.8513 13.5964 61.7004 13.5382C61.5496 13.48 61.4118 13.3925 61.295 13.2807C61.1808 13.1747 61.0902 13.0459 61.0291 12.9025C60.968 12.7592 60.9377 12.6046 60.9404 12.4488C60.9354 12.2983 60.9632 12.1485 61.022 12.0098C61.0807 11.8712 61.169 11.747 61.2806 11.6459C61.5277 11.4322 61.8474 11.3216 62.1737 11.337H68.7845V6.21191L71.112 6.21717Z" fill="white"/>
<path d="M63.819 11.337V13.6196H54.4617V11.337H59.9337V9.75999C59.9337 8.97764 59.6272 8.38102 59.0143 7.97014C58.5224 7.65414 57.9631 7.45832 57.3816 7.39848C57.1542 7.36905 56.9252 7.35412 56.6959 7.3538L55.3286 7.35775V5.12371H56.9875C57.0953 5.12371 57.1846 5.12371 57.2568 5.12371C58.1739 5.10219 59.0836 5.29241 59.9153 5.67959C60.6455 6.02528 61.2533 6.58487 61.6583 7.28416C62.0791 8.04243 62.2895 8.89952 62.2678 9.76656V11.3435L63.819 11.337Z" fill="white"/>
<path opacity="0.41" d="M56.691 7.35498V7.35761L55.3237 7.35498H56.691Z" fill="white"/>
<path d="M49.6652 13.5762C51.4889 13.5762 52.9673 12.0971 52.9673 10.2725C52.9673 8.44788 51.4889 6.96875 49.6652 6.96875C47.8415 6.96875 46.3631 8.44788 46.3631 10.2725C46.3631 12.0971 47.8415 13.5762 49.6652 13.5762Z" fill="#1E9AD6"/>
<path d="M41.5389 13.5762C43.3626 13.5762 44.841 12.0971 44.841 10.2725C44.841 8.44788 43.3626 6.96875 41.5389 6.96875C39.7152 6.96875 38.2368 8.44788 38.2368 10.2725C38.2368 12.0971 39.7152 13.5762 41.5389 13.5762Z" fill="#E91C48"/>
<path d="M33.5959 13.5762C35.4196 13.5762 36.898 12.0971 36.898 10.2725C36.898 8.44788 35.4196 6.96875 33.5959 6.96875C31.7722 6.96875 30.2938 8.44788 30.2938 10.2725C30.2938 12.0971 31.7722 13.5762 33.5959 13.5762Z" fill="#FFC908"/>
<path d="M43.6929 21.7719V26.9378H41.439V22.3541C41.439 21.2081 40.8387 20.4801 39.8628 20.4801C38.8448 20.4801 38.1185 21.2686 38.1185 22.4448V26.9378H35.8566V22.3541C35.8566 21.2081 35.2564 20.4801 34.2936 20.4801C33.2756 20.4801 32.548 21.2686 32.548 22.4448V26.9378H30.2927V18.643H32.4573V19.6075C32.9473 18.9347 33.8575 18.4248 35.0029 18.4248C36.1482 18.4248 37.111 18.9505 37.6574 19.8257C38.2748 18.8979 39.4018 18.4248 40.5655 18.4248C42.4556 18.4248 43.6929 19.8073 43.6929 21.7719Z" fill="white"/>
<path d="M48.5993 18.6509C49.0612 18.6393 49.5198 18.7317 49.9413 18.9212C50.3628 19.1106 50.7363 19.3923 51.0345 19.7455V18.8638H53.1518V26.9378H51.0345V25.8615C50.7363 26.2086 50.3649 26.4852 49.9469 26.6713C49.529 26.8574 49.075 26.9485 48.6177 26.9378C46.4294 26.9378 44.8401 25.1204 44.8401 22.8075C44.8401 20.4946 46.4294 18.6509 48.5993 18.6509ZM49.0051 25.0073C50.1347 25.0073 50.9819 24.1242 50.9819 22.8009C50.9819 21.4776 50.1347 20.5932 49.0051 20.5932C47.9294 20.5932 47.0993 21.4763 47.0993 22.8009C47.0993 24.1256 47.9294 25.0073 49.0051 25.0073Z" fill="white"/>
<path d="M54.5463 18.8247H61.6496V19.8195C61.6502 20.1736 61.5196 20.5154 61.2832 20.7788L57.5607 24.9328H61.6667V26.9382H54.3637V25.7555C54.3642 25.5257 54.4487 25.3041 54.6014 25.1326L58.4526 20.8183H55.5629C55.2919 20.8183 55.032 20.7105 54.8403 20.5188C54.6487 20.3271 54.541 20.067 54.541 19.7959L54.5463 18.8247Z" fill="white"/>
<path d="M63.3061 20.7736C63.6263 20.0008 64.2296 19.3797 64.9926 19.0376C68.1555 17.6302 71.0452 19.7919 71.0452 22.6489C71.0492 22.9284 71.0311 23.2079 70.9913 23.4846H65.1463C65.3775 24.4965 66.1236 25.1194 67.1166 25.1194C67.9703 25.1194 68.5614 24.7817 68.7518 24.1995H70.8653C70.5474 25.7055 69.2326 26.9382 66.9944 26.9382C64.0364 26.9382 61.9677 24.0037 63.3061 20.7736ZM65.145 22.026H68.8398C68.6625 21.0141 67.9204 20.4266 67.064 20.4266C66.0697 20.4266 65.3775 21.0666 65.1463 22.026H65.145Z" fill="white"/>
<path d="M72.6665 20.7736C72.9867 20.0008 73.59 19.3797 74.353 19.0376C77.5264 17.6302 80.4161 19.7919 80.4161 22.6489C80.4201 22.9284 80.4021 23.2079 80.3623 23.4846H74.5172C74.7484 24.4965 75.4945 25.1194 76.4875 25.1194C77.3412 25.1194 77.9323 24.7817 78.1228 24.1995H80.2322C79.913 25.7055 78.5982 26.9382 76.3601 26.9382C73.4021 26.9382 71.3333 24.0037 72.6665 20.7736ZM74.5054 22.026H78.2003C78.0229 21.0141 77.2808 20.4266 76.4244 20.4266C75.4354 20.4266 74.7431 21.0666 74.512 22.026H74.5054Z" fill="white"/>
<path d="M85.6257 18.5271C86.0754 18.5157 86.5222 18.6011 86.936 18.7775C87.3498 18.9539 87.7209 19.2172 88.0241 19.5495V14.1904H90.2453V26.7312H88.0964V25.8363C87.7945 26.1903 87.4178 26.4728 86.9935 26.6632C86.5691 26.8537 86.1078 26.9474 85.6428 26.9376C83.423 26.9376 81.8113 25.0978 81.8113 22.7455C81.8113 20.3932 83.423 18.5271 85.6257 18.5271ZM86.0368 24.9769C87.1835 24.9769 88.0425 24.099 88.0425 22.7428C88.0425 21.3866 87.1835 20.5088 86.0368 20.5088C84.944 20.5088 84.1034 21.3866 84.1034 22.7428C84.1034 24.099 84.944 24.9782 86.0368 24.9782V24.9769Z" fill="white"/>
</g>
<defs>
<clipPath id="clip0_81_449">
<rect width="60.179" height="24.9446" fill="white" transform="translate(30.1331 2.26562)"/>
</clipPath>
</defs>
</svg>
