<svg width="115" height="33" viewBox="0 0 115 33" fill="none" xmlns="http://www.w3.org/2000/svg">
<g clip-path="url(#clip0_81_437)">
<path d="M8.07445 17.1268C7.76933 17.1268 7.50235 17.0178 7.2735 16.7998C7.05556 16.571 6.94659 16.304 6.94659 15.9989C6.94659 15.6829 7.05556 15.4159 7.2735 15.1979C7.50235 14.98 7.76933 14.871 8.07445 14.871C8.39047 14.871 8.65745 14.98 8.8754 15.1979C9.09334 15.4159 9.20231 15.6829 9.20231 15.9989C9.20231 16.304 9.09334 16.571 8.8754 16.7998C8.65745 17.0178 8.39047 17.1268 8.07445 17.1268ZM11.0167 17.1268C10.7116 17.1268 10.4446 17.0178 10.2158 16.7998C9.99781 16.571 9.88884 16.304 9.88884 15.9989C9.88884 15.6829 9.99781 15.4159 10.2158 15.1979C10.4446 14.98 10.7116 14.871 11.0167 14.871C11.3327 14.871 11.5997 14.98 11.8176 15.1979C12.0356 15.4159 12.1446 15.6829 12.1446 15.9989C12.1446 16.304 12.0356 16.571 11.8176 16.7998C11.5997 17.0178 11.3327 17.1268 11.0167 17.1268ZM16.5906 21.5238C16.5906 22.3411 16.7813 22.935 17.1627 23.3055C17.5441 23.676 18.1653 23.8612 19.0262 23.8612V25.79C17.457 25.79 16.3727 25.2888 15.7733 24.2862C15.4137 24.7766 14.9397 25.1526 14.3512 25.4141C13.7628 25.6647 13.0872 25.79 12.3244 25.79H7.97637C6.89755 25.79 5.94949 25.5939 5.1322 25.2016C4.31491 24.8093 3.68287 24.259 3.23609 23.5507C2.8002 22.8423 2.58225 22.0305 2.58225 21.1151C2.58225 20.7555 2.62584 20.3469 2.71302 19.8892C2.86558 19.1918 3.31781 18.8431 4.06972 18.8431C4.33126 18.8431 4.57644 18.8703 4.80528 18.9248C4.60913 19.5895 4.51106 20.1998 4.51106 20.7555C4.51106 21.7254 4.80528 22.4882 5.39373 23.0439C5.99308 23.5888 6.85396 23.8612 7.97637 23.8612H12.3244C13.109 23.8612 13.6865 23.6705 14.057 23.2891C14.4275 22.8968 14.6128 22.3084 14.6128 21.5238V19.2517C14.6128 18.903 14.7109 18.6142 14.907 18.3854C15.1032 18.1456 15.4301 18.0258 15.8878 18.0258C16.0621 18.0258 16.2964 18.053 16.5906 18.1075V21.5238ZM26.2527 13.7922C26.4488 13.7704 26.5796 13.7595 26.645 13.7595C27.3533 13.7595 27.7074 14.2226 27.7074 15.1489C27.7074 15.3124 27.702 15.4377 27.6911 15.5249C26.6014 15.6338 25.5226 15.879 24.4546 16.2604C23.3976 16.6309 22.4931 17.0832 21.7412 17.6171C23.6046 17.846 25.0376 18.4617 26.0402 19.4642C27.0427 20.4667 27.544 21.9324 27.544 23.8612V25.79H19.0278C18.7227 25.79 18.483 25.6974 18.3086 25.5122C18.1342 25.316 18.0471 25.0872 18.0471 24.8256C18.0471 24.5641 18.1342 24.3407 18.3086 24.1555C18.483 23.9593 18.7227 23.8612 19.0278 23.8612H25.5661C25.5661 22.7388 25.3591 21.8616 24.945 21.2296C24.5309 20.5866 23.9316 20.1289 23.147 19.8565C22.3733 19.5732 21.3707 19.4043 20.1393 19.3498L19.8288 17.7806C19.807 17.6934 19.7961 17.5626 19.7961 17.3883C19.7961 16.9524 19.9759 16.5873 20.3355 16.2931C21.8938 15.0726 23.8662 14.239 26.2527 13.7922ZM29.222 27.2448C29.7015 27.3647 30.0774 27.4246 30.3498 27.4246C30.7312 27.4246 30.9982 27.2993 31.1508 27.0487C31.3143 26.8089 31.396 26.3894 31.396 25.79V19.2517C31.396 18.8376 31.4832 18.527 31.6575 18.32C31.8319 18.113 32.1261 18.0094 32.5402 18.0094C32.769 18.0094 33.0469 18.0421 33.3738 18.1075V25.79C33.3738 26.9887 33.145 27.8769 32.6873 28.4544C32.2296 29.032 31.5267 29.3207 30.5787 29.3207C30.0447 29.3207 29.4508 29.2336 28.797 29.0592L29.222 27.2448ZM39.6017 23.8612V25.79H35.3518V14.9364C35.3518 14.5223 35.439 14.2117 35.6133 14.0047C35.7877 13.7977 36.0819 13.6941 36.496 13.6941C36.7248 13.6941 37.0027 13.7268 37.3296 13.7922V23.8612H39.6017ZM45.5536 16.9796C46.3273 16.9796 47.0357 17.1758 47.6786 17.5681C48.3215 17.9495 48.8228 18.478 49.1824 19.1536C49.5529 19.8293 49.7382 20.5812 49.7382 21.4094C49.7382 22.3029 49.5475 23.0875 49.1661 23.7632C48.7956 24.4279 48.2997 24.9401 47.6786 25.2997C47.0575 25.6484 46.3818 25.8227 45.6517 25.8227C45.0851 25.8227 44.5238 25.7083 43.9681 25.4795C43.4123 25.2506 42.9002 24.9074 42.4316 24.4497C42.1265 24.8856 41.7287 25.2179 41.2383 25.4468C40.7589 25.6756 40.214 25.79 39.6038 25.79C39.2986 25.79 39.048 25.6974 38.8518 25.5122C38.6448 25.316 38.5413 25.0763 38.5413 24.7929C38.5413 24.5096 38.6394 24.2862 38.8355 24.1228C39.0317 23.9484 39.2877 23.8612 39.6038 23.8612C39.9416 23.8612 40.2358 23.7904 40.4864 23.6487C40.7371 23.4962 40.9169 23.2891 41.0258 23.0276C41.113 22.8097 41.1839 22.5972 41.2383 22.3901C41.2928 22.1831 41.3419 21.9706 41.3855 21.7526C41.4508 21.4039 41.5271 21.0606 41.6143 20.7228C41.9085 19.5241 42.3934 18.6033 43.0691 17.9604C43.7447 17.3066 44.5729 16.9796 45.5536 16.9796ZM45.6027 23.8939C46.2129 23.8939 46.7251 23.6705 47.1392 23.2237C47.5533 22.777 47.7603 22.1722 47.7603 21.4094C47.7603 20.6901 47.5533 20.1017 47.1392 19.644C46.7251 19.1863 46.1966 18.9575 45.5536 18.9575C45.0524 18.9575 44.6383 19.1264 44.3114 19.4642C43.9953 19.802 43.7392 20.3251 43.5431 21.0334C43.4123 21.502 43.2925 22.0305 43.1835 22.6189C43.5431 23.0439 43.93 23.3654 44.344 23.5834C44.769 23.7904 45.1886 23.8939 45.6027 23.8939ZM60.7172 25.79C59.6384 25.79 58.6903 25.5939 57.873 25.2016C57.0557 24.8093 56.4237 24.259 55.9769 23.5507C55.541 22.8423 55.3231 22.0305 55.3231 21.1151C55.3231 20.7555 55.3667 20.3469 55.4538 19.8892C55.6064 19.1918 56.0586 18.8431 56.8105 18.8431C57.0721 18.8431 57.3173 18.8703 57.5461 18.9248C57.35 19.5895 57.2519 20.1998 57.2519 20.7555C57.2519 21.7254 57.5461 22.4882 58.1346 23.0439C58.7339 23.5888 59.5948 23.8612 60.7172 23.8612H67.3536V19.2517C67.3536 18.903 67.4517 18.6142 67.6478 18.3854C67.844 18.1456 68.1709 18.0258 68.6286 18.0258C68.8029 18.0258 69.0372 18.053 69.3314 18.1075V25.79H60.7172ZM62.2864 29.5169C61.9813 29.5169 61.7143 29.4025 61.4855 29.1736C61.2675 28.9557 61.1585 28.6941 61.1585 28.389C61.1585 28.073 61.2675 27.806 61.4855 27.5881C61.7143 27.3701 61.9813 27.2612 62.2864 27.2612C62.6024 27.2612 62.8694 27.3701 63.0873 27.5881C63.3053 27.806 63.4143 28.073 63.4143 28.389C63.4143 28.6941 63.3053 28.9557 63.0873 29.1736C62.8694 29.4025 62.6024 29.5169 62.2864 29.5169ZM71.5552 14.9364C71.5552 14.5223 71.6424 14.2117 71.8168 14.0047C71.9911 13.7977 72.2854 13.6941 72.6994 13.6941C72.9283 13.6941 73.2062 13.7268 73.5331 13.7922V25.79H71.5552V14.9364ZM71.0976 11.8797C71.0976 12.0977 70.9232 12.2067 70.5745 12.2067C70.4001 12.2067 70.2203 12.1849 70.0351 12.1413V11.6182C70.0351 11.1387 70.1549 10.7573 70.3947 10.474C70.6344 10.1798 70.9559 10.0327 71.3591 10.0327C71.6097 10.0327 71.8277 10.0817 72.0129 10.1798C72.2091 10.267 72.3725 10.3596 72.5033 10.4577C72.645 10.5557 72.7321 10.6211 72.7648 10.6538C72.9828 10.8064 73.1626 10.9153 73.3042 10.9807C73.4459 11.0461 73.6094 11.0788 73.7946 11.0788C73.9363 11.0788 74.0344 11.0407 74.0888 10.9644C74.1542 10.8772 74.1869 10.7301 74.1869 10.523V9.98363C74.3722 9.94004 74.5411 9.91824 74.6936 9.91824C74.8898 9.91824 75.026 9.96183 75.1023 10.049C75.1895 10.1362 75.2331 10.2779 75.2331 10.474V10.523C75.2331 11.0243 75.1023 11.4221 74.8408 11.7163C74.5901 11.9996 74.2414 12.1413 73.7946 12.1413C73.4786 12.1413 73.2116 12.0922 72.9937 11.9942C72.7866 11.8852 72.5142 11.7217 72.1764 11.5038L71.8985 11.324C71.8113 11.2586 71.7241 11.2041 71.637 11.1605C71.5607 11.106 71.4899 11.0788 71.4245 11.0788C71.2065 11.0788 71.0976 11.2586 71.0976 11.6182V11.8797Z" fill="white"/>
<path d="M105.342 17.4073C105.085 17.4144 104.828 17.37 104.588 17.2764C104.347 17.1828 104.128 17.042 103.943 16.8624C103.758 16.6828 103.611 16.468 103.51 16.2306C103.41 15.9932 103.358 15.738 103.357 15.4802C103.311 13.803 103.766 12.1502 104.663 10.7329C104.476 10.4903 104.274 10.2595 104.059 10.0421C103.842 9.82402 103.611 9.61999 103.368 9.43126C101.945 10.3192 100.289 10.7625 98.6126 10.7042C98.0977 10.6827 97.6111 10.4625 97.255 10.0899C96.8989 9.7173 96.701 9.22116 96.7027 8.70576C96.7045 8.19035 96.9059 7.69571 97.2646 7.32558C97.6232 6.95545 98.1113 6.73865 98.6264 6.72065C100.303 6.67425 101.956 7.12946 103.373 8.02808C103.615 7.84062 103.846 7.63838 104.064 7.42231C104.281 7.20473 104.485 6.97398 104.674 6.7315C103.786 5.3085 103.342 3.65282 103.4 1.97629C103.418 1.45874 103.637 0.96848 104.01 0.609363C104.383 0.250246 104.882 0.0504627 105.399 0.0522581C105.917 0.0540535 106.414 0.257304 106.785 0.619C107.155 0.980695 107.371 1.47248 107.385 1.99014C107.431 3.66708 106.976 5.31956 106.078 6.73643C106.265 6.97927 106.467 7.21005 106.683 7.42724C106.901 7.64503 107.131 7.84893 107.374 8.03795C108.797 7.14917 110.453 6.70568 112.13 6.76414C112.648 6.78224 113.138 7.00105 113.497 7.37424C113.856 7.74744 114.056 8.24571 114.054 8.76357C114.052 9.28144 113.849 9.77817 113.487 10.1487C113.125 10.5192 112.633 10.7344 112.116 10.7487C110.439 10.7945 108.786 10.3392 107.369 9.44113C106.884 9.81624 106.447 10.2502 106.069 10.7329C106.957 12.1563 107.4 13.8123 107.342 15.4891C107.339 15.7469 107.285 16.0017 107.183 16.2383C107.081 16.4749 106.932 16.6886 106.746 16.867C106.56 17.0453 106.34 17.1845 106.099 17.2765C105.858 17.3685 105.601 17.4112 105.343 17.4024M105.363 11.8174C104.769 12.9328 104.475 14.1834 104.51 15.4467C104.526 15.657 104.622 15.8534 104.777 15.9968C104.931 16.1402 105.135 16.2201 105.346 16.2208C105.557 16.2216 105.76 16.1431 105.916 16.0008C106.072 15.8585 106.169 15.6628 106.187 15.4526C106.23 14.1896 105.945 12.9371 105.359 11.8174M104.335 8.72876C104.519 8.88566 104.699 9.05242 104.873 9.22215C105.046 9.39187 105.21 9.57733 105.366 9.76383C105.523 9.57832 105.69 9.39881 105.859 9.22612C106.029 9.05344 106.215 8.88865 106.401 8.73274C106.216 8.57617 106.036 8.41171 105.863 8.23935C105.69 8.067 105.526 7.88665 105.37 7.69851C105.213 7.88402 105.048 8.06333 104.877 8.23634C104.705 8.40936 104.525 8.57382 104.336 8.72973M98.8701 7.8663H98.657C98.4466 7.88323 98.2503 7.97851 98.1069 8.13335C97.9636 8.28819 97.8836 8.49135 97.8828 8.70238C97.8821 8.91342 97.9606 9.11701 98.1029 9.27286C98.2452 9.42871 98.4409 9.52535 98.6511 9.54376C99.9141 9.58737 101.167 9.3021 102.286 8.71587C101.235 8.15554 100.062 7.86154 98.8701 7.85944M108.456 8.73768C109.571 9.33175 110.822 9.62587 112.085 9.59122C112.295 9.5743 112.492 9.47889 112.635 9.32405C112.778 9.16921 112.858 8.96618 112.859 8.75514C112.86 8.54411 112.781 8.34052 112.639 8.18467C112.497 8.02882 112.301 7.93205 112.091 7.91364C110.828 7.86994 109.575 8.15522 108.456 8.74153M105.397 1.21248C105.288 1.20497 105.178 1.22019 105.076 1.25705C104.973 1.29391 104.879 1.35163 104.8 1.42665C104.72 1.50167 104.658 1.59231 104.615 1.69286C104.573 1.7934 104.551 1.90172 104.553 2.01086C104.509 3.27391 104.794 4.52666 105.381 5.64607C105.975 4.53067 106.269 3.28005 106.234 2.01676C106.237 1.90766 106.216 1.79922 106.175 1.6984C106.133 1.59757 106.071 1.50656 105.992 1.43099C105.913 1.35542 105.82 1.29694 105.717 1.25934C105.615 1.22174 105.506 1.20577 105.397 1.21248Z" fill="white"/>
<path d="M76.1597 23.4362H83.9246V21.205C83.9472 20.7042 83.8379 20.2063 83.6076 19.7611C83.3773 19.3158 83.034 18.9389 82.6122 18.6681C81.6087 18.0501 80.4436 17.7457 79.2661 17.7938C78.6353 17.7981 78.0061 17.8565 77.3853 17.9685C77.3057 17.528 77.2618 17.0818 77.2541 16.6343C77.2017 16.1125 77.3546 15.5908 77.6804 15.1798C78.0558 14.8581 78.5311 14.6764 79.0253 14.6657C79.5187 14.6371 79.8858 14.6223 80.1187 14.6223C81.4204 14.5925 82.7115 14.8626 83.892 15.4117C84.9245 15.902 85.7845 16.6932 86.359 17.6813C86.9561 18.7567 87.2543 19.9724 87.2224 21.2021V26.6698H76.1597V23.4362Z" fill="white"/>
<path d="M89.703 28.6989C89.9008 28.7166 90.1 28.6894 90.2858 28.6191C90.4716 28.5489 90.639 28.4375 90.7756 28.2933C91.038 27.8742 91.1551 27.3805 91.1091 26.8882V17.5968C91.0592 16.979 91.2372 16.3645 91.6094 15.869C91.836 15.6618 92.1038 15.5049 92.3953 15.4085C92.6867 15.312 92.9953 15.2783 93.3007 15.3094C93.7724 15.3166 94.2425 15.3645 94.7059 15.4525V26.8882C94.8056 28.2708 94.3991 29.6424 93.5622 30.7475C93.1496 31.1943 92.6427 31.5437 92.0783 31.7704C91.5138 31.997 90.9061 32.0952 90.299 32.0579C89.277 32.043 88.2638 31.8661 87.2972 31.5339L87.988 28.4364C88.5482 28.5866 89.1234 28.6747 89.703 28.6989ZM91.49 12.7606C91.1612 12.4308 90.9569 11.9974 90.9118 11.5339C90.8666 11.0704 90.9835 10.6056 91.2425 10.2186C91.5015 9.83164 91.8866 9.54627 92.3322 9.41123C92.7779 9.27619 93.2566 9.29981 93.6868 9.47796C94.1171 9.65612 94.4723 9.9778 94.692 10.3884C94.9117 10.7989 94.9824 11.273 94.892 11.7298C94.8016 12.1866 94.5556 12.5979 94.196 12.8938C93.8365 13.1897 93.3855 13.3518 92.9198 13.3526C92.6537 13.3567 92.3896 13.3063 92.1437 13.2045C91.8978 13.1027 91.6754 12.9516 91.49 12.7606Z" fill="white"/>
</g>
<defs>
<clipPath id="clip0_81_437">
<rect width="113.414" height="31.9891" fill="white" transform="translate(0.627747 0.0673828)"/>
</clipPath>
</defs>
</svg>
