<svg width="120" height="29" viewBox="0 0 120 29" fill="none" xmlns="http://www.w3.org/2000/svg">
<path d="M25.9982 26.1217L14.5659 26.041L14.5865 23.1722C14.9539 22.8517 15.3803 22.4832 15.8655 22.0666C16.3508 21.65 16.8516 21.2167 17.3678 20.7669C17.884 20.3206 18.3773 19.8919 18.8477 19.481L20.0718 18.4115L20.8237 17.7488L16.5317 17.7196C16.0115 17.7633 15.4922 17.6256 15.0621 17.3298C14.9085 17.1722 14.7909 16.9832 14.7174 16.7757C14.6439 16.5682 14.6162 16.3473 14.6363 16.1281C14.6355 15.7495 14.7005 15.3736 14.8286 15.0173C14.9043 14.7819 14.9973 14.5523 15.1067 14.3306L24.2059 14.3975C24.6859 14.38 25.1551 14.5429 25.521 14.8542C25.7003 15.0223 25.8396 15.2285 25.9287 15.4576C26.0179 15.6866 26.0545 15.9328 26.036 16.1779C26.0393 16.5345 25.95 16.8859 25.7768 17.1977C25.5504 17.5624 25.2774 17.896 24.9647 18.19C24.8583 18.2981 24.6214 18.5042 24.278 18.8166L23.0762 19.8896C22.6184 20.2914 22.1554 20.7006 21.6873 21.1172C21.2192 21.5338 20.7923 21.9058 20.4066 22.2331C20.022 22.5604 19.729 22.7997 19.5275 22.9507L26.0257 22.9971L25.9982 26.1217Z" fill="white"/>
<path d="M27.4542 12.7325C27.0872 12.3322 26.8854 11.8078 26.8892 11.2648C26.893 10.7218 27.1022 10.2003 27.4748 9.80527C27.8665 9.42468 28.3922 9.21348 28.9383 9.21734C29.4845 9.22119 30.0071 9.43978 30.3934 9.82586C30.7581 10.2272 30.9585 10.7512 30.9547 11.2935C30.9508 11.8358 30.7431 12.3568 30.3728 12.753C30.1837 12.9521 29.9544 13.1085 29.7001 13.2118C29.4458 13.3151 29.1723 13.363 28.8981 13.3522C28.6271 13.3578 28.3581 13.3054 28.1091 13.1985C27.86 13.0917 27.6368 12.9327 27.4542 12.7325ZM30.6664 26.1546L26.9701 26.1288L27.0387 16.0493C27.0256 15.8211 27.0652 15.5928 27.1545 15.3823C27.2438 15.1718 27.3805 14.9847 27.5538 14.8356C27.9686 14.5404 28.4724 14.3973 28.9805 14.4304C29.2891 14.4339 29.5967 14.4672 29.899 14.53C30.1895 14.5885 30.4735 14.6753 30.7471 14.7892L30.6664 26.1546Z" fill="white"/>
<path d="M44.4632 19.9833C44.4887 21.2108 44.2159 22.4262 43.6683 23.5251C43.1795 24.4779 42.4141 25.2607 41.4725 25.7707C40.4398 26.3058 39.2871 26.5671 38.1246 26.5295C36.943 26.5504 35.7758 26.2685 34.7339 25.7106C33.7941 25.2034 33.0194 24.4371 32.502 23.5028C31.9684 22.5235 31.7019 21.421 31.7295 20.3061C31.7168 19.1983 31.9855 18.1054 32.5106 17.1299C32.9958 16.237 33.706 15.4866 34.5708 14.953C35.2842 14.5275 36.0838 14.2673 36.9109 14.1915C37.7381 14.1157 38.5717 14.2264 39.3505 14.5152C39.8948 14.7184 40.3873 15.0398 40.7926 15.456L40.8321 9.64629C41.1096 9.53656 41.3971 9.45378 41.6905 9.39907C41.9893 9.34232 42.2928 9.31413 42.597 9.31493C43.1049 9.28658 43.6069 9.4359 44.0168 9.73727C44.1885 9.88834 44.3227 10.0773 44.4088 10.2891C44.4949 10.501 44.5306 10.7299 44.513 10.9579L44.4632 19.9833ZM36.2791 18.2853C35.7986 18.8515 35.5324 19.5685 35.5271 20.3111C35.5218 21.0536 35.7776 21.7744 36.2499 22.3474C36.7582 22.8441 37.4393 23.1245 38.15 23.1297C38.8607 23.1348 39.5458 22.8642 40.0612 22.3748C40.5387 21.8069 40.8029 21.0902 40.8082 20.3482C40.8136 19.6063 40.5597 18.8858 40.0904 18.3111C39.5819 17.8146 38.9007 17.5345 38.1899 17.5297C37.4792 17.5249 36.7943 17.7957 36.2791 18.2853Z" fill="white"/>
<path d="M8.3567 16.7044C8.1179 16.711 7.88021 16.6698 7.65761 16.583C7.43502 16.4963 7.23204 16.3659 7.06066 16.1995C6.88928 16.0331 6.75296 15.834 6.65976 15.6141C6.56655 15.3941 6.51835 15.1577 6.51798 14.9189C6.47408 13.3654 6.89558 11.8342 7.72834 10.5221C7.55433 10.2975 7.36684 10.0836 7.16694 9.88171C6.9672 9.68034 6.75505 9.49168 6.53172 9.31685C5.21327 10.1395 3.67943 10.5501 2.12634 10.4963C1.65066 10.4741 1.20194 10.269 0.873803 9.92393C0.545669 9.57883 0.363475 9.12035 0.365247 8.64415C0.367019 8.16795 0.552619 7.71084 0.883312 7.36819C1.21401 7.02554 1.66425 6.82382 2.14008 6.80514C3.69361 6.76291 5.22443 7.18491 6.53687 8.01721C6.76091 7.84317 6.97419 7.6557 7.17553 7.45582C7.37661 7.25531 7.56579 7.04321 7.74208 6.8206C6.91869 5.50243 6.50741 3.96853 6.5609 2.41524C6.58292 1.93956 6.78778 1.49074 7.13272 1.16246C7.47767 0.834183 7.93606 0.65178 8.41225 0.65333C8.88843 0.65488 9.34563 0.840274 9.68843 1.17079C10.0312 1.50131 10.2332 1.95142 10.2521 2.42724C10.2943 3.98052 9.87294 5.51119 9.04171 6.82403C9.21471 7.04898 9.40164 7.26286 9.60141 7.46441C9.80213 7.66537 10.0148 7.85398 10.2383 8.02924C11.5566 7.20615 13.0906 6.79546 14.6437 6.84978C15.1194 6.872 15.5681 7.07705 15.8963 7.42215C16.2244 7.76726 16.4066 8.22574 16.4048 8.70194C16.403 9.17814 16.2174 9.63528 15.8867 9.97793C15.5561 10.3206 15.1058 10.5223 14.63 10.5409C13.0776 10.5857 11.547 10.1674 10.2332 9.33917C9.78318 9.68709 9.37934 10.0909 9.03142 10.5409C9.8545 11.8592 10.2652 13.3932 10.2109 14.9463C10.2087 15.1851 10.1588 15.421 10.064 15.6402C9.96928 15.8594 9.83159 16.0574 9.6591 16.2225C9.48662 16.3876 9.28283 16.5165 9.05974 16.6016C8.83665 16.6867 8.59877 16.7264 8.36013 16.7181M8.3773 11.5436C7.82753 12.5775 7.55542 13.7363 7.58756 14.9068C7.59697 15.107 7.68311 15.2959 7.82809 15.4342C7.97307 15.5725 8.16575 15.6497 8.36614 15.6497C8.56653 15.6497 8.75923 15.5725 8.90421 15.4342C9.04919 15.2959 9.13532 15.107 9.14472 14.9068C9.18502 13.7365 8.92058 12.5758 8.3773 11.5384M7.42961 8.67821C7.60129 8.82414 7.77298 8.97864 7.92749 9.14003C8.08201 9.30141 8.23995 9.46794 8.38416 9.63962C8.5301 9.46794 8.68462 9.29627 8.846 9.14176C9.00738 8.98724 9.17391 8.82928 9.34731 8.68507C9.17563 8.53914 9.00395 8.38633 8.84943 8.22495C8.69492 8.06357 8.53526 7.89533 8.39104 7.72365C8.24511 7.89533 8.09231 8.067 7.93092 8.22152C7.76954 8.37603 7.60129 8.53399 7.42961 8.67821ZM2.36327 7.87473C2.29803 7.87473 2.23108 7.87473 2.16584 7.87473C1.96567 7.88413 1.7768 7.97026 1.63847 8.11524C1.50014 8.26022 1.42296 8.45293 1.42296 8.65332C1.42296 8.85371 1.50014 9.04639 1.63847 9.19137C1.7768 9.33635 1.96567 9.42248 2.16584 9.43188C3.33559 9.47196 4.4957 9.20754 5.53253 8.66448C4.55665 8.14585 3.4684 7.87465 2.36327 7.87473ZM11.2427 8.6868C12.2758 9.2371 13.4341 9.50981 14.6042 9.47825C14.802 9.46512 14.9874 9.37728 15.1228 9.23255C15.2583 9.08782 15.3336 8.89701 15.3336 8.6988C15.3336 8.50058 15.2583 8.30979 15.1228 8.16507C14.9874 8.02034 14.802 7.9325 14.6042 7.91937C13.4345 7.87976 12.2745 8.14418 11.2375 8.6868M8.40477 1.71304C8.30384 1.70565 8.20249 1.71933 8.10714 1.75322C8.01178 1.78711 7.92452 1.84048 7.85089 1.90991C7.77727 1.97933 7.71888 2.06329 7.67946 2.15649C7.64004 2.2497 7.62045 2.3501 7.62191 2.45129C7.58247 3.62153 7.84687 4.78201 8.38933 5.81968C8.94022 4.78677 9.21297 3.62834 9.18078 2.45815C9.18313 2.35701 9.16441 2.25649 9.12583 2.16297C9.08725 2.06944 9.02965 1.98495 8.95668 1.91488C8.88371 1.84481 8.79696 1.7907 8.70194 1.75595C8.60693 1.7212 8.50573 1.70658 8.40477 1.71304Z" fill="white"/>
<path d="M52.6451 20.7036L51.017 15.9655L49.2868 20.7036H52.6451ZM50.2578 14.3739H51.9004L55.7917 25.0986H54.2001L53.1123 21.8863H48.8706L47.7098 25.0986H46.2205L50.2578 14.3739ZM60.2378 24.2152C60.8511 24.2152 61.3597 23.9597 61.7637 23.4487C62.1725 22.9328 62.3769 22.1638 62.3769 21.1417C62.3769 20.5187 62.2869 19.9833 62.1068 19.5355C61.7661 18.674 61.1431 18.2433 60.2378 18.2433C59.3277 18.2433 58.7047 18.6984 58.3688 19.6085C58.1888 20.0952 58.0987 20.7133 58.0987 21.4629C58.0987 22.0664 58.1888 22.5799 58.3688 23.0033C58.7095 23.8113 59.3325 24.2152 60.2378 24.2152ZM56.8357 17.3161H58.1133V18.3528C58.3761 17.9975 58.6633 17.7225 58.9748 17.5278C59.4177 17.2358 59.9385 17.0898 60.5372 17.0898C61.423 17.0898 62.1749 17.4305 62.7931 18.1119C63.4112 18.7884 63.7203 19.757 63.7203 21.0175C63.7203 22.721 63.2749 23.9378 62.3842 24.6679C61.8196 25.1303 61.1626 25.3615 60.413 25.3615C59.8241 25.3615 59.3301 25.2325 58.931 24.9745C58.6974 24.8285 58.437 24.5778 58.1498 24.2225V28.216H56.8357V17.3161ZM68.5606 24.2152C69.1739 24.2152 69.6825 23.9597 70.0865 23.4487C70.4953 22.9328 70.6997 22.1638 70.6997 21.1417C70.6997 20.5187 70.6097 19.9833 70.4296 19.5355C70.0889 18.674 69.4659 18.2433 68.5606 18.2433C67.6505 18.2433 67.0275 18.6984 66.6916 19.6085C66.5116 20.0952 66.4215 20.7133 66.4215 21.4629C66.4215 22.0664 66.5116 22.5799 66.6916 23.0033C67.0323 23.8113 67.6553 24.2152 68.5606 24.2152ZM65.1585 17.3161H66.4361V18.3528C66.6989 17.9975 66.9861 17.7225 67.2976 17.5278C67.7405 17.2358 68.2613 17.0898 68.8599 17.0898C69.7458 17.0898 70.4977 17.4305 71.1159 18.1119C71.734 18.7884 72.043 19.757 72.043 21.0175C72.043 22.721 71.5977 23.9378 70.707 24.6679C70.1424 25.1303 69.4854 25.3615 68.7358 25.3615C68.1469 25.3615 67.6529 25.2325 67.2538 24.9745C67.0202 24.8285 66.7598 24.5778 66.4726 24.2225V28.216H65.1585V17.3161ZM73.7222 14.3739H75.8029L78.8838 23.4414L81.9428 14.3739H84.0016V25.0986H82.6218V18.7689C82.6218 18.5499 82.6266 18.1873 82.6364 17.6811C82.6461 17.1749 82.651 16.6323 82.651 16.0531L79.592 25.0986H78.1537L75.0728 16.0531V16.3816C75.0728 16.6444 75.0777 17.046 75.0874 17.5862C75.102 18.1216 75.1093 18.5158 75.1093 18.7689V25.0986H73.7222V14.3739ZM87.046 23.0179C87.046 23.3976 87.1847 23.6969 87.4621 23.9159C87.7395 24.1349 88.0681 24.2445 88.4477 24.2445C88.9101 24.2445 89.3579 24.1374 89.791 23.9232C90.5211 23.5679 90.8861 22.9863 90.8861 22.1784V21.1198C90.7255 21.222 90.5187 21.3071 90.2656 21.3753C90.0125 21.4434 89.7643 21.4921 89.5209 21.5213L88.7251 21.6235C88.2482 21.6868 87.8904 21.7866 87.6519 21.9228C87.248 22.1516 87.046 22.5166 87.046 23.0179ZM90.2291 20.3605C90.5308 20.3215 90.7328 20.195 90.835 19.9808C90.8934 19.864 90.9226 19.6961 90.9226 19.4771C90.9226 19.0293 90.762 18.7057 90.4408 18.5061C90.1244 18.3017 89.6694 18.1995 89.0756 18.1995C88.3893 18.1995 87.9026 18.3844 87.6154 18.7543C87.4548 18.9587 87.3502 19.2629 87.3015 19.6669H86.075C86.0993 18.7032 86.4108 18.034 87.0095 17.6592C87.613 17.2796 88.3114 17.0898 89.1048 17.0898C90.0247 17.0898 90.7718 17.265 91.3461 17.6154C91.9155 17.9659 92.2003 18.511 92.2003 19.2508V23.7553C92.2003 23.8916 92.227 24.0011 92.2806 24.0838C92.339 24.1666 92.4582 24.2079 92.6383 24.2079C92.6967 24.2079 92.7624 24.2055 92.8354 24.2006C92.9084 24.1909 92.9863 24.1787 93.0691 24.1641V25.1351C92.8646 25.1935 92.7089 25.23 92.6018 25.2446C92.4947 25.2592 92.3487 25.2665 92.1638 25.2665C91.7111 25.2665 91.3826 25.1059 91.1782 24.7847C91.0711 24.6144 90.9957 24.3734 90.9519 24.0619C90.6842 24.4124 90.2997 24.7166 89.7983 24.9745C89.297 25.2325 88.7446 25.3615 88.1411 25.3615C87.4159 25.3615 86.8221 25.1424 86.3597 24.7044C85.9022 24.2615 85.6734 23.7091 85.6734 23.0471C85.6734 22.3219 85.8998 21.7598 86.3524 21.3607C86.8051 20.9616 87.3988 20.7158 88.1338 20.6233L90.2291 20.3605ZM94.3978 17.2796H95.6462V18.6302C95.7484 18.3674 95.9991 18.0486 96.3982 17.6738C96.7973 17.2942 97.2572 17.1044 97.778 17.1044C97.8023 17.1044 97.8437 17.1068 97.9021 17.1117C97.9605 17.1165 98.0603 17.1263 98.2014 17.1409V18.528C98.1236 18.5134 98.0506 18.5037 97.9824 18.4988C97.9192 18.4939 97.8486 18.4915 97.7707 18.4915C97.1088 18.4915 96.6002 18.7057 96.2449 19.134C95.8896 19.5574 95.7119 20.0466 95.7119 20.6014V25.0986H94.3978V17.2796ZM99.3112 14.3739H100.574V20.6014L103.947 17.2796H105.626L102.633 20.2072L105.794 25.0986H104.115L101.677 21.1563L100.574 22.1638V25.0986H99.3112V14.3739ZM110.072 17.1044C110.627 17.1044 111.165 17.2358 111.686 17.4986C112.207 17.7566 112.603 18.0924 112.876 18.5061C113.139 18.9003 113.314 19.3603 113.401 19.8859C113.479 20.2461 113.518 20.8204 113.518 21.6089H107.787C107.812 22.4022 107.999 23.0398 108.349 23.5217C108.7 23.9987 109.243 24.2372 109.977 24.2372C110.664 24.2372 111.211 24.0108 111.62 23.5582C111.854 23.2954 112.019 22.9912 112.117 22.6456H113.409C113.375 22.9328 113.26 23.254 113.066 23.6093C112.876 23.9597 112.662 24.2469 112.423 24.4708C112.024 24.8601 111.53 25.123 110.941 25.2592C110.625 25.3371 110.267 25.3761 109.868 25.3761C108.895 25.3761 108.07 25.0232 107.393 24.3175C106.716 23.6069 106.378 22.614 106.378 21.3388C106.378 20.0831 106.719 19.0634 107.4 18.2798C108.082 17.4962 108.972 17.1044 110.072 17.1044ZM112.168 20.5649C112.114 19.9954 111.99 19.5404 111.795 19.1997C111.435 18.5669 110.834 18.2506 109.992 18.2506C109.389 18.2506 108.882 18.4696 108.474 18.9076C108.065 19.3408 107.848 19.8932 107.824 20.5649H112.168ZM115.402 15.0967H116.731V17.2796H117.979V18.3528H116.731V23.456C116.731 23.7285 116.823 23.9111 117.008 24.0035C117.11 24.0571 117.281 24.0838 117.519 24.0838C117.582 24.0838 117.651 24.0838 117.724 24.0838C117.797 24.079 117.882 24.0717 117.979 24.0619V25.0986C117.828 25.1424 117.67 25.1741 117.504 25.1935C117.344 25.213 117.169 25.2227 116.979 25.2227C116.366 25.2227 115.949 25.067 115.73 24.7555C115.511 24.4391 115.402 24.0303 115.402 23.529V18.3528H114.343V17.2796H115.402V15.0967Z" fill="white"/>
</svg>
