<svg width="75" height="33" viewBox="0 0 75 33" fill="none" xmlns="http://www.w3.org/2000/svg">
<g clip-path="url(#clip0_81_415)">
<path d="M16.5229 22.3338C16.5229 23.1511 16.7136 23.745 17.095 24.1155C17.4764 24.486 18.0976 24.6713 18.9585 24.6713V26.6001C17.3893 26.6001 16.305 26.0988 15.7056 25.0963C15.346 25.5867 14.872 25.9626 14.2836 26.2241C13.6951 26.4748 13.0195 26.6001 12.2567 26.6001H7.90869C6.82986 26.6001 5.8818 26.4039 5.06451 26.0116C4.24722 25.6193 3.61518 25.069 3.1684 24.3607C2.73251 23.6524 2.51456 22.8406 2.51456 21.9252C2.51456 21.5656 2.55815 21.1569 2.64533 20.6993C2.79789 20.0018 3.25013 19.6531 4.00203 19.6531C4.26357 19.6531 4.50876 19.6804 4.7376 19.7349C4.54145 20.3996 4.44337 21.0098 4.44337 21.5656C4.44337 22.5354 4.7376 23.2982 5.32605 23.854C5.92539 24.3989 6.78627 24.6713 7.90869 24.6713H12.2567C13.0413 24.6713 13.6188 24.4806 13.9893 24.0992C14.3598 23.7069 14.5451 23.1184 14.5451 22.3338V20.0618C14.5451 19.7131 14.6432 19.4243 14.8393 19.1954C15.0355 18.9557 15.3624 18.8358 15.8201 18.8358C15.9944 18.8358 16.2287 18.8631 16.5229 18.9176V22.3338ZM9.39616 30.3269C9.09103 30.3269 8.82405 30.2125 8.59521 29.9837C8.37727 29.7657 8.26829 29.5042 8.26829 29.1991C8.26829 28.8831 8.37727 28.6161 8.59521 28.3981C8.82405 28.1802 9.09103 28.0712 9.39616 28.0712C9.71218 28.0712 9.97916 28.1802 10.1971 28.3981C10.415 28.6161 10.524 28.8831 10.524 29.1991C10.524 29.5042 10.415 29.7657 10.1971 29.9837C9.97916 30.2125 9.71218 30.3269 9.39616 30.3269ZM32.0368 18.9339C32.0368 18.5852 32.1349 18.2964 32.331 18.0676C32.5272 17.8278 32.8541 17.708 33.3118 17.708C33.4861 17.708 33.7204 17.7352 34.0146 17.7897V26.6001H30.8926C29.4432 26.6001 28.4298 26.1261 27.8523 25.178C27.5362 25.6357 27.133 25.9899 26.6427 26.2405C26.1523 26.4802 25.6074 26.6001 25.0081 26.6001C23.7876 26.6001 22.9158 26.1097 22.3927 25.129C22.0222 25.6085 21.5428 25.9735 20.9543 26.2241C20.3768 26.4748 19.712 26.6001 18.9601 26.6001C18.6441 26.6001 18.388 26.5129 18.1919 26.3386C17.9957 26.1533 17.8976 25.919 17.8976 25.6357C17.8976 25.3524 17.9957 25.1235 18.1919 24.9492C18.388 24.7639 18.6441 24.6713 18.9601 24.6713C19.7447 24.6713 20.3223 24.486 20.6928 24.1155C21.0633 23.7341 21.2485 23.1402 21.2485 22.3338V19.4733C21.2485 19.1246 21.3466 18.8358 21.5428 18.607C21.7389 18.3673 22.0658 18.2474 22.5235 18.2474C22.6979 18.2474 22.9322 18.2746 23.2264 18.3291V22.3338C23.2264 23.1075 23.3789 23.6905 23.6841 24.0828C23.9892 24.4751 24.4305 24.6713 25.0081 24.6713C25.5311 24.6713 25.9343 24.4806 26.2177 24.0992C26.501 23.7069 26.6427 23.1184 26.6427 22.3338V19.4733C26.6427 19.1246 26.7407 18.8358 26.9369 18.607C27.133 18.3673 27.46 18.2474 27.9176 18.2474C28.092 18.2474 28.3263 18.2746 28.6205 18.3291V22.3338C28.6205 23.8921 29.2689 24.6713 30.5657 24.6713H32.0368V18.9339ZM26.6754 16.4984C26.3702 16.4984 26.1032 16.3894 25.8744 16.1715C25.6565 15.9426 25.5475 15.6756 25.5475 15.3705C25.5475 15.0545 25.6565 14.7875 25.8744 14.5696C26.1032 14.3516 26.3702 14.2427 26.6754 14.2427C26.9914 14.2427 27.2584 14.3516 27.4763 14.5696C27.6942 14.7875 27.8032 15.0545 27.8032 15.3705C27.8032 15.6756 27.6942 15.9426 27.4763 16.1715C27.2584 16.3894 26.9914 16.4984 26.6754 16.4984ZM30.6637 16.4984C30.3586 16.4984 30.0916 16.3894 29.8628 16.1715C29.6448 15.9426 29.5359 15.6756 29.5359 15.3705C29.5359 15.0545 29.6448 14.7875 29.8628 14.5696C30.0916 14.3516 30.3586 14.2427 30.6637 14.2427C30.9798 14.2427 31.2467 14.3516 31.4647 14.5696C31.6826 14.7875 31.7916 15.0545 31.7916 15.3705C31.7916 15.6756 31.6826 15.9426 31.4647 16.1715C31.2467 16.3894 30.9798 16.4984 30.6637 16.4984ZM28.6532 14.1936C28.3481 14.1936 28.0811 14.0846 27.8523 13.8667C27.6343 13.6379 27.5253 13.3709 27.5253 13.0658C27.5253 12.7497 27.6343 12.4828 27.8523 12.2648C28.0811 12.0469 28.3481 11.9379 28.6532 11.9379C28.9692 11.9379 29.2362 12.0469 29.4541 12.2648C29.6721 12.4828 29.7811 12.7497 29.7811 13.0658C29.7811 13.3709 29.6721 13.6379 29.4541 13.8667C29.2362 14.0846 28.9692 14.1936 28.6532 14.1936Z" fill="#F8D83F"/>
<path d="M65.7287 17.4064C65.4709 17.4136 65.2143 17.3692 64.974 17.2756C64.7336 17.1821 64.5145 17.0413 64.3294 16.8617C64.1444 16.6821 63.9971 16.4672 63.8965 16.2298C63.7958 15.9923 63.7438 15.7371 63.7433 15.4792C63.6969 13.8024 64.1518 12.1498 65.0498 10.7329C64.863 10.4901 64.6609 10.2594 64.4449 10.0421C64.2276 9.82436 63.9969 9.62037 63.7542 9.43134C62.3312 10.3196 60.6755 10.7631 58.999 10.7052C58.4814 10.6873 57.9912 10.4685 57.6321 10.0954C57.273 9.72233 57.0731 9.22411 57.0749 8.70626C57.0767 8.1884 57.28 7.6916 57.6417 7.32099C58.0034 6.95038 58.4951 6.73507 59.0128 6.72067C60.6898 6.67427 62.3424 7.12954 63.7591 8.02815C64.0017 7.8407 64.2324 7.63833 64.4499 7.42226C64.6671 7.20448 64.8711 6.97381 65.0607 6.73151C64.1724 5.30811 63.7288 3.65214 63.7868 1.97531C63.8047 1.45777 64.0234 0.967534 64.3966 0.608417C64.7697 0.2493 65.2679 0.0494861 65.7857 0.0512815C66.3036 0.053077 66.8004 0.256327 67.171 0.618023C67.5416 0.979719 67.7569 1.47145 67.7713 1.9891C67.8173 3.66636 67.3621 5.31922 66.4639 6.73645C66.6513 6.97907 66.8536 7.20978 67.0697 7.4272C67.2865 7.6455 67.5173 7.84952 67.7605 8.038C69.184 7.15005 70.8399 6.70655 72.5167 6.7641C73.0342 6.7822 73.5244 7.001 73.8835 7.3742C74.2425 7.7474 74.4422 8.2457 74.4403 8.76356C74.4384 9.28142 74.235 9.77818 73.8732 10.1487C73.5114 10.5192 73.0196 10.7344 72.5019 10.7487C70.825 10.7945 69.1725 10.3392 67.7555 9.44118C67.5132 9.62889 67.2825 9.83124 67.0648 10.0471C66.8473 10.2644 66.6437 10.4951 66.455 10.7378C67.3431 12.1609 67.7863 13.8166 67.7279 15.4931C67.7257 15.7509 67.6719 16.0057 67.5696 16.2424C67.4673 16.4791 67.3187 16.6929 67.1324 16.8712C66.9462 17.0496 66.7261 17.1888 66.4852 17.2807C66.2443 17.3726 65.9874 17.4154 65.7297 17.4064M65.7495 11.8213C65.1553 12.9367 64.8612 14.1873 64.8959 15.4506C64.9128 15.661 65.0081 15.8573 65.163 16.0007C65.3178 16.1441 65.5209 16.2241 65.7319 16.2248C65.943 16.2256 66.1466 16.147 66.3024 16.0047C66.4583 15.8624 66.555 15.6668 66.5734 15.4565C66.6166 14.1936 66.3314 12.941 65.7455 11.8213M64.7212 8.7327C64.9054 8.89058 65.0847 9.05504 65.259 9.22608C65.4333 9.39712 65.5978 9.57771 65.7524 9.76783C65.9093 9.58231 66.0761 9.40271 66.2458 9.23002C66.4155 9.05734 66.601 8.89255 66.7875 8.73664C66.602 8.57876 66.4227 8.4143 66.2497 8.24326C66.0767 8.07222 65.9123 7.89163 65.7563 7.70151C65.5991 7.88702 65.4347 8.0663 65.263 8.23931C65.0913 8.41232 64.911 8.57679 64.7222 8.7327M59.2565 7.87027C59.1854 7.87027 59.1144 7.87027 59.0434 7.87027C58.833 7.88719 58.6367 7.9825 58.4933 8.13735C58.3499 8.29219 58.2699 8.49525 58.2692 8.70629C58.2684 8.91732 58.347 9.12094 58.4893 9.27679C58.6316 9.43264 58.8272 9.52934 59.0374 9.54776C60.3005 9.59132 61.5531 9.30605 62.6727 8.71987C61.621 8.1598 60.448 7.86605 59.2565 7.86433M68.842 8.74158C69.9572 9.33612 71.208 9.63027 72.4713 9.59512C72.6817 9.5782 72.878 9.48289 73.0214 9.32804C73.1648 9.1732 73.2447 8.97014 73.2455 8.7591C73.2462 8.54807 73.1677 8.34445 73.0254 8.1886C72.8831 8.03275 72.6875 7.93605 72.4772 7.91763C71.2142 7.87398 69.9615 8.15926 68.842 8.74552M65.783 1.21647C65.6741 1.20896 65.5648 1.22413 65.4621 1.26098C65.3593 1.29784 65.2654 1.35559 65.1861 1.43061C65.1068 1.50563 65.0439 1.59627 65.0015 1.69682C64.959 1.79737 64.9378 1.90562 64.9393 2.01476C64.8952 3.27781 65.1805 4.53062 65.7672 5.65004C66.3613 4.53463 66.6555 3.28399 66.6208 2.02069C66.623 1.91159 66.6026 1.80321 66.5609 1.70239C66.5191 1.60157 66.4569 1.51049 66.3782 1.43492C66.2995 1.35935 66.2059 1.3009 66.1035 1.2633C66.001 1.2257 65.8919 1.20977 65.783 1.21647Z" fill="white"/>
<path d="M36.5486 23.4357H44.3135V21.2046C44.3361 20.7038 44.2267 20.2059 43.9964 19.7607C43.7661 19.3154 43.4228 18.9385 43.001 18.6676C41.9975 18.0497 40.8324 17.7453 39.6549 17.7933C39.0241 17.7977 38.3949 17.8561 37.7741 17.968C37.6944 17.5276 37.6505 17.0814 37.6429 16.6339C37.5905 16.1121 37.7434 15.5904 38.0692 15.1794C38.4448 14.8581 38.92 14.6765 39.4142 14.6653C39.9075 14.6367 40.2746 14.6219 40.5075 14.6219C41.8092 14.592 43.1003 14.8622 44.2809 15.4113C45.314 15.9029 46.1741 16.6959 46.7478 17.6858C47.345 18.7612 47.6431 19.9769 47.6112 21.2066V26.6743H36.5486V23.4357Z" fill="white"/>
<path d="M50.0918 28.6979C50.2896 28.7159 50.4889 28.6888 50.6747 28.6185C50.8605 28.5483 51.028 28.4368 51.1644 28.2924C51.4268 27.8733 51.544 27.3795 51.4979 26.8872V17.5958C51.4481 16.9781 51.626 16.3635 51.9982 15.868C52.2248 15.6608 52.4926 15.5039 52.7841 15.4075C53.0756 15.311 53.3841 15.2773 53.6895 15.3085C54.1612 15.3157 54.6313 15.3636 55.0947 15.4516V26.8872C55.1944 28.2698 54.788 29.6415 53.9511 30.7465C53.5384 31.1933 53.0315 31.5427 52.4671 31.7694C51.9027 31.9961 51.2949 32.0943 50.6878 32.0569C49.6658 32.0425 48.6525 31.8656 47.6861 31.533L48.3768 28.4355C48.9371 28.5857 49.5122 28.6737 50.0918 28.6979ZM51.8788 12.7597C51.5501 12.4299 51.3457 11.9964 51.3006 11.5329C51.2555 11.0694 51.3723 10.6046 51.6313 10.2176C51.8903 9.83063 52.2754 9.54532 52.7211 9.41028C53.1667 9.27524 53.6454 9.2988 54.0756 9.47695C54.5059 9.6551 54.8611 9.97685 55.0808 10.3874C55.3005 10.798 55.3712 11.272 55.2808 11.7288C55.1904 12.1856 54.9444 12.5969 54.5849 12.8928C54.2253 13.1887 53.7743 13.3509 53.3087 13.3517C53.0425 13.3558 52.7784 13.3054 52.5325 13.2036C52.2866 13.1018 52.0641 12.9507 51.8788 12.7597Z" fill="white"/>
</g>
<defs>
<clipPath id="clip0_81_415">
<rect width="73.9435" height="31.9891" fill="white" transform="translate(0.483673 0.0673828)"/>
</clipPath>
</defs>
</svg>
