<svg width="78" height="26" viewBox="0 0 78 26" fill="none" xmlns="http://www.w3.org/2000/svg">
<path d="M26.6692 25.3245L14.9041 25.2453L14.9253 22.4287C15.3033 22.1135 15.7432 21.7544 16.2413 21.3415C16.7395 20.9285 17.2571 20.4987 17.7888 20.0655C18.3206 19.6323 18.8276 19.2075 19.3116 18.8047C19.7956 18.4018 20.2125 18.0495 20.5694 17.7545L21.3449 17.1039L16.9285 17.0736C16.3934 17.1183 15.8586 16.9836 15.4164 16.6926C15.258 16.538 15.1367 16.3524 15.0607 16.1487C14.9848 15.945 14.956 15.728 14.9765 15.5127C14.9754 15.1404 15.0423 14.7708 15.1743 14.4205C15.2529 14.1926 15.3491 13.9706 15.4623 13.7563L24.825 13.8221C25.319 13.8045 25.8019 13.9645 26.1781 14.2705C26.3624 14.4353 26.5056 14.6375 26.5973 14.8621C26.689 15.0866 26.7269 15.328 26.7081 15.5683C26.7142 15.922 26.6222 16.2709 26.4413 16.5797C26.2085 16.9378 25.9277 17.2654 25.6058 17.554C25.4963 17.6602 25.2525 17.8624 24.8991 18.1692C24.5458 18.476 24.1289 18.8232 23.6626 19.2227C23.1962 19.6222 22.7175 20.0183 22.2334 20.4279C21.7494 20.8375 21.3113 21.2049 20.9156 21.5235C20.5199 21.8421 20.2178 22.0797 20.0111 22.2281L26.6975 22.2736L26.6692 25.3245Z" fill="white"/>
<path d="M28.1552 12.1778C27.7787 11.7842 27.5718 11.2696 27.5757 10.7368C27.5797 10.204 27.7942 9.69228 28.1764 9.30383C28.5794 8.93017 29.1203 8.72283 29.6823 8.72661C30.2442 8.7304 30.782 8.94501 31.1795 9.32406C31.5548 9.71814 31.7609 10.2325 31.757 10.765C31.7531 11.2974 31.5393 11.809 31.1583 12.198C30.9637 12.3929 30.728 12.5462 30.4667 12.6476C30.2054 12.749 29.9245 12.7963 29.6426 12.7863C29.3636 12.7916 29.0866 12.74 28.8301 12.6351C28.5736 12.5302 28.3435 12.3743 28.1552 12.1778ZM31.4604 25.3556L27.657 25.3287L27.7294 15.4326C27.7155 15.2087 27.7561 14.9847 27.848 14.7783C27.94 14.5718 28.0808 14.3885 28.2594 14.2426C28.6858 13.9521 29.2046 13.8115 29.7274 13.8448C30.045 13.8482 30.3615 13.8809 30.6725 13.9426C30.9716 13.9992 31.264 14.0845 31.5452 14.1971L31.4604 25.3556Z" fill="white"/>
<path d="M45.6557 19.2978C45.6818 20.503 45.4012 21.6962 44.8378 22.7751C44.3347 23.71 43.5479 24.4783 42.5801 24.9799C41.5175 25.5052 40.3315 25.7617 39.1354 25.7249C37.9191 25.7448 36.7176 25.4681 35.6447 24.9209C34.6809 24.4216 33.887 23.6694 33.357 22.7532C32.8085 21.7916 32.5349 20.7092 32.5638 19.6147C32.5499 18.527 32.8265 17.4538 33.3676 16.4964C33.8648 15.6183 34.596 14.8811 35.4875 14.359C36.2207 13.9401 37.0433 13.684 37.8943 13.6096C38.7453 13.5352 39.603 13.6444 40.4038 13.9292C40.964 14.1283 41.4709 14.4439 41.8876 14.8529L41.93 9.1489C42.2157 9.04103 42.5115 8.95918 42.8133 8.90448C43.121 8.8505 43.4332 8.82287 43.7461 8.82189C44.2688 8.79539 44.7851 8.94251 45.207 9.23824C45.3838 9.38655 45.522 9.57199 45.6109 9.77995C45.6998 9.98791 45.7369 10.2127 45.7193 10.4367L45.6557 19.2978ZM37.2346 17.6291C36.7401 18.1852 36.4661 18.8894 36.4606 19.6187C36.4551 20.348 36.7185 21.056 37.2045 21.6188C37.7278 22.1063 38.4288 22.3813 39.1601 22.3861C39.8914 22.3908 40.5961 22.1248 41.1263 21.6441C41.6174 21.0868 41.8892 20.3834 41.8947 19.6552C41.9002 18.9271 41.639 18.22 41.1563 17.656C40.6333 17.1683 39.9325 16.893 39.2011 16.888C38.4698 16.8829 37.765 17.1486 37.2346 17.6291Z" fill="white"/>
<path d="M8.50758 16.0766C8.26193 16.0829 8.01742 16.0423 7.78849 15.957C7.55956 15.8718 7.35082 15.7438 7.17453 15.5804C6.99824 15.4171 6.85797 15.2218 6.76198 15.0059C6.66599 14.7901 6.6162 14.5581 6.61559 14.3236C6.57128 12.7985 7.00492 11.2954 7.861 10.0068C7.6829 9.78555 7.48995 9.57555 7.28335 9.37812C7.07783 9.18042 6.85953 8.9952 6.62974 8.82355C5.2732 9.63137 3.69486 10.0346 2.09678 9.98154C1.60732 9.95973 1.1456 9.75841 0.807964 9.41959C0.470328 9.08077 0.282858 8.63062 0.284681 8.16309C0.286504 7.69556 0.477479 7.24675 0.817749 6.91034C1.15802 6.57392 1.62131 6.37589 2.11093 6.35755C3.70957 6.31505 5.28502 6.72945 6.63502 7.54756C6.86512 7.37619 7.08456 7.19215 7.29219 6.99638C7.50001 6.79976 7.69472 6.59089 7.87515 6.37103C7.02833 5.07674 6.60573 3.57069 6.66152 2.04582C6.6783 1.57502 6.88659 1.12896 7.24222 0.802196C7.59784 0.475436 8.07283 0.293669 8.56653 0.295423C9.06023 0.297176 9.53382 0.482319 9.88688 0.811596C10.2399 1.14087 10.4447 1.5884 10.4578 2.05931C10.5021 3.58443 10.0685 5.08747 9.2124 6.37608C9.57171 6.8168 9.98711 7.21316 10.449 7.556C11.8055 6.74818 13.3839 6.34497 14.9819 6.398C15.4714 6.41981 15.9331 6.62114 16.2708 6.95996C16.6084 7.29879 16.7959 7.74893 16.794 8.21646C16.7922 8.68399 16.6012 9.13279 16.261 9.4692C15.9207 9.80562 15.4574 10.0037 14.9678 10.022C13.3693 10.0635 11.7941 9.64914 10.4437 8.83198C9.98291 9.17601 9.56767 9.57222 9.20712 10.0119C10.0537 11.3063 10.4763 12.8122 10.4207 14.3371C10.4185 14.5716 10.3672 14.8033 10.2697 15.0186C10.1722 15.2338 10.0305 15.4283 9.85308 15.5906C9.67563 15.7528 9.46595 15.8796 9.23639 15.9633C9.00683 16.0471 8.76203 16.0862 8.51639 16.0783M8.53583 10.998C7.96898 12.0121 7.68833 13.1494 7.72145 14.2983C7.73113 14.4949 7.81975 14.6803 7.96893 14.8161C8.11811 14.9519 8.3164 15.0277 8.52259 15.0277C8.72878 15.0277 8.92705 14.9519 9.07623 14.8161C9.22541 14.6803 9.31403 14.4949 9.3237 14.2983C9.36571 13.1495 9.09422 12.0099 8.53583 10.9912M7.55894 8.18304C7.73559 8.32631 7.91224 8.47633 8.07123 8.63477C8.23021 8.79321 8.3945 8.9584 8.54289 9.12696C8.69128 8.9584 8.85028 8.78984 9.01633 8.63814C9.18239 8.48644 9.35373 8.33137 9.53215 8.18978C9.35549 8.0465 9.17885 7.8948 9.01986 7.73804C8.86087 7.58128 8.69834 7.41441 8.54995 7.24585C8.3998 7.41441 8.24081 7.58296 8.07476 7.73466C7.9087 7.88636 7.73736 8.04145 7.55894 8.18304ZM2.3494 7.39755H2.14624C1.94273 7.41045 1.75199 7.49668 1.61263 7.63878C1.47328 7.78087 1.39572 7.9682 1.39572 8.16281C1.39572 8.35742 1.47328 8.54475 1.61263 8.68684C1.75199 8.82893 1.94273 8.91516 2.14624 8.92805C3.34988 8.96756 4.54362 8.70792 5.61042 8.1746C4.60824 7.66491 3.49037 7.39752 2.35471 7.39587M11.4913 8.19483C12.5542 8.73519 13.7462 9.00239 14.9501 8.9702C15.1561 8.96097 15.3504 8.87641 15.4928 8.73406C15.6351 8.59172 15.7145 8.40253 15.7145 8.20579C15.7145 8.00905 15.6351 7.81986 15.4928 7.67751C15.3504 7.53517 15.1561 7.45061 14.9501 7.44138C13.7465 7.40203 12.5528 7.66165 11.4859 8.19483M8.57117 1.348C8.4674 1.34073 8.36317 1.35415 8.26514 1.38744C8.16712 1.42073 8.07744 1.47315 8.00182 1.54134C7.9262 1.60953 7.8663 1.692 7.82593 1.7835C7.78557 1.87501 7.76563 1.97354 7.76739 2.0728C7.72538 3.22168 7.99687 4.36126 8.55526 5.37991C9.12233 4.36527 9.40298 3.22731 9.36963 2.07785C9.37234 1.97855 9.35327 1.87981 9.31365 1.78795C9.27403 1.69609 9.21475 1.61314 9.13957 1.54442C9.06439 1.47571 8.97499 1.42275 8.87711 1.38892C8.77923 1.35509 8.67502 1.34116 8.57117 1.348Z" fill="white"/>
<path d="M50.3811 12.1619C50.5638 12.1121 51.2115 12.0623 52.2743 12.0623C54.948 12.0623 55.5459 13.1085 55.5459 14.2212C55.5459 15.4169 54.8484 16.3801 52.3906 16.3801C51.2779 16.3801 50.5306 16.2306 50.3811 16.214V12.1619ZM48.4547 21.9434H50.3811V17.8913C50.5306 17.8913 51.5934 18.0574 52.5234 18.0574C56.1935 18.0574 57.5719 16.4133 57.5719 14.2212C57.5719 11.8962 55.8614 10.385 52.3241 10.385C50.597 10.385 49.7169 10.4846 49.3681 10.5511C48.8533 10.6673 48.4547 10.9164 48.4547 11.6305V21.9434ZM66.7075 16.9115C66.7075 14.3208 64.8973 13.3742 62.3067 13.3742C60.1312 13.3742 59.5499 13.9721 59.5499 14.6031C59.5499 15.0515 59.8655 15.367 59.9983 15.4833C60.2474 15.284 61.0113 14.9021 62.2734 14.9021C63.7681 14.9021 64.8143 15.284 64.8143 16.8451C64.4323 16.7952 63.6186 16.7288 62.7716 16.7288C59.8322 16.7288 58.786 17.6754 58.786 19.4855C58.786 20.8805 59.5665 22.1759 63.0208 22.1759C64.7479 22.1759 66.2591 21.9932 66.7075 21.9101V16.9115ZM64.8309 20.648C64.6316 20.6978 64.0338 20.7975 63.0208 20.7975C61.194 20.7975 60.6792 20.2827 60.6792 19.4689C60.6792 18.4891 61.3269 18.0574 62.8381 18.0574C64.0504 18.0574 64.615 18.1736 64.8309 18.2234V20.648ZM68.6561 18.6054C68.6561 20.7809 70.1839 21.9766 72.3262 21.9766C73.4554 21.9766 74.4684 21.5614 74.9168 20.9137C74.9168 23.2221 73.8706 23.903 72.1435 23.903C70.7983 23.903 69.7853 23.5708 69.4532 23.438C69.3037 23.903 69.1543 24.3846 68.9716 24.8496C69.2539 24.9658 70.5492 25.4308 72.3428 25.4308C74.9999 25.4308 76.7602 24.1853 76.7602 21.0632V13.7894C76.6439 13.7396 76.262 13.6067 75.8634 13.6067C75.249 13.6067 74.867 13.889 74.867 14.4869V18.0408C74.867 19.5686 74.0367 20.3657 72.6915 20.3657C71.2301 20.3657 70.5492 19.5354 70.5492 18.2234V13.7894C70.433 13.7396 70.051 13.6067 69.6525 13.6067C69.038 13.6067 68.6561 13.889 68.6561 14.4869V18.6054Z" fill="#10C48A"/>
</svg>
