<svg width="131" height="57" viewBox="0 0 131 57" fill="none" xmlns="http://www.w3.org/2000/svg">
<g clip-path="url(#clip0_1_88437)">
<path d="M28.4168 39.8472C28.4168 41.2888 28.7532 42.3364 29.426 42.9899C30.0987 43.6434 31.1944 43.9702 32.7129 43.9702V47.3724C29.945 47.3724 28.0324 46.4882 26.9752 44.7198C26.3409 45.5848 25.5048 46.248 24.4668 46.7093C23.4288 47.1514 22.2371 47.3724 20.8916 47.3724H13.2221C11.3192 47.3724 9.64689 47.0264 8.20527 46.3345C6.76365 45.6425 5.64879 44.6718 4.8607 43.4224C4.09184 42.173 3.7074 40.741 3.7074 39.1263C3.7074 38.492 3.78429 37.7712 3.93806 36.9639C4.20717 35.7337 5.00486 35.1186 6.33116 35.1186C6.79248 35.1186 7.22497 35.1667 7.62862 35.2628C7.28263 36.4353 7.10964 37.5117 7.10964 38.492C7.10964 40.2028 7.62862 41.5483 8.66659 42.5286C9.72378 43.4897 11.2423 43.9702 13.2221 43.9702H20.8916C22.2755 43.9702 23.2943 43.6338 23.9478 42.9611C24.6013 42.2691 24.9281 41.2311 24.9281 39.8472V35.8394C24.9281 35.2243 25.1011 34.715 25.4471 34.3113C25.7931 33.8884 26.3697 33.677 27.177 33.677C27.4846 33.677 27.8979 33.7251 28.4168 33.8212V39.8472ZM15.8459 53.9462C15.3077 53.9462 14.8367 53.7444 14.4331 53.3408C14.0487 52.9563 13.8564 52.495 13.8564 51.9568C13.8564 51.3994 14.0487 50.9284 14.4331 50.544C14.8367 50.1596 15.3077 49.9674 15.8459 49.9674C16.4033 49.9674 16.8742 50.1596 17.2587 50.544C17.6431 50.9284 17.8353 51.3994 17.8353 51.9568C17.8353 52.495 17.6431 52.9563 17.2587 53.3408C16.8742 53.7444 16.4033 53.9462 15.8459 53.9462ZM55.7818 33.85C55.7818 33.2349 55.9548 32.7255 56.3008 32.3219C56.6468 31.899 57.2234 31.6876 58.0307 31.6876C58.3383 31.6876 58.7515 31.7356 59.2705 31.8317V47.3724H53.7635C51.207 47.3724 49.4194 46.5363 48.4007 44.864C47.8433 45.6713 47.1321 46.296 46.2671 46.7381C45.4021 47.161 44.441 47.3724 43.3838 47.3724C41.231 47.3724 39.6933 46.5075 38.7706 44.7775C38.1171 45.6233 37.2713 46.2672 36.2334 46.7093C35.2146 47.1514 34.0421 47.3724 32.7158 47.3724C32.1584 47.3724 31.7067 47.2187 31.3607 46.9111C31.0147 46.5843 30.8417 46.1711 30.8417 45.6713C30.8417 45.1716 31.0147 44.7679 31.3607 44.4604C31.7067 44.1336 32.1584 43.9702 32.7158 43.9702C34.0998 43.9702 35.1185 43.6434 35.7721 42.9899C36.4256 42.3171 36.7524 41.2696 36.7524 39.8472V34.8015C36.7524 34.1864 36.9254 33.677 37.2713 33.2734C37.6173 32.8505 38.194 32.639 39.0013 32.639C39.3088 32.639 39.7221 32.6871 40.2411 32.7832V39.8472C40.2411 41.2119 40.5102 42.2403 41.0484 42.9322C41.5866 43.6242 42.3651 43.9702 43.3838 43.9702C44.3065 43.9702 45.0177 43.6338 45.5174 42.9611C46.0172 42.2691 46.2671 41.2311 46.2671 39.8472V34.8015C46.2671 34.1864 46.4401 33.677 46.7861 33.2734C47.1321 32.8505 47.7087 32.639 48.516 32.639C48.8236 32.639 49.2368 32.6871 49.7558 32.7832V39.8472C49.7558 42.5959 50.8995 43.9702 53.1869 43.9702H55.7818V33.85ZM46.3247 29.554C45.7865 29.554 45.3156 29.3617 44.9119 28.9773C44.5275 28.5737 44.3353 28.1027 44.3353 27.5645C44.3353 27.0071 44.5275 26.5362 44.9119 26.1517C45.3156 25.7673 45.7865 25.5751 46.3247 25.5751C46.8822 25.5751 47.3531 25.7673 47.7375 26.1517C48.122 26.5362 48.3142 27.0071 48.3142 27.5645C48.3142 28.1027 48.122 28.5737 47.7375 28.9773C47.3531 29.3617 46.8822 29.554 46.3247 29.554ZM53.3599 29.554C52.8217 29.554 52.3507 29.3617 51.9471 28.9773C51.5626 28.5737 51.3704 28.1027 51.3704 27.5645C51.3704 27.0071 51.5626 26.5362 51.9471 26.1517C52.3507 25.7673 52.8217 25.5751 53.3599 25.5751C53.9173 25.5751 54.3882 25.7673 54.7727 26.1517C55.1571 26.5362 55.3493 27.0071 55.3493 27.5645C55.3493 28.1027 55.1571 28.5737 54.7727 28.9773C54.3882 29.3617 53.9173 29.554 53.3599 29.554ZM49.8135 25.4886C49.2753 25.4886 48.8043 25.2964 48.4007 24.9119C48.0162 24.5083 47.824 24.0373 47.824 23.4991C47.824 22.9417 48.0162 22.4708 48.4007 22.0863C48.8043 21.7019 49.2753 21.5097 49.8135 21.5097C50.3709 21.5097 50.8418 21.7019 51.2263 22.0863C51.6107 22.4708 51.8029 22.9417 51.8029 23.4991C51.8029 24.0373 51.6107 24.5083 51.2263 24.9119C50.8418 25.2964 50.3709 25.4886 49.8135 25.4886Z" fill="#606060"/>
<path d="M115.21 31.0825C114.756 31.0953 114.303 31.0169 113.879 30.8518C113.455 30.6868 113.069 30.4386 112.742 30.1217C112.416 29.8049 112.156 29.4259 111.979 29.0071C111.801 28.5882 111.709 28.1381 111.708 27.6832C111.626 24.7254 112.429 21.8103 114.013 19.3111C113.683 18.8828 113.327 18.4758 112.946 18.0927C112.563 17.7085 112.156 17.3487 111.728 17.0153C109.217 18.5821 106.297 19.3644 103.34 19.2623C102.427 19.2306 101.562 18.8448 100.929 18.1867C100.295 17.5286 99.9428 16.6497 99.9459 15.7363C99.9491 14.8229 100.308 13.9465 100.946 13.2928C101.584 12.6391 102.451 12.2593 103.364 12.2339C106.322 12.1521 109.237 12.9551 111.736 14.5402C112.164 14.2095 112.571 13.8526 112.955 13.4715C113.338 13.0873 113.698 12.6804 114.032 12.253C112.465 9.7423 111.683 6.82132 111.785 3.86355C111.817 2.95066 112.202 2.08593 112.861 1.45248C113.519 0.819033 114.398 0.466581 115.311 0.469748C116.224 0.472915 117.101 0.831429 117.755 1.46943C118.408 2.10742 118.788 2.97479 118.813 3.88788C118.894 6.8464 118.091 9.76189 116.507 12.2618C116.838 12.6897 117.195 13.0967 117.576 13.4802C117.958 13.8652 118.365 14.2251 118.794 14.5576C121.305 12.9913 124.226 12.209 127.184 12.3105C128.097 12.3424 128.961 12.7284 129.595 13.3867C130.228 14.045 130.58 14.9239 130.577 15.8374C130.573 16.7508 130.215 17.6271 129.576 18.2806C128.938 18.9342 128.071 19.3138 127.158 19.3389C124.2 19.4197 121.285 18.6167 118.786 17.0326C118.358 17.3637 117.951 17.7207 117.567 18.1014C117.184 18.4847 116.824 18.8917 116.491 19.3198C118.058 21.83 118.84 24.7505 118.737 27.7076C118.733 28.1624 118.638 28.6118 118.458 29.0293C118.277 29.4468 118.015 29.824 117.686 30.1386C117.358 30.4531 116.97 30.6987 116.545 30.8608C116.12 31.0229 115.667 31.0984 115.212 31.0825M115.247 21.2309C114.199 23.1984 113.68 25.4044 113.741 27.6327C113.771 28.0038 113.939 28.3501 114.213 28.603C114.486 28.8559 114.844 28.997 115.216 28.9983C115.588 28.9997 115.947 28.8611 116.222 28.6101C116.497 28.3591 116.668 28.014 116.7 27.6432C116.777 25.4154 116.273 23.206 115.24 21.2309M113.433 15.7829C113.758 16.0614 114.074 16.3515 114.382 16.6532C114.689 16.9549 114.979 17.2735 115.252 17.6088C115.529 17.2816 115.823 16.9648 116.122 16.6602C116.422 16.3556 116.749 16.0649 117.078 15.7899C116.751 15.5114 116.435 15.2213 116.129 14.9196C115.824 14.6179 115.534 14.2994 115.259 13.964C114.982 14.2913 114.692 14.6075 114.389 14.9127C114.086 15.2178 113.768 15.5079 113.435 15.7829M103.794 14.2617C103.669 14.2617 103.543 14.2617 103.418 14.2617C103.047 14.2916 102.701 14.4597 102.448 14.7328C102.195 15.0059 102.054 15.3641 102.052 15.7364C102.051 16.1086 102.19 16.4678 102.441 16.7427C102.692 17.0176 103.037 17.1882 103.408 17.2206C105.635 17.2975 107.845 16.7943 109.82 15.7603C107.965 14.7724 105.896 14.2543 103.794 14.2512M120.702 15.7986C122.669 16.8473 124.875 17.3662 127.104 17.3042C127.475 17.2743 127.821 17.1062 128.074 16.8331C128.327 16.56 128.468 16.2018 128.469 15.8295C128.471 15.4573 128.332 15.0981 128.081 14.8232C127.83 14.5483 127.485 14.3777 127.114 14.3453C124.886 14.2682 122.677 14.7715 120.702 15.8056M115.306 2.52504C115.114 2.51178 114.921 2.53853 114.74 2.60355C114.559 2.66856 114.393 2.77043 114.253 2.90276C114.113 3.03509 114.003 3.19496 113.928 3.37232C113.853 3.54968 113.815 3.74062 113.818 3.93314C113.74 6.16105 114.243 8.37088 115.278 10.3454C116.326 8.37795 116.845 6.17193 116.784 3.9436C116.788 3.75116 116.752 3.55999 116.678 3.38215C116.605 3.2043 116.495 3.04366 116.356 2.91035C116.217 2.77705 116.052 2.67395 115.871 2.60764C115.691 2.54132 115.498 2.51321 115.306 2.52504Z" fill="#606060"/>
<path d="M63.7384 41.7189H77.4349V37.7835C77.4748 36.9002 77.282 36.0219 76.8757 35.2365C76.4694 34.4511 75.864 33.7863 75.1199 33.3085C73.3499 32.2185 71.2947 31.6815 69.2177 31.7664C68.1051 31.7739 66.9952 31.877 65.9002 32.0744C65.7596 31.2976 65.6822 30.5105 65.6687 29.7212C65.5762 28.8007 65.846 27.8805 66.4206 27.1556C67.0832 26.5889 67.9213 26.2685 68.793 26.2487C69.6633 26.1983 70.3108 26.1721 70.7216 26.1721C73.0177 26.1195 75.295 26.596 77.3774 27.5646C79.1998 28.4318 80.7169 29.8305 81.7289 31.5766C82.7822 33.4735 83.3081 35.618 83.2519 37.7869V47.4315H63.7384V41.7189Z" fill="#606060"/>
<path d="M87.6274 51.0003C87.9763 51.0321 88.3279 50.9841 88.6556 50.8602C88.9834 50.7363 89.2787 50.5396 89.5194 50.285C89.9822 49.5458 90.1889 48.6748 90.1077 47.8064V31.4172C90.0197 30.3276 90.3337 29.2435 90.9902 28.3695C91.3899 28.0041 91.8622 27.7273 92.3763 27.5572C92.8905 27.3871 93.4348 27.3276 93.9735 27.3826C94.8054 27.3952 95.6347 27.4797 96.4521 27.635V47.8064C96.628 50.2452 95.911 52.6647 94.4348 54.6138C93.7069 55.402 92.8128 56.0183 91.8172 56.4181C90.8216 56.8179 89.7495 56.9911 88.6787 56.9252C86.8759 56.8997 85.0887 56.5878 83.3839 56.001L84.6023 50.5374C85.5906 50.8024 86.6051 50.9576 87.6274 51.0003ZM90.7796 22.8867C90.1996 22.305 89.8392 21.5404 89.7596 20.7228C89.68 19.9053 89.8862 19.0854 90.343 18.4028C90.7998 17.7202 91.4791 17.2169 92.2652 16.9787C93.0513 16.7405 93.8956 16.7821 94.6545 17.0963C95.4134 17.4106 96.04 17.9781 96.4275 18.7023C96.8151 19.4265 96.9398 20.2626 96.7803 21.0684C96.6208 21.8741 96.187 22.5997 95.5527 23.1216C94.9185 23.6436 94.123 23.9296 93.3017 23.931C92.8322 23.9383 92.3663 23.8494 91.9325 23.6698C91.4988 23.4902 91.1064 23.2237 90.7796 22.8867Z" fill="#606060"/>
</g>
<defs>
<clipPath id="clip0_1_88437">
<rect width="130.429" height="56.4257" fill="white" transform="translate(0.125366 0.5)"/>
</clipPath>
</defs>
</svg>
