<svg width="242" height="76" viewBox="0 0 242 76" fill="none" xmlns="http://www.w3.org/2000/svg">
<g clip-path="url(#clip0_4_41128)">
<path d="M219.521 45.0102C218.904 45.0275 218.29 44.921 217.715 44.6971C217.139 44.4732 216.615 44.1362 216.172 43.7062C215.729 43.2762 215.376 42.7619 215.135 42.1935C214.894 41.6251 214.77 41.0142 214.769 40.3968C214.658 36.3826 215.746 32.4265 217.896 29.0346C217.449 28.4534 216.965 27.9011 216.448 27.3811C215.928 26.8598 215.376 26.3714 214.795 25.9189C211.388 28.0453 207.425 29.1071 203.411 28.9685C202.172 28.9254 200.999 28.4018 200.139 27.5087C199.279 26.6155 198.801 25.4228 198.805 24.1832C198.81 22.9435 199.296 21.7542 200.162 20.867C201.028 19.9798 202.205 19.4644 203.444 19.4299C207.459 19.3188 211.415 20.4087 214.807 22.5599C215.387 22.1111 215.939 21.6267 216.46 21.1094C216.98 20.5881 217.468 20.0359 217.922 19.4559C215.796 16.0484 214.734 12.0843 214.873 8.07014C214.916 6.83121 215.439 5.65765 216.332 4.79797C217.226 3.93829 218.418 3.45996 219.658 3.46426C220.898 3.46856 222.087 3.95512 222.974 4.82097C223.861 5.68682 224.377 6.86396 224.411 8.10316C224.521 12.1183 223.432 16.075 221.281 19.4677C221.73 20.0485 222.214 20.6008 222.732 21.1213C223.251 21.6439 223.803 22.1322 224.385 22.5834C227.793 20.4578 231.757 19.3961 235.771 19.5339C237.01 19.5772 238.183 20.101 239.043 20.9944C239.902 21.8878 240.38 23.0806 240.376 24.3203C240.371 25.56 239.884 26.7492 239.018 27.6362C238.152 28.5232 236.975 29.0383 235.736 29.0724C231.721 29.1821 227.765 28.0923 224.373 25.9425C223.793 26.3918 223.241 26.8762 222.72 27.3929C222.199 27.9132 221.712 28.4654 221.26 29.0465C223.386 32.4531 224.447 36.4167 224.307 40.4299C224.302 41.0471 224.173 41.657 223.928 42.2237C223.683 42.7903 223.328 43.3022 222.882 43.7291C222.436 44.156 221.909 44.4893 221.332 44.7093C220.756 44.9293 220.141 45.0317 219.524 45.0102M219.571 31.6401C218.149 34.3103 217.445 37.3042 217.528 40.3283C217.568 40.8319 217.797 41.3018 218.167 41.6451C218.538 41.9883 219.024 42.1799 219.529 42.1816C220.034 42.1834 220.522 41.9954 220.895 41.6547C221.268 41.3141 221.499 40.8457 221.544 40.3424C221.647 37.319 220.964 34.3206 219.562 31.6401M217.11 24.2465C217.551 24.6244 217.98 25.0181 218.397 25.4275C218.814 25.837 219.208 26.2693 219.578 26.7244C219.954 26.2803 220.353 25.8504 220.759 25.437C221.166 25.0236 221.61 24.6291 222.056 24.2559C221.612 23.8779 221.183 23.4842 220.769 23.0748C220.355 22.6653 219.961 22.233 219.588 21.7779C219.211 22.222 218.818 22.6512 218.407 23.0654C217.996 23.4795 217.564 23.8732 217.112 24.2465M204.028 22.1819C203.858 22.1819 203.688 22.1819 203.518 22.1819C203.014 22.2224 202.544 22.4506 202.201 22.8213C201.858 23.1919 201.666 23.678 201.664 24.1832C201.662 24.6884 201.851 25.1759 202.191 25.5489C202.532 25.922 203 26.1535 203.503 26.1976C206.527 26.3019 209.526 25.619 212.206 24.2157C209.688 22.875 206.88 22.1718 204.028 22.1677M226.974 24.2677C229.644 25.691 232.638 26.3951 235.662 26.311C236.166 26.2705 236.636 26.0423 236.979 25.6716C237.322 25.301 237.514 24.8149 237.516 24.3097C237.517 23.8045 237.329 23.317 236.989 22.944C236.648 22.5709 236.18 22.3394 235.677 22.2953C232.653 22.1908 229.654 22.8737 226.974 24.2772M219.651 6.25358C219.391 6.2356 219.129 6.2719 218.883 6.36013C218.637 6.44836 218.412 6.58662 218.222 6.76621C218.033 6.94579 217.882 7.16277 217.781 7.40347C217.679 7.64417 217.628 7.90331 217.632 8.16458C217.526 11.1882 218.209 14.1872 219.614 16.867C221.036 14.1968 221.74 11.2029 221.657 8.17878C221.662 7.9176 221.613 7.65816 221.514 7.4168C221.414 7.17544 221.265 6.95742 221.076 6.77651C220.888 6.59561 220.664 6.45568 220.419 6.36568C220.173 6.27568 219.912 6.23753 219.651 6.25358Z" fill="white"/>
<path d="M149.424 54.584H168.013V49.2431C168.067 48.0443 167.805 46.8524 167.254 45.7866C166.702 44.7207 165.881 43.8185 164.871 43.1701C162.469 41.6907 159.679 40.9618 156.861 41.0769C155.351 41.0873 153.844 41.2272 152.358 41.495C152.168 40.4407 152.063 39.3728 152.044 38.3015C151.919 37.0523 152.285 35.8034 153.065 34.8196C153.963 34.0495 155.101 33.6146 156.284 33.5889C157.465 33.5204 158.344 33.4848 158.902 33.4848C162.018 33.4134 165.108 34.0601 167.935 35.3747C170.406 36.5484 172.465 38.4425 173.84 40.8079C175.27 43.3822 175.983 46.2925 175.907 49.2362V62.3249H149.424V54.584Z" fill="white"/>
<path d="M181.845 67.1802C182.319 67.2232 182.796 67.1583 183.241 66.9901C183.685 66.822 184.086 66.5549 184.413 66.2093C185.041 65.206 185.322 64.0241 185.211 62.8456V40.6031C185.092 39.1244 185.518 37.6532 186.409 36.467C186.951 35.9711 187.592 35.5954 188.29 35.3646C188.988 35.1338 189.727 35.053 190.458 35.1276C191.587 35.1447 192.712 35.2593 193.822 35.4701V62.8456C194.06 66.1553 193.087 69.4388 191.084 72.0842C190.096 73.1539 188.882 73.9903 187.531 74.5329C186.18 75.0755 184.725 75.3106 183.272 75.2212C180.825 75.1855 178.4 74.7621 176.086 73.9669L177.74 66.5518C179.081 66.9115 180.458 67.1222 181.845 67.1802ZM186.123 29.026C185.336 28.2366 184.847 27.1986 184.739 26.0891C184.631 24.9796 184.911 23.867 185.531 22.9406C186.151 22.0141 187.073 21.3313 188.139 21.008C189.206 20.6847 190.352 20.741 191.382 21.1675C192.412 21.594 193.262 22.3643 193.788 23.3472C194.314 24.33 194.483 25.4647 194.267 26.5583C194.051 27.6518 193.462 28.6366 192.601 29.3449C191.74 30.0533 190.661 30.4413 189.546 30.4433C188.909 30.453 188.277 30.3323 187.688 30.0886C187.099 29.8448 186.567 29.4832 186.123 29.026Z" fill="white"/>
<path d="M14.9398 71.4668C12.6442 71.4668 10.5051 71.0625 8.52248 70.2538C6.56599 69.4712 4.97471 68.1669 3.74865 66.3408C2.52258 64.5408 1.90954 62.2191 1.90954 59.3757C1.90954 57.7583 2.09215 56.1149 2.45736 54.4454C2.63997 53.5323 2.95301 52.8671 3.39648 52.4497C3.83995 52.0063 4.50515 51.7845 5.3921 51.7845C6.01817 51.7845 6.69642 51.8758 7.42685 52.0584C6.80077 54.3541 6.48773 56.5062 6.48773 58.5149C6.48773 64.0974 9.30508 66.8886 14.9398 66.8886C17.6267 66.8886 19.6745 66.1582 21.0831 64.6974C22.5179 63.2626 23.2353 60.9018 23.2353 57.6149V35.8196C23.2353 34.8283 23.444 34.0848 23.8614 33.5892C24.2787 33.0935 24.9831 32.8457 25.9744 32.8457C26.5222 32.8457 27.1874 32.924 27.97 33.0805V57.6149C27.97 62.2061 26.8091 65.6626 24.4874 67.9843C22.1657 70.306 18.9832 71.4668 14.9398 71.4668ZM43.4559 57.1844V61.8018H33.2822V35.8196C33.2822 34.8283 33.4909 34.0848 33.9082 33.5892C34.3256 33.0935 35.03 32.8457 36.0213 32.8457C36.5691 32.8457 37.2343 32.924 38.0169 33.0805V57.1844H43.4559ZM67.6822 52.1758C67.7865 53.9236 68.2952 55.2019 69.2082 56.0105C70.1212 56.7931 71.556 57.1844 73.5125 57.1844V61.8018C69.6778 61.8018 67.0561 60.5496 65.6474 58.0453C64.7344 59.2714 63.5996 60.2235 62.2431 60.9018C60.8866 61.5539 59.4518 61.88 57.9388 61.88C56.5823 61.88 55.2389 61.6061 53.9085 61.0583C52.578 60.5105 51.352 59.6887 50.2303 58.5931C49.4998 59.6366 48.5477 60.4322 47.3738 60.98C46.226 61.5278 44.9216 61.8018 43.4608 61.8018C42.7304 61.8018 42.1304 61.58 41.6608 61.1366C41.1652 60.667 40.9174 60.0931 40.9174 59.4148C40.9174 58.7366 41.1521 58.2018 41.6217 57.8105C42.0913 57.3931 42.7043 57.1844 43.4608 57.1844C44.2695 57.1844 44.9738 57.0149 45.5738 56.6758C46.1738 56.3105 46.6042 55.8149 46.8651 55.1888C47.0738 54.6671 47.2434 54.1584 47.3738 53.6628C47.5042 53.1671 47.6216 52.6584 47.726 52.1367C47.8825 51.3019 48.0651 50.4802 48.2738 49.6715C48.9781 46.802 50.139 44.5977 51.7563 43.0586C53.3737 41.4934 55.3563 40.7108 57.7041 40.7108C59.5562 40.7108 61.2518 41.1804 62.7909 42.1195C64.33 43.0325 65.53 44.2977 66.3909 45.9151C67.2778 47.5324 67.7213 49.3324 67.7213 51.315C67.7213 51.7063 67.7082 51.9932 67.6822 52.1758ZM57.8214 57.2627C59.2823 57.2627 60.5084 56.7279 61.4996 55.6584C62.4909 54.5888 62.9866 53.141 62.9866 51.315C62.9866 49.5933 62.4909 48.1846 61.4996 47.089C60.5084 45.9933 59.2432 45.4455 57.7041 45.4455C56.5041 45.4455 55.5128 45.8498 54.7302 46.6585C53.9737 47.4672 53.3606 48.7194 52.8911 50.415C52.578 51.5367 52.2911 52.8019 52.0302 54.2106C52.8911 55.228 53.8172 55.9975 54.8084 56.5192C55.8258 57.0149 56.8302 57.2627 57.8214 57.2627ZM94.6261 61.8018H73.496C72.7916 61.8018 72.1917 61.58 71.696 61.1366C71.2004 60.6931 70.9525 60.1453 70.9525 59.4931C70.9525 58.8409 71.2004 58.2931 71.696 57.8496C72.1917 57.4062 72.7916 57.1844 73.496 57.1844H77.1742C75.322 55.9845 74.396 54.0149 74.396 51.2758C74.396 49.1628 74.9047 47.3107 75.922 45.7194C76.9394 44.102 78.335 42.8629 80.1089 42.0021C81.8828 41.1151 83.8654 40.6717 86.0566 40.6717C87.7523 40.6717 89.5131 40.9456 91.3392 41.4934C92.0696 41.7282 92.6174 42.0151 92.9826 42.3542C93.3478 42.6934 93.5304 43.1238 93.5304 43.6455C93.5304 44.4281 93.1391 45.4194 92.3565 46.6194C91.1305 46.1498 90.0348 45.8107 89.0696 45.602C88.1305 45.3672 87.1784 45.2499 86.2132 45.2499C84.1262 45.2499 82.4176 45.8107 81.0872 46.9324C79.7828 48.0281 79.1307 49.528 79.1307 51.4324C79.1307 53.4149 79.7046 54.8758 80.8524 55.8149C82.0002 56.7279 83.7741 57.1844 86.174 57.1844H94.6261V61.8018ZM124.537 51.5889C124.537 53.5454 124.993 54.9671 125.906 55.854C126.819 56.741 128.306 57.1844 130.367 57.1844V61.8018C126.611 61.8018 124.015 60.6018 122.58 58.2018C121.719 59.3757 120.585 60.2757 119.176 60.9018C117.767 61.5018 116.15 61.8018 114.324 61.8018H99.9633V57.1844H105.95V40.0065C105.95 38.9891 106.159 38.2326 106.576 37.7369C107.02 37.2413 107.737 36.9935 108.728 36.9935C109.198 36.9935 109.915 37.0848 110.881 37.2674V57.1844H114.324C116.202 57.1844 117.585 56.741 118.472 55.854C119.359 54.941 119.802 53.5193 119.802 51.5889V35.8196C119.802 34.8283 120.011 34.0848 120.428 33.5892C120.846 33.0935 121.55 32.8457 122.541 32.8457C123.089 32.8457 123.754 32.924 124.537 33.0805V51.5889ZM112.837 34.4109H104.698V31.9457H105.598C104.998 31.3979 104.698 30.6283 104.698 29.6371C104.698 28.411 105.155 27.4458 106.068 26.7415C106.981 26.0371 108.076 25.685 109.354 25.685C109.954 25.685 110.528 25.7632 111.076 25.9197C111.807 26.1545 112.172 26.5589 112.172 27.1328C112.172 27.5762 111.937 28.1371 111.467 28.8153C110.789 28.4762 110.124 28.3066 109.472 28.3066C108.898 28.3066 108.428 28.4632 108.063 28.7762C107.724 29.0632 107.554 29.4805 107.554 30.0284C107.554 30.6023 107.75 31.0718 108.141 31.437C108.559 31.7762 109.081 31.9457 109.707 31.9457H112.837V34.4109ZM135.796 35.8196C135.796 34.8283 136.005 34.0848 136.423 33.5892C136.84 33.0935 137.544 32.8457 138.536 32.8457C139.083 32.8457 139.749 32.924 140.531 33.0805V61.8018H130.318C129.562 61.8018 128.949 61.5931 128.479 61.1757C128.01 60.7322 127.775 60.1713 127.775 59.4931C127.775 58.8148 128.01 58.267 128.479 57.8496C128.949 57.4062 129.562 57.1844 130.318 57.1844H135.796V35.8196Z" fill="white"/>
</g>
<defs>
<clipPath id="clip0_4_41128">
<rect width="241.571" height="76" fill="white"/>
</clipPath>
</defs>
</svg>
