<svg width="109" height="29" viewBox="0 0 109 29" fill="none" xmlns="http://www.w3.org/2000/svg">
<path d="M26.5815 26.1251L15.1475 26.0444L15.1681 23.1756C15.5355 22.8546 15.9647 22.4889 16.4471 22.07C16.9295 21.6511 17.436 21.2116 17.9511 20.7703L19.431 19.4845L20.6533 18.4149L21.407 17.7522L17.115 17.723C16.5947 17.7673 16.0752 17.6296 15.6454 17.3333C15.4914 17.1758 15.3735 16.9868 15.2997 16.7793C15.2259 16.5718 15.198 16.3508 15.2179 16.1315C15.2168 15.7529 15.2819 15.3769 15.4101 15.0207C15.487 14.7854 15.5805 14.556 15.69 14.334L24.7891 14.4009C25.2692 14.3831 25.7386 14.546 26.1043 14.8576C26.2836 15.0257 26.4229 15.2319 26.512 15.461C26.6012 15.6901 26.6378 15.9362 26.6193 16.1813C26.6237 16.5381 26.5343 16.8897 26.3601 17.2011C26.1342 17.5662 25.8612 17.8998 25.548 18.1934C25.4416 18.3016 25.2047 18.5076 24.8613 18.82L23.6595 19.893L22.2706 21.1206C21.8002 21.5418 21.3732 21.9138 20.9898 22.2365C20.6064 22.5593 20.3134 22.7985 20.1108 22.9542L26.609 23.0005L26.5815 26.1251Z" fill="white"/>
<path d="M28.0294 12.7359C27.6636 12.335 27.4625 11.8109 27.4664 11.2682C27.4702 10.7256 27.6786 10.2043 28.0501 9.80869C28.4418 9.4281 28.9675 9.2169 29.5136 9.22075C30.0597 9.22461 30.5824 9.4432 30.9686 9.82928C31.3334 10.2307 31.5338 10.7546 31.5299 11.2969C31.5261 11.8392 31.3184 12.3603 30.9481 12.7565C30.756 12.9484 30.5277 13.1003 30.2765 13.2033C30.0252 13.3063 29.756 13.3584 29.4844 13.3565C29.2129 13.3546 28.9444 13.2987 28.6947 13.1922C28.4449 13.0856 28.2188 12.9305 28.0294 12.7359ZM31.2416 26.158L27.5453 26.1322L27.6157 16.0528C27.602 15.8244 27.6414 15.596 27.7307 15.3854C27.8201 15.1748 27.957 14.9878 28.1308 14.839C28.5461 14.5436 29.0506 14.4005 29.5592 14.4338C29.8678 14.4374 30.1754 14.4708 30.4777 14.5334C30.7675 14.5921 31.051 14.679 31.324 14.7926L31.2416 26.158Z" fill="white"/>
<path d="M45.0387 19.9867C45.0626 21.2141 44.7899 22.4291 44.2438 23.5285C43.7544 24.4809 42.9892 25.2635 42.048 25.7741C41.0153 26.3092 39.8626 26.5705 38.7002 26.533C37.5185 26.5541 36.3512 26.2721 35.3094 25.714C34.3693 25.2071 33.5947 24.4408 33.0776 23.5062C32.5445 22.5268 32.2786 21.4242 32.3067 20.3095C32.2932 19.2016 32.562 18.1085 33.0879 17.1333C33.5721 16.2398 34.2825 15.489 35.148 14.9564C35.8611 14.5309 36.6604 14.2707 37.4873 14.195C38.3142 14.1192 39.1475 14.2298 39.926 14.5186C40.4705 14.7215 40.9631 15.0428 41.3681 15.4594L41.4093 9.64971C41.6867 9.53964 41.9742 9.45685 42.2677 9.40249C42.5665 9.34584 42.8701 9.31765 43.1742 9.31835C43.6822 9.28999 44.1842 9.43932 44.594 9.74069C44.7657 9.89184 44.9 10.0807 44.9864 10.2925C45.0728 10.5043 45.1089 10.7332 45.0919 10.9614L45.0387 19.9867ZM36.8529 18.2888C36.3724 18.8549 36.1062 19.5719 36.1009 20.3145C36.0955 21.057 36.3514 21.7778 36.8237 22.3508C37.332 22.8475 38.0131 23.128 38.7238 23.1331C39.4345 23.1382 40.1196 22.8676 40.635 22.3783C41.1125 21.8104 41.3767 21.0936 41.382 20.3516C41.3873 19.6097 41.1335 18.8892 40.6642 18.3145C40.1557 17.818 39.4744 17.5379 38.7637 17.5331C38.053 17.5283 37.3681 17.7991 36.8529 18.2888Z" fill="white"/>
<path d="M8.93071 16.7061C8.69197 16.7125 8.45435 16.6711 8.23186 16.5843C8.00937 16.4975 7.80651 16.367 7.63518 16.2007C7.46384 16.0343 7.32752 15.8353 7.23424 15.6155C7.14095 15.3956 7.09256 15.1594 7.09196 14.9205C7.04974 13.3673 7.47111 11.8366 8.30233 10.5238C7.95314 10.0749 7.54945 9.67116 7.10055 9.32197C5.78219 10.1448 4.2483 10.5555 2.69519 10.5014C2.21951 10.4792 1.77078 10.2742 1.44265 9.92905C1.11452 9.58395 0.932323 9.12546 0.934095 8.64927C0.935867 8.17307 1.12147 7.71596 1.45216 7.37331C1.78285 7.03065 2.23308 6.82894 2.70892 6.81026C4.26247 6.76781 5.79336 7.18986 7.10572 8.02235C7.33012 7.84875 7.54342 7.66123 7.74436 7.46093C7.94591 7.26087 8.13511 7.04874 8.31092 6.82572C7.48813 5.50735 7.07746 3.97346 7.13147 2.42035C7.14758 1.94084 7.34979 1.48644 7.69524 1.15348C8.0407 0.820528 8.50224 0.635166 8.98203 0.636729C9.46181 0.638291 9.92212 0.826641 10.2654 1.16184C10.6087 1.49704 10.8079 1.95274 10.8209 2.43235C10.864 3.98574 10.4426 5.51665 9.61056 6.82915C9.78365 7.05452 9.97117 7.26843 10.172 7.46953C10.3717 7.67089 10.5838 7.85953 10.8072 8.03435C12.1255 7.21156 13.6595 6.80089 15.2126 6.8549C15.6882 6.87712 16.137 7.08217 16.4651 7.42727C16.7932 7.77237 16.9754 8.23086 16.9737 8.70706C16.9719 9.18325 16.7863 9.64039 16.4556 9.98304C16.1249 10.3257 15.6746 10.5274 15.1988 10.5461C13.6464 10.5906 12.1159 10.1723 10.802 9.34429C10.3531 9.69345 9.94943 10.0971 9.60027 10.5461C10.4239 11.8642 10.8351 13.3981 10.7814 14.9515C10.779 15.1903 10.7289 15.4262 10.634 15.6454C10.539 15.8646 10.4012 16.0626 10.2285 16.2277C10.0559 16.3928 9.85204 16.5217 9.62885 16.6068C9.40566 16.6919 9.1677 16.7315 8.92898 16.7232M8.94787 11.5487C8.39683 12.5822 8.12408 13.7412 8.15641 14.912C8.16581 15.1121 8.25194 15.301 8.39692 15.4393C8.54191 15.5776 8.73459 15.6548 8.93498 15.6548C9.13537 15.6548 9.32807 15.5776 9.47306 15.4393C9.61804 15.301 9.70417 15.1121 9.71357 14.912C9.7544 13.7418 9.49055 12.5811 8.94787 11.5436M8.00017 8.6713C8.17186 8.81723 8.34353 8.97174 8.49804 9.13312C8.65256 9.2945 8.81224 9.46103 8.95646 9.63272C9.10067 9.46103 9.25517 9.28936 9.41655 9.13485C9.57793 8.98033 9.74619 8.82237 9.91788 8.67816C9.74619 8.53223 9.5745 8.37945 9.41998 8.21807C9.26547 8.05669 9.10753 7.88843 8.96332 7.71674C8.81739 7.88843 8.66288 8.06012 8.5015 8.21464C8.34012 8.36915 8.17357 8.52708 8.00017 8.6713ZM2.93725 7.87641C2.87201 7.87641 2.80679 7.87641 2.73983 7.87641C2.53966 7.88581 2.3508 7.97194 2.21247 8.11692C2.07413 8.26191 1.99695 8.45461 1.99695 8.655C1.99695 8.85539 2.07413 9.04807 2.21247 9.19306C2.3508 9.33804 2.53966 9.42417 2.73983 9.43357C3.90962 9.47404 5.06983 9.20959 6.10652 8.66616C5.13242 8.14755 4.04597 7.87577 2.94241 7.87468M11.8218 8.68675C12.855 9.23683 14.0133 9.50953 15.1834 9.47821C15.3812 9.46507 15.5665 9.37724 15.702 9.23251C15.8374 9.08778 15.9128 8.89699 15.9128 8.69878C15.9128 8.50056 15.8374 8.30975 15.702 8.16502C15.5665 8.02029 15.3812 7.93246 15.1834 7.91932C14.0137 7.88011 12.8538 8.14451 11.8167 8.68675M8.98391 1.71302C8.88306 1.70561 8.78179 1.7193 8.68653 1.7532C8.59126 1.78711 8.5041 1.84048 8.43061 1.90994C8.35712 1.97939 8.29891 2.06338 8.25968 2.15658C8.22045 2.24978 8.20105 2.35014 8.20275 2.45124C8.16166 3.62164 8.42616 4.78257 8.97018 5.81966C9.51974 4.78631 9.79184 3.62806 9.75991 2.4581C9.76226 2.35696 9.74355 2.25644 9.70498 2.16292C9.6664 2.0694 9.6088 1.98493 9.53582 1.91486C9.46285 1.8448 9.3761 1.79068 9.28109 1.75593C9.18608 1.72118 9.08487 1.70656 8.98391 1.71302Z" fill="white"/>
<path d="M48.6656 21.6381C48.6997 22.2465 48.8433 22.7405 49.0964 23.1201C49.5782 23.8307 50.4275 24.186 51.6443 24.186C52.1894 24.186 52.6859 24.1082 53.1337 23.9524C54 23.6507 54.4332 23.1104 54.4332 22.3317C54.4332 21.7476 54.2507 21.3315 53.8856 21.0832C53.5157 20.8399 52.9365 20.6282 52.1481 20.4481L50.6952 20.1196C49.7461 19.9054 49.0745 19.6693 48.6802 19.4114C47.9988 18.9636 47.6581 18.2944 47.6581 17.4037C47.6581 16.44 47.9915 15.6491 48.6583 15.031C49.3251 14.4128 50.2694 14.1038 51.491 14.1038C52.6153 14.1038 53.5693 14.3763 54.3529 14.9215C55.1414 15.4617 55.5356 16.3281 55.5356 17.5205H54.1704C54.0974 16.9462 53.9416 16.5057 53.7031 16.1991C53.2602 15.6394 52.5082 15.3595 51.4472 15.3595C50.5906 15.3595 49.9749 15.5396 49.6001 15.8998C49.2254 16.2599 49.038 16.6785 49.038 17.1555C49.038 17.6811 49.257 18.0656 49.695 18.309C49.9822 18.4647 50.632 18.6594 51.6443 18.893L53.1483 19.2362C53.8735 19.4017 54.4332 19.628 54.8274 19.9151C55.5088 20.4165 55.8495 21.1441 55.8495 22.098C55.8495 23.2856 55.4163 24.1349 54.55 24.646C53.6885 25.157 52.6859 25.4126 51.5421 25.4126C50.2085 25.4126 49.1645 25.0719 48.4101 24.3905C47.6557 23.7139 47.2858 22.7965 47.3004 21.6381H48.6656ZM60.6169 24.2518C61.4881 24.2518 62.0843 23.9232 62.4055 23.2662C62.7316 22.6042 62.8947 21.8693 62.8947 21.0613C62.8947 20.3313 62.7779 19.7375 62.5443 19.28C62.1744 18.5596 61.5368 18.1995 60.6315 18.1995C59.8284 18.1995 59.2443 18.5061 58.8793 19.1194C58.5143 19.7326 58.3318 20.4724 58.3318 21.3388C58.3318 22.1711 58.5143 22.8646 58.8793 23.4195C59.2443 23.9743 59.8235 24.2518 60.6169 24.2518ZM60.668 17.0533C61.6755 17.0533 62.5272 17.3891 63.2232 18.0608C63.9192 18.7324 64.2672 19.7205 64.2672 21.0248C64.2672 22.2854 63.9606 23.327 63.3473 24.1495C62.7341 24.9721 61.7826 25.3834 60.4928 25.3834C59.4171 25.3834 58.5629 25.0208 57.9302 24.2956C57.2975 23.5655 56.9811 22.5872 56.9811 21.3607C56.9811 20.0466 57.3145 19.0001 57.9813 18.2214C58.6481 17.4426 59.5437 17.0533 60.668 17.0533ZM65.8734 14.3739H67.1875V25.0986H65.8734V14.3739ZM70.4801 17.2796V22.4704C70.4801 22.8695 70.5434 23.1956 70.6699 23.4487C70.9036 23.9159 71.3392 24.1495 71.9768 24.1495C72.8918 24.1495 73.5148 23.7407 73.8457 22.923C74.0258 22.485 74.1159 21.8839 74.1159 21.1198V17.2796H75.43V25.0986H74.1889L74.2035 23.9451C74.0331 24.242 73.8214 24.4927 73.5683 24.6971C73.067 25.1059 72.4586 25.3104 71.7431 25.3104C70.6286 25.3104 69.8693 24.938 69.4653 24.1933C69.2463 23.7942 69.1368 23.2613 69.1368 22.5945V17.2796H70.4801ZM77.7516 15.0967H79.0803V17.2796H80.3288V18.3528H79.0803V23.456C79.0803 23.7285 79.1728 23.9111 79.3578 24.0035C79.46 24.0571 79.6303 24.0838 79.8688 24.0838C79.9321 24.0838 80.0002 24.0838 80.0732 24.0838C80.1462 24.079 80.2314 24.0717 80.3288 24.0619V25.0986C80.1779 25.1424 80.0197 25.1741 79.8542 25.1935C79.6936 25.213 79.5184 25.2227 79.3286 25.2227C78.7153 25.2227 78.2992 25.067 78.0801 24.7555C77.8611 24.4391 77.7516 24.0303 77.7516 23.529V18.3528H76.693V17.2796H77.7516V15.0967ZM81.6502 17.3161H82.9862V25.0986H81.6502V17.3161ZM81.6502 14.3739H82.9862V15.8633H81.6502V14.3739ZM88.0821 24.2518C88.9533 24.2518 89.5495 23.9232 89.8708 23.2662C90.1969 22.6042 90.3599 21.8693 90.3599 21.0613C90.3599 20.3313 90.2431 19.7375 90.0095 19.28C89.6396 18.5596 89.002 18.1995 88.0967 18.1995C87.2936 18.1995 86.7096 18.5061 86.3445 19.1194C85.9795 19.7326 85.797 20.4724 85.797 21.3388C85.797 22.1711 85.9795 22.8646 86.3445 23.4195C86.7096 23.9743 87.2888 24.2518 88.0821 24.2518ZM88.1332 17.0533C89.1407 17.0533 89.9924 17.3891 90.6884 18.0608C91.3844 18.7324 91.7324 19.7205 91.7324 21.0248C91.7324 22.2854 91.4258 23.327 90.8126 24.1495C90.1993 24.9721 89.2478 25.3834 87.958 25.3834C86.8824 25.3834 86.0282 25.0208 85.3954 24.2956C84.7627 23.5655 84.4464 22.5872 84.4464 21.3607C84.4464 20.0466 84.7797 19.0001 85.4465 18.2214C86.1133 17.4426 87.0089 17.0533 88.1332 17.0533ZM93.3021 17.2796H94.5505V18.3893C94.9204 17.9318 95.3122 17.6033 95.7259 17.4037C96.1396 17.2041 96.5996 17.1044 97.1058 17.1044C98.2155 17.1044 98.965 17.4913 99.3544 18.2652C99.5685 18.6886 99.6756 19.2946 99.6756 20.0831V25.0986H98.3396V20.1707C98.3396 19.6937 98.269 19.3092 98.1279 19.0172C97.8942 18.5304 97.4708 18.2871 96.8575 18.2871C96.546 18.2871 96.2905 18.3187 96.091 18.382C95.7308 18.4891 95.4144 18.7032 95.1419 19.0245C94.9228 19.2824 94.7793 19.5501 94.7111 19.8275C94.6479 20.1001 94.6162 20.4919 94.6162 21.0029V25.0986H93.3021V17.2796ZM102.406 22.6456C102.445 23.0836 102.555 23.4195 102.735 23.6531C103.066 24.0765 103.64 24.2883 104.458 24.2883C104.944 24.2883 105.373 24.1836 105.742 23.9743C106.112 23.7602 106.297 23.4316 106.297 22.9887C106.297 22.6529 106.149 22.3974 105.852 22.2222C105.662 22.1151 105.287 21.991 104.728 21.8498L103.684 21.587C103.017 21.4215 102.525 21.2366 102.209 21.0321C101.644 20.6768 101.362 20.1853 101.362 19.5574C101.362 18.8176 101.627 18.2189 102.158 17.7614C102.693 17.3039 103.411 17.0752 104.312 17.0752C105.489 17.0752 106.339 17.4207 106.859 18.1119C107.186 18.5499 107.344 19.022 107.334 19.5282H106.093C106.069 19.2313 105.964 18.9612 105.779 18.7178C105.477 18.3723 104.954 18.1995 104.209 18.1995C103.713 18.1995 103.336 18.2944 103.078 18.4842C102.825 18.674 102.698 18.9247 102.698 19.2362C102.698 19.5769 102.866 19.8494 103.202 20.0539C103.397 20.1755 103.684 20.2826 104.063 20.3751L104.932 20.5868C105.876 20.8156 106.509 21.037 106.83 21.2512C107.341 21.587 107.597 22.1151 107.597 22.8354C107.597 23.5314 107.332 24.1325 106.801 24.6387C106.275 25.1449 105.472 25.398 104.392 25.398C103.229 25.398 102.404 25.1351 101.917 24.6095C101.435 24.079 101.177 23.4243 101.143 22.6456H102.406Z" fill="white"/>
</svg>
