<svg width="79" height="30" viewBox="0 0 79 30" fill="none" xmlns="http://www.w3.org/2000/svg">
<g clip-path="url(#clip0_156_41168)">
<path d="M26.0761 25.6793L14.6421 25.5986L14.6627 22.7298C15.0301 22.4088 15.4593 22.0431 15.9417 21.6242C16.4242 21.2053 16.9306 20.7658 17.4457 20.3245L18.9256 19.0387L20.1479 17.9691L20.9016 17.3064L16.6096 17.2772C16.0893 17.3215 15.5699 17.1838 15.14 16.8875C14.9861 16.73 14.8681 16.541 14.7943 16.3335C14.7205 16.126 14.6926 15.905 14.7125 15.6857C14.7114 15.3071 14.7765 14.9311 14.9048 14.5749C14.9816 14.3396 15.0752 14.1102 15.1846 13.8882L24.2838 13.9551C24.7639 13.9373 25.2332 14.1002 25.5989 14.4118C25.7782 14.5799 25.9175 14.7861 26.0066 15.0152C26.0958 15.2443 26.1324 15.4904 26.1139 15.7355C26.1184 16.0923 26.029 16.4439 25.8547 16.7553C25.6289 17.1204 25.3558 17.454 25.0426 17.7476C24.9362 17.8558 24.6993 18.0618 24.3559 18.3742L23.1541 19.4472L21.7652 20.6748C21.2948 21.0954 20.8707 21.4662 20.4844 21.7907C20.0982 22.1152 19.808 22.3573 19.6054 22.5084L26.1036 22.5547L26.0761 25.6793Z" fill="white"/>
<path d="M27.5241 12.2901C27.1583 11.8892 26.9572 11.3651 26.961 10.8224C26.9648 10.2798 27.1733 9.75853 27.5447 9.36289C27.9364 8.9823 28.4621 8.7711 29.0082 8.77495C29.5544 8.77881 30.077 8.9974 30.4633 9.38348C30.828 9.78486 31.0284 10.3088 31.0246 10.8511C31.0207 11.3934 30.813 11.9145 30.4427 12.3107C30.2507 12.5026 30.0224 12.6545 29.7711 12.7575C29.5199 12.8605 29.2506 12.9126 28.9791 12.9107C28.7076 12.9088 28.4391 12.8529 28.1893 12.7464C27.9396 12.6398 27.7134 12.4847 27.5241 12.2901ZM30.7363 25.7122L27.04 25.6864L27.1104 15.607C27.0967 15.3786 27.1361 15.1502 27.2254 14.9396C27.3148 14.729 27.4517 14.542 27.6254 14.3932C28.0407 14.0978 28.5452 13.9547 29.0538 13.988C29.3624 13.9916 29.67 14.025 29.9723 14.0876C30.2622 14.1463 30.5456 14.2332 30.8187 14.3468L30.7363 25.7122Z" fill="white"/>
<path d="M44.5333 19.5409C44.5572 20.7683 44.2845 21.9833 43.7384 23.0827C43.249 24.0351 42.4838 24.8177 41.5426 25.3283C40.5099 25.8634 39.3573 26.1247 38.1948 26.0872C37.0132 26.1083 35.8458 25.8263 34.804 25.2682C33.8643 24.7608 33.0897 23.9946 32.5722 23.0604C32.0391 22.081 31.7732 20.9784 31.8013 19.8637C31.7878 18.7558 32.0566 17.6627 32.5825 16.6875C33.0667 15.794 33.7771 15.0432 34.6427 14.5106C35.356 14.0851 36.1557 13.8249 36.9828 13.7491C37.8099 13.6733 38.6435 13.784 39.4223 14.0728C39.9664 14.2765 40.4588 14.5978 40.8645 15.0136L40.9039 9.20391C41.1814 9.09384 41.4689 9.01105 41.7624 8.95669C42.0612 8.90004 42.3647 8.87185 42.6688 8.87255C43.1768 8.84419 43.6788 8.99352 44.0886 9.29489C44.2603 9.44604 44.3946 9.63493 44.481 9.84672C44.5674 10.0585 44.6035 10.2874 44.5865 10.5155L44.5333 19.5409ZM36.3475 17.843C35.867 18.4091 35.6008 19.1261 35.5955 19.8687C35.5902 20.6112 35.846 21.332 36.3183 21.905C36.8266 22.4017 37.5077 22.6822 38.2184 22.6873C38.9292 22.6924 39.6142 22.4218 40.1296 21.9324C40.6071 21.3646 40.8713 20.6478 40.8766 19.9058C40.882 19.1639 40.6281 18.4434 40.1588 17.8687C39.6503 17.3722 38.9691 17.0921 38.2584 17.0873C37.5476 17.0825 36.8627 17.3533 36.3475 17.843Z" fill="white"/>
<path d="M8.42384 16.2593C8.18511 16.2657 7.94751 16.2243 7.72502 16.1375C7.50253 16.0507 7.29965 15.9203 7.12831 15.7539C6.95698 15.5875 6.82066 15.3885 6.72737 15.1687C6.63409 14.9489 6.58573 14.7126 6.58513 14.4738C6.5429 12.9205 6.96427 11.3898 7.79549 10.077C7.44757 9.62698 7.04373 9.22311 6.59372 8.87519C5.27536 9.69799 3.74147 10.1087 2.18836 10.0547C1.71267 10.0325 1.26392 9.82738 0.935789 9.48227C0.607655 9.13717 0.425487 8.67869 0.427259 8.20249C0.429031 7.72629 0.614605 7.26918 0.945298 6.92653C1.27599 6.58388 1.72625 6.38216 2.20208 6.36348C3.75563 6.32104 5.28653 6.74308 6.59888 7.57558C6.82329 7.40197 7.03658 7.21445 7.23753 7.01416C7.43907 6.81409 7.62828 6.60196 7.80408 6.37894C6.98129 5.06058 6.57062 3.52669 6.62463 1.97358C6.64074 1.49406 6.84295 1.03966 7.18841 0.706707C7.53386 0.373751 7.9954 0.188388 8.47519 0.189951C8.95498 0.191514 9.41529 0.379864 9.75856 0.715063C10.1018 1.05026 10.3011 1.50596 10.3141 1.98558C10.358 3.53906 9.93649 5.07022 9.10373 6.38237C9.27682 6.60774 9.46434 6.82165 9.66512 7.02275C9.86486 7.2241 10.077 7.41274 10.3003 7.58757C11.6187 6.76478 13.1526 6.35411 14.7057 6.40812C15.1814 6.43034 15.6301 6.63539 15.9583 6.98049C16.2864 7.32559 16.4686 7.78408 16.4668 8.26028C16.4651 8.73648 16.2795 9.19361 15.9488 9.53627C15.6181 9.87892 15.1678 10.0806 14.692 10.0993C13.1401 10.144 11.6101 9.72568 10.2969 8.89751C10.072 9.07051 9.85808 9.25744 9.65653 9.4572C9.45502 9.65791 9.26582 9.87062 9.08997 10.0941C9.91356 11.4122 10.3249 12.9462 10.2712 14.4995C10.2688 14.7384 10.2186 14.9743 10.1237 15.1935C10.0287 15.4127 9.89089 15.6107 9.71827 15.7758C9.54566 15.9409 9.34177 16.0698 9.11858 16.1549C8.89539 16.24 8.65743 16.2795 8.41871 16.2713M8.4376 11.0968C7.88656 12.1302 7.61381 13.2893 7.64614 14.46C7.65928 14.6578 7.74709 14.8432 7.89182 14.9786C8.03654 15.1141 8.22736 15.1894 8.42557 15.1894C8.62379 15.1894 8.81458 15.1141 8.9593 14.9786C9.10403 14.8432 9.19187 14.6578 9.205 14.46C9.24444 13.2898 8.98006 12.1293 8.4376 11.0916M7.48818 8.23138C7.65986 8.37731 7.83156 8.53182 7.98607 8.6932C8.14059 8.85459 8.30025 9.02112 8.44446 9.1928C8.58867 9.02112 8.74317 8.84945 8.90455 8.69493C9.06593 8.54042 9.2342 8.38246 9.40588 8.23825C9.2342 8.09232 9.0625 7.93954 8.90798 7.77815C8.75347 7.61677 8.59554 7.44851 8.45132 7.27683C8.30539 7.44851 8.15088 7.62021 7.9895 7.77472C7.82812 7.92924 7.66158 8.08717 7.48818 8.23138ZM2.42871 7.42963C2.36347 7.42963 2.29822 7.42963 2.23127 7.42963C2.0311 7.43904 1.84223 7.52516 1.7039 7.67015C1.56557 7.81513 1.48841 8.00784 1.48841 8.20823C1.48841 8.40861 1.56557 8.6013 1.7039 8.74628C1.84223 8.89126 2.0311 8.97739 2.23127 8.98679C3.40106 9.02726 4.56126 8.76282 5.59796 8.21939C4.62216 7.70055 3.53387 7.42935 2.42871 7.42963ZM11.3081 8.2417C12.3413 8.79178 13.4995 9.06448 14.6697 9.03316C14.8674 9.02002 15.0528 8.93219 15.1883 8.78746C15.3237 8.64273 15.399 8.45192 15.399 8.2537C15.399 8.05549 15.3237 7.8647 15.1883 7.71997C15.0528 7.57524 14.8674 7.48741 14.6697 7.47427C13.5 7.43506 12.3401 7.69946 11.303 8.2417M8.47021 1.26794C8.36937 1.26054 8.26807 1.27422 8.1728 1.30813C8.07754 1.34203 7.99038 1.39541 7.91689 1.46486C7.84339 1.53432 7.78518 1.61833 7.74595 1.71153C7.70672 1.80473 7.68735 1.90509 7.68905 2.00619C7.64875 3.17652 7.91318 4.33722 8.45646 5.37458C9.00602 4.34124 9.27814 3.18301 9.24621 2.01306C9.24856 1.91192 9.22985 1.81139 9.19128 1.71787C9.1527 1.62435 9.0951 1.53986 9.02212 1.46979C8.94915 1.39972 8.8624 1.3456 8.76739 1.31085C8.67238 1.27611 8.57117 1.26149 8.47021 1.26794Z" fill="white"/>
<path d="M47.3445 13.9271H52.1703C53.1242 13.9271 53.8932 14.1973 54.4773 14.7375C55.0614 15.2729 55.3534 16.0273 55.3534 17.0007C55.3534 17.8379 55.093 18.5679 54.5722 19.1909C54.0514 19.8091 53.2508 20.1181 52.1703 20.1181H48.7974V24.6519H47.3445V13.9271ZM53.8859 17.008C53.8859 16.2196 53.5939 15.6842 53.0099 15.4019C52.6886 15.251 52.2482 15.1756 51.6884 15.1756H48.7974V18.8916H51.6884C52.3406 18.8916 52.8687 18.7529 53.2727 18.4755C53.6815 18.198 53.8859 17.7089 53.8859 17.008ZM61.8072 13.6351C63.7005 13.6351 65.1022 14.2435 66.0124 15.4603C66.723 16.4094 67.0783 17.6237 67.0783 19.1033C67.0783 20.7046 66.6719 22.0358 65.8591 23.0968C64.9051 24.3428 63.5448 24.9658 61.778 24.9658C60.128 24.9658 58.8309 24.4207 57.8867 23.3304C57.0447 22.2791 56.6237 20.9504 56.6237 19.3442C56.6237 17.8938 56.9839 16.6527 57.7042 15.6209C58.629 14.297 59.9966 13.6351 61.8072 13.6351ZM61.9532 23.6663C63.2333 23.6663 64.158 23.2088 64.7275 22.2937C65.3018 21.3738 65.589 20.3177 65.589 19.1252C65.589 17.8646 65.258 16.8498 64.5961 16.0808C63.939 15.3118 63.0386 14.9273 61.8948 14.9273C60.7851 14.9273 59.8798 15.3094 59.1789 16.0735C58.4781 16.8328 58.1276 17.9547 58.1276 19.4392C58.1276 20.6267 58.427 21.6294 59.0256 22.447C59.6292 23.2599 60.605 23.6663 61.9532 23.6663ZM69.765 21.1913C69.799 21.7997 69.9426 22.2937 70.1957 22.6734C70.6775 23.384 71.5269 23.7393 72.7436 23.7393C73.2888 23.7393 73.7852 23.6614 74.233 23.5056C75.0993 23.2039 75.5325 22.6636 75.5325 21.8849C75.5325 21.3008 75.35 20.8847 74.985 20.6365C74.6151 20.3931 74.0359 20.1814 73.2474 20.0013L71.7945 19.6728C70.8455 19.4586 70.1738 19.2226 69.7796 18.9646C69.0982 18.5168 68.7575 17.8476 68.7575 16.9569C68.7575 15.9932 69.0909 15.2023 69.7577 14.5842C70.4245 13.9661 71.3687 13.657 72.5903 13.657C73.7146 13.657 74.6686 13.9296 75.4522 14.4747C76.2407 15.0149 76.6349 15.8813 76.6349 17.0737H75.2697C75.1967 16.4994 75.0409 16.0589 74.8024 15.7523C74.3595 15.1926 73.6076 14.9127 72.5465 14.9127C71.6899 14.9127 71.0742 15.0928 70.6994 15.453C70.3247 15.8131 70.1373 16.2317 70.1373 16.7087C70.1373 17.2343 70.3563 17.6189 70.7944 17.8622C71.0815 18.018 71.7313 18.2126 72.7436 18.4463L74.2476 18.7894C74.9728 18.9549 75.5325 19.1812 75.9267 19.4684C76.6081 19.9697 76.9488 20.6973 76.9488 21.6513C76.9488 22.8388 76.5157 23.6882 75.6493 24.1992C74.7878 24.7103 73.7852 24.9658 72.6414 24.9658C71.3078 24.9658 70.2638 24.6251 69.5094 23.9437C68.755 23.2672 68.3851 22.3497 68.3997 21.1913H69.765Z" fill="white"/>
</g>
<defs>
<clipPath id="clip0_156_41168">
<rect width="78.2666" height="28.8409" fill="white" transform="translate(0.421387 0.195801)"/>
</clipPath>
</defs>
</svg>
