<svg width="117" height="62" viewBox="0 0 117 62" fill="none" xmlns="http://www.w3.org/2000/svg">
<g clip-path="url(#clip0_1_88331)">
<path d="M7.05529 35.8175C6.74774 37.0477 6.59397 38.201 6.59397 39.2774C6.59397 41.2765 7.18984 42.7758 8.38158 43.7753C9.59255 44.794 11.4474 45.3034 13.9462 45.3034H16.8007C18.6459 45.3034 20.0203 45.0535 20.9237 44.5538C21.8464 44.054 22.3077 43.3524 22.3077 42.449C22.3077 41.8723 22.1635 41.4206 21.8752 41.0939C21.5869 40.7671 21.212 40.5268 20.7507 40.373C20.3086 40.2 19.6455 40.0078 18.7613 39.7964C17.9155 39.6042 17.1659 39.412 16.5123 39.2197C15.878 39.0083 15.2437 38.7392 14.6094 38.4124C13.4753 37.7973 12.6103 37.0189 12.0145 36.077C11.4378 35.1159 11.1495 34.0299 11.1495 32.8189C11.1495 31.5119 11.5147 30.3489 12.2451 29.3302C12.9948 28.2922 14.0327 27.4849 15.359 26.9083C16.6853 26.3316 18.1846 26.0433 19.8569 26.0433C21.2601 26.0433 22.7209 26.2547 24.2394 26.6776C24.7777 26.8314 25.1813 27.0332 25.4504 27.2831C25.7387 27.533 25.8829 27.8694 25.8829 28.2922C25.8829 28.8112 25.6234 29.532 25.1044 30.4547C23.1823 29.705 21.3946 29.3302 19.7416 29.3302C18.2038 29.3302 16.964 29.6474 16.0222 30.2817C15.0995 30.916 14.6382 31.7617 14.6382 32.8189C14.6382 33.4148 14.7728 33.905 15.0419 34.2894C15.311 34.6738 15.8204 35.0486 16.57 35.4139C17.3197 35.7598 18.4345 36.1347 19.9146 36.5383C21.0294 36.8459 22.0001 37.2015 22.8267 37.6051C23.6724 38.0088 24.374 38.6047 24.9314 39.3927C25.5081 40.1808 25.7964 41.1996 25.7964 42.449C25.7964 44.3904 25.0083 45.9089 23.4321 47.0045C21.8752 48.1194 19.6647 48.6768 16.8007 48.6768H13.9462C11.9088 48.6768 10.0827 48.3693 8.46808 47.7542C6.85346 47.1583 5.56561 46.2164 4.60452 44.9286C3.66266 43.6407 3.19173 42.0261 3.19173 40.0847C3.19173 39.3735 3.26862 38.5374 3.42239 37.5763C3.53772 36.9035 3.75877 36.4134 4.08554 36.1058C4.41231 35.7791 4.90246 35.6157 5.556 35.6157C5.9981 35.6157 6.49786 35.683 7.05529 35.8175ZM11.8126 55.1641C11.2744 55.1641 10.8035 54.9623 10.3999 54.5586C10.0154 54.1742 9.8232 53.7129 9.8232 53.1747C9.8232 52.6172 10.0154 52.1463 10.3999 51.7619C10.8035 51.3774 11.2744 51.1852 11.8126 51.1852C12.3701 51.1852 12.841 51.3774 13.2254 51.7619C13.6099 52.1463 13.8021 52.6172 13.8021 53.1747C13.8021 53.7129 13.6099 54.1742 13.2254 54.5586C12.841 54.9623 12.3701 55.1641 11.8126 55.1641ZM17.0025 55.1641C16.4643 55.1641 15.9934 54.9623 15.5897 54.5586C15.2053 54.1742 15.0131 53.7129 15.0131 53.1747C15.0131 52.6172 15.2053 52.1463 15.5897 51.7619C15.9934 51.3774 16.4643 51.1852 17.0025 51.1852C17.5599 51.1852 18.0309 51.3774 18.4153 51.7619C18.7997 52.1463 18.9919 52.6172 18.9919 53.1747C18.9919 53.7129 18.7997 54.1742 18.4153 54.5586C18.0309 54.9623 17.5599 55.1641 17.0025 55.1641ZM37.5731 38.1529V41.5552H30.0767V22.4104C30.0767 21.68 30.2304 21.1322 30.538 20.767C30.8455 20.4017 31.3645 20.2191 32.0949 20.2191C32.4986 20.2191 32.9888 20.2768 33.5654 20.3921V38.1529H37.5731ZM41.6133 30.0222C41.6133 29.2918 41.767 28.7439 42.0746 28.3787C42.3821 28.0135 42.9011 27.8309 43.6315 27.8309C44.0352 27.8309 44.5253 27.8886 45.102 28.0039V41.5552H37.5767C37.0385 41.5552 36.5964 41.3918 36.2504 41.065C35.8852 40.719 35.7026 40.2962 35.7026 39.7964C35.7026 39.2966 35.8756 38.9026 36.2216 38.6143C36.5676 38.3067 37.0193 38.1529 37.5767 38.1529H41.6133V30.0222ZM42.0169 48.129C41.4787 48.129 41.0078 47.9272 40.6041 47.5235C40.2197 47.1391 40.0275 46.6777 40.0275 46.1395C40.0275 45.5821 40.2197 45.1112 40.6041 44.7267C41.0078 44.3423 41.4787 44.1501 42.0169 44.1501C42.5744 44.1501 43.0453 44.3423 43.4297 44.7267C43.8141 45.1112 44.0064 45.5821 44.0064 46.1395C44.0064 46.6777 43.8141 47.1391 43.4297 47.5235C43.0453 47.9272 42.5744 48.129 42.0169 48.129Z" fill="white"/>
<path d="M101.206 31.0857C100.751 31.0985 100.298 31.0201 99.8744 30.8551C99.4505 30.6901 99.0639 30.4418 98.7374 30.1249C98.411 29.8081 98.1514 29.429 97.9738 29.0102C97.7963 28.5914 97.7044 28.1413 97.7037 27.6864C97.6219 24.7286 98.4243 21.8136 100.008 19.3143C99.6786 18.886 99.3223 18.479 98.9412 18.0958C98.5574 17.7122 98.1506 17.3523 97.7228 17.0184C95.2131 18.586 92.2924 19.3685 89.3351 19.2655C88.4222 19.2338 87.5574 18.848 86.924 18.1899C86.2905 17.5317 85.9381 16.6529 85.9412 15.7394C85.9444 14.826 86.3029 13.9497 86.9409 13.296C87.5789 12.6423 88.4463 12.2624 89.3594 12.237C92.3173 12.156 95.2323 12.959 97.7315 14.5433C98.1598 14.2132 98.5668 13.8562 98.9499 13.4746C99.3336 13.0908 99.6934 12.684 100.027 12.2563C98.46 9.74574 97.6776 6.82456 97.7803 3.86673C97.812 2.95383 98.1978 2.08905 98.8559 1.4556C99.514 0.822153 100.393 0.469755 101.306 0.472922C102.22 0.476089 103.096 0.834603 103.75 1.4726C104.404 2.1106 104.783 2.97796 104.809 3.89106C104.89 6.84961 104.087 9.76515 102.502 12.2649C102.833 12.6929 103.19 13.0998 103.571 13.4833C103.954 13.8684 104.361 14.2283 104.79 14.5607C107.3 12.9942 110.221 12.2125 113.179 12.3154C114.087 12.3537 114.946 12.7423 115.574 13.3997C116.202 14.0571 116.55 14.9322 116.547 15.8413C116.544 16.7504 116.188 17.6229 115.555 18.2756C114.923 18.9283 114.062 19.3106 113.153 19.3421C110.195 19.4235 107.28 18.6211 104.781 17.0375C104.353 17.368 103.946 17.7244 103.562 18.1045C103.179 18.4879 102.82 18.8948 102.487 19.323C104.053 21.8337 104.835 24.7548 104.732 27.7124C104.728 28.1671 104.633 28.6163 104.452 29.0337C104.272 29.451 104.01 29.828 103.681 30.1423C103.353 30.4567 102.965 30.7022 102.54 30.8642C102.115 31.0262 101.662 31.1015 101.207 31.0857M101.242 21.234C100.195 23.2017 99.6761 25.4076 99.7366 27.6359C99.7665 28.007 99.9347 28.3532 100.208 28.6062C100.481 28.8591 100.839 29.0002 101.211 29.0015C101.584 29.0028 101.943 28.8643 102.218 28.6133C102.493 28.3623 102.663 28.0172 102.696 27.6463C102.772 25.4186 102.269 23.2091 101.235 21.234M99.4286 15.7879C99.7535 16.064 100.07 16.3541 100.377 16.6581C100.685 16.9622 100.975 17.2801 101.247 17.6119C101.524 17.2864 101.818 16.9697 102.118 16.6634C102.417 16.357 102.744 16.0681 103.073 15.7931C102.746 15.5163 102.429 15.2222 102.125 14.9228C101.82 14.6234 101.528 14.2961 101.254 13.9689C100.978 14.2944 100.685 14.6112 100.384 14.9158C100.083 15.2204 99.7593 15.5128 99.4303 15.7861M89.7893 14.2631C89.664 14.2631 89.5387 14.2631 89.4133 14.2631C89.0423 14.2929 88.696 14.4611 88.4431 14.7342C88.1902 15.0073 88.0491 15.3655 88.0477 15.7377C88.0464 16.11 88.185 16.4692 88.436 16.7441C88.687 17.019 89.0321 17.1896 89.4029 17.222C91.6308 17.2997 93.8406 16.7965 95.8152 15.7617C93.9601 14.7738 91.8911 14.2556 89.7893 14.2527M106.697 15.8C108.664 16.8487 110.871 17.3676 113.099 17.3057C113.47 17.2758 113.816 17.1076 114.069 16.8345C114.322 16.5614 114.463 16.2031 114.465 15.8309C114.466 15.4586 114.327 15.0995 114.076 14.8246C113.825 14.5497 113.48 14.3791 113.109 14.3467C110.882 14.2704 108.672 14.7736 106.697 15.807M101.301 2.52646C101.109 2.5132 100.917 2.53996 100.735 2.60497C100.554 2.66998 100.388 2.7718 100.249 2.90413C100.109 3.03645 99.9978 3.19633 99.9229 3.37369C99.848 3.55105 99.8106 3.7421 99.8132 3.93461C99.7352 6.16255 100.238 8.37236 101.274 10.3468C102.322 8.37937 102.841 6.17337 102.779 3.94502C102.783 3.75258 102.747 3.56141 102.674 3.38357C102.6 3.20572 102.49 3.04508 102.351 2.91178C102.212 2.77847 102.047 2.67543 101.867 2.60911C101.686 2.54279 101.494 2.51463 101.301 2.52646Z" fill="white"/>
<path d="M49.7297 41.7191H63.4263V37.7854C63.4662 36.9021 63.2733 36.0238 62.8671 35.2384C62.4608 34.4531 61.8553 33.7883 61.1113 33.3105C59.3414 32.2198 57.2863 31.6822 55.2091 31.7665C54.0964 31.7742 52.9865 31.8772 51.8915 32.0746C51.751 31.2978 51.6735 30.5108 51.66 29.7214C51.5677 28.8015 51.8374 27.8818 52.412 27.1575C53.0738 26.5894 53.9124 26.2689 54.7844 26.2507C55.6547 26.1985 56.3022 26.1724 56.7129 26.1724C59.009 26.1198 61.2864 26.5962 63.3688 27.5648C65.1908 28.4325 66.7078 29.8311 67.7202 31.5768C68.7736 33.4743 69.2995 35.6194 69.2432 37.7889V47.4334H49.7297V41.7191Z" fill="white"/>
<path d="M73.6187 50.9998C73.9677 51.0315 74.3193 50.9837 74.647 50.8598C74.9747 50.7359 75.2701 50.5392 75.5107 50.2845C75.9738 49.5454 76.1805 48.6743 76.099 47.8059V31.4167C76.011 30.3277 76.325 29.2441 76.9815 28.3707C77.3811 28.005 77.8533 27.7279 78.3675 27.5575C78.8816 27.3871 79.426 27.3274 79.9648 27.3821C80.7967 27.3956 81.6259 27.4801 82.4434 27.6345V47.8059C82.6193 50.2447 81.9024 52.6642 80.4261 54.6133C79.6985 55.4018 78.8044 56.0183 77.8087 56.4181C76.8131 56.818 75.7409 56.9911 74.67 56.9248C72.8673 56.8993 71.08 56.5873 69.3753 56.0005L70.5936 50.5386C71.5821 50.8023 72.5966 50.9569 73.6187 50.9998ZM76.7709 22.8862C76.1919 22.3049 75.8321 21.541 75.7529 20.7244C75.6736 19.9078 75.8798 19.0889 76.3362 18.4071C76.7926 17.7253 77.4712 17.2228 78.2564 16.9849C79.0416 16.7471 79.885 16.7886 80.643 17.1025C81.4011 17.4164 82.027 17.9832 82.4142 18.7066C82.8014 19.4299 82.9261 20.265 82.7669 21.0699C82.6078 21.8748 82.1746 22.5997 81.5413 23.1212C80.9079 23.6427 80.1135 23.9287 79.293 23.9305C78.8236 23.9378 78.3576 23.8489 77.9239 23.6693C77.4901 23.4897 77.0978 23.2232 76.7709 22.8862Z" fill="white"/>
</g>
<defs>
<clipPath id="clip0_1_88331">
<rect width="116.505" height="60.8102" fill="white" transform="translate(0.049881 0.5)"/>
</clipPath>
</defs>
</svg>
