<svg width="110" height="30" viewBox="0 0 110 30" fill="none" xmlns="http://www.w3.org/2000/svg">
<g clip-path="url(#clip0_156_41178)">
<path d="M26.0603 25.674L14.6279 25.5933L14.6485 22.7244C15.0159 22.404 15.4423 22.0354 15.9276 21.6188C16.4129 21.2022 16.9136 20.769 17.4298 20.3192L18.9097 19.0333L20.1338 17.9637L20.8858 17.301L16.5937 17.2718C16.0735 17.3156 15.5542 17.1779 15.1241 16.8821C14.9704 16.7245 14.8528 16.5355 14.7792 16.328C14.7057 16.1205 14.6781 15.8995 14.6983 15.6803C14.6967 15.3018 14.7612 14.9259 14.8889 14.5695C14.9658 14.3343 15.0593 14.1048 15.1687 13.8828L24.2679 13.9498C24.7485 13.932 25.2184 14.0949 25.5847 14.4064C25.764 14.5746 25.9034 14.7808 25.9925 15.0098C26.0816 15.2389 26.1183 15.485 26.0998 15.7301C26.1036 16.087 26.0136 16.4387 25.8388 16.7499C25.6131 17.1146 25.3407 17.4482 25.0285 17.7422C24.9203 17.8504 24.6851 18.0564 24.3418 18.3689L23.14 19.4419L21.7527 20.6694C21.2823 21.0906 20.8554 21.4626 20.472 21.7854C20.0886 22.1081 19.7956 22.3473 19.593 22.503L26.0912 22.5493L26.0603 25.674Z" fill="white"/>
<path d="M27.5079 12.2847C27.141 11.8844 26.9391 11.3601 26.9429 10.8171C26.9467 10.274 27.156 9.75259 27.5285 9.35751C27.9202 8.97693 28.4459 8.76573 28.992 8.76958C29.5382 8.77344 30.0608 8.99203 30.4471 9.37811C30.8123 9.77934 31.0129 10.3035 31.0088 10.8461C31.0046 11.3886 30.7961 11.9097 30.4248 12.3053C30.2362 12.5044 30.0072 12.661 29.7531 12.7643C29.4991 12.8677 29.2258 12.9154 28.9517 12.9045C28.6808 12.9101 28.4118 12.8577 28.1628 12.7508C27.9138 12.6439 27.6905 12.485 27.5079 12.2847ZM30.7201 25.7068L27.0238 25.6811L27.0925 15.6016C27.0796 15.3733 27.1193 15.1452 27.2086 14.9347C27.2979 14.7243 27.4344 14.5371 27.6075 14.3878C28.0229 14.0927 28.5273 13.9496 29.0359 13.9826C29.3445 13.9861 29.6521 14.0195 29.9544 14.0822C30.2448 14.141 30.5288 14.2278 30.8025 14.3415L30.7201 25.7068Z" fill="white"/>
<path d="M44.519 19.5355C44.5446 20.7631 44.2718 21.9785 43.7241 23.0773C43.2347 24.0297 42.4695 24.8123 41.5283 25.323C40.4956 25.858 39.343 26.1193 38.1805 26.0818C36.9989 26.1027 35.8316 25.8207 34.7898 25.2629C33.8504 24.7549 33.076 23.9888 32.5579 23.055C32.0258 22.0752 31.76 20.973 31.787 19.8583C31.7735 18.7504 32.0424 17.6574 32.5682 16.6822C33.0534 15.7893 33.7636 15.0388 34.6284 14.5052C35.3417 14.0797 36.1414 13.8195 36.9685 13.7437C37.7957 13.668 38.6293 13.7786 39.4081 14.0674C39.9524 14.2707 40.4449 14.592 40.8502 15.0083L40.8896 9.19854C41.1672 9.0888 41.4546 9.00601 41.7481 8.95132C42.0469 8.89456 42.3504 8.86637 42.6546 8.86718C43.1625 8.83882 43.6645 8.98815 44.0744 9.28952C44.246 9.44059 44.3803 9.6295 44.4664 9.84135C44.5525 10.0532 44.5881 10.2822 44.5705 10.5102L44.519 19.5355ZM36.3349 17.8376C35.8549 18.4038 35.5888 19.1206 35.5831 19.863C35.5775 20.6053 35.8326 21.3261 36.304 21.8996C36.8124 22.3969 37.4939 22.6776 38.205 22.6827C38.9162 22.6878 39.6016 22.417 40.1171 21.9271C40.5946 21.3592 40.8587 20.6424 40.8641 19.9005C40.8694 19.1586 40.6155 18.438 40.1463 17.8633C39.6377 17.3668 38.9565 17.0867 38.2458 17.0819C37.535 17.0771 36.8501 17.348 36.3349 17.8376Z" fill="white"/>
<path d="M8.41197 16.2571C8.17318 16.2637 7.93548 16.2225 7.71289 16.1358C7.49029 16.0491 7.2873 15.9187 7.11592 15.7523C6.94454 15.5858 6.80826 15.3868 6.71505 15.1668C6.62185 14.9469 6.57364 14.7105 6.57328 14.4716C6.52682 12.919 6.94528 11.3879 7.77502 10.0748C7.60099 9.85022 7.41352 9.63637 7.21363 9.43444C7.01389 9.23308 6.80174 9.04441 6.57841 8.86959C5.25997 9.69219 3.72611 10.1028 2.17303 10.049C1.69735 10.027 1.24858 9.82219 0.920301 9.47725C0.592021 9.1323 0.409592 8.67391 0.411143 8.19772C0.412693 7.72154 0.59806 7.26433 0.928579 6.92153C1.2591 6.57872 1.70926 6.3768 2.18508 6.35788C3.73863 6.31543 5.26952 6.73745 6.58187 7.56995C6.80683 7.39636 7.02069 7.20886 7.22222 7.00855C7.42322 6.80847 7.61187 6.59635 7.78707 6.37333C6.96496 5.05468 6.55432 3.521 6.6076 1.96797C6.62961 1.49229 6.83447 1.04348 7.17942 0.715197C7.52436 0.386917 7.98278 0.204514 8.45897 0.206064C8.93515 0.207615 9.39231 0.393008 9.73511 0.723527C10.0779 1.05405 10.2798 1.50416 10.2988 1.97997C10.3435 3.53237 9.92522 5.06298 9.09701 6.37677C9.27001 6.60171 9.45692 6.81559 9.65668 7.01714C9.8574 7.2181 10.0701 7.40671 10.2936 7.58197C11.6119 6.75889 13.1459 6.3482 14.699 6.40252C15.1747 6.42474 15.6234 6.62979 15.9515 6.97489C16.2797 7.31999 16.4619 7.77848 16.4601 8.25467C16.4583 8.73087 16.2727 9.18801 15.942 9.53066C15.6114 9.87331 15.1611 10.075 14.6853 10.0937C13.1329 10.1385 11.6023 9.72011 10.2885 8.89191C9.83848 9.23983 9.43461 9.64367 9.08669 10.0937C9.90968 11.412 10.3204 12.9459 10.2662 14.4991C10.264 14.7378 10.2141 14.9738 10.1193 15.1929C10.0245 15.4121 9.8869 15.6101 9.71442 15.7752C9.54193 15.9403 9.33813 16.0692 9.11504 16.1544C8.89194 16.2395 8.65406 16.2791 8.41543 16.2708M8.43261 11.0963C7.88284 12.1302 7.61069 13.289 7.64284 14.4596C7.65224 14.6597 7.73839 14.8486 7.88337 14.9869C8.02836 15.1253 8.22106 15.2024 8.42145 15.2024C8.62184 15.2024 8.8145 15.1253 8.95948 14.9869C9.10446 14.8486 9.19062 14.6597 9.20002 14.4596C9.24032 13.2892 8.97589 12.1285 8.43261 11.0912M7.48492 8.23094C7.6566 8.37687 7.82825 8.53138 7.98276 8.69276C8.13728 8.85414 8.29526 9.02067 8.43948 9.19236C8.58541 9.02067 8.73989 8.849 8.90127 8.69449C9.06265 8.53998 9.22917 8.38202 9.40257 8.2378C9.23089 8.09187 9.05923 7.93907 8.903 7.77769C8.74677 7.6163 8.59055 7.44807 8.44634 7.27639C8.30041 7.44807 8.1476 7.61974 7.98622 7.77425C7.82484 7.92877 7.6566 8.08673 7.48492 8.23094ZM2.41854 7.42746C2.35158 7.42746 2.28636 7.42746 2.22112 7.42746C2.02095 7.43686 1.83212 7.52299 1.69378 7.66797C1.55545 7.81296 1.47824 8.00566 1.47824 8.20605C1.47824 8.40644 1.55545 8.59912 1.69378 8.74411C1.83212 8.88909 2.02095 8.97522 2.22112 8.98462C3.39144 9.02484 4.55215 8.76041 5.58954 8.21721C4.61528 7.699 3.52891 7.42724 2.4254 7.42573M11.3048 8.2378C12.3379 8.78811 13.4962 9.06081 14.6664 9.02926C14.8642 9.01612 15.0495 8.92829 15.185 8.78356C15.3204 8.63883 15.3958 8.44804 15.3958 8.24983C15.3958 8.05161 15.3204 7.8608 15.185 7.71607C15.0495 7.57134 14.8642 7.48351 14.6664 7.47037C13.4967 7.43077 12.3367 7.69519 11.2997 8.2378M8.46693 1.26407C8.36595 1.25641 8.26444 1.26991 8.16897 1.3037C8.0735 1.3375 7.98613 1.39083 7.91245 1.46031C7.83877 1.52979 7.78041 1.61389 7.74107 1.70721C7.70174 1.80054 7.68235 1.90103 7.68407 2.00229C7.64377 3.17261 7.9082 4.33334 8.45147 5.37071C9.00155 4.33749 9.27425 3.17926 9.24293 2.00915C9.24528 1.90801 9.22655 1.80749 9.18797 1.71397C9.14939 1.62045 9.09182 1.53598 9.01884 1.46591C8.94587 1.39585 8.85912 1.34173 8.76411 1.30698C8.66909 1.27223 8.56789 1.25761 8.46693 1.26407Z" fill="white"/>
<path d="M52.7017 20.2563L51.0737 15.5182L49.3434 20.2563H52.7017ZM50.3144 13.9266H51.9571L55.8483 24.6514H54.2568L53.169 21.4391H48.9273L47.7665 24.6514H46.2771L50.3144 13.9266ZM60.0097 16.606C60.8907 16.606 61.6062 16.8202 62.1561 17.2485C62.711 17.6768 63.0444 18.4141 63.1563 19.4606H61.8787C61.8008 18.9787 61.6232 18.5796 61.3458 18.2633C61.0683 17.942 60.623 17.7814 60.0097 17.7814C59.1726 17.7814 58.5739 18.1903 58.2138 19.0079C57.9801 19.5384 57.8633 20.1931 57.8633 20.9718C57.8633 21.7554 58.0288 22.4149 58.3598 22.9503C58.6907 23.4857 59.2115 23.7534 59.9221 23.7534C60.4672 23.7534 60.898 23.5879 61.2144 23.2569C61.5356 22.9211 61.757 22.4636 61.8787 21.8844H63.1563C63.0103 22.9211 62.6453 23.6804 62.0612 24.1622C61.4772 24.6392 60.7301 24.8777 59.8199 24.8777C58.7978 24.8777 57.9826 24.5054 57.3742 23.7607C56.7658 23.0111 56.4616 22.0767 56.4616 20.9572C56.4616 19.5847 56.795 18.5163 57.4618 17.7522C58.1286 16.9881 58.9779 16.606 60.0097 16.606ZM65.478 22.5707C65.478 22.9503 65.6167 23.2496 65.8941 23.4687C66.1715 23.6877 66.5001 23.7972 66.8797 23.7972C67.3421 23.7972 67.7898 23.6901 68.223 23.476C68.9531 23.1207 69.3181 22.539 69.3181 21.7311V20.6725C69.1575 20.7747 68.9507 20.8599 68.6976 20.928C68.4445 20.9962 68.1963 21.0448 67.9529 21.074L67.1571 21.1762C66.6801 21.2395 66.3224 21.3393 66.0839 21.4756C65.6799 21.7043 65.478 22.0694 65.478 22.5707ZM68.6611 19.9132C68.9628 19.8743 69.1648 19.7477 69.267 19.5336C69.3254 19.4168 69.3546 19.2489 69.3546 19.0298C69.3546 18.5821 69.194 18.2584 68.8728 18.0588C68.5564 17.8544 68.1013 17.7522 67.5076 17.7522C66.8213 17.7522 66.3346 17.9372 66.0474 18.3071C65.8868 18.5115 65.7822 18.8157 65.7335 19.2196H64.507C64.5313 18.256 64.8428 17.5867 65.4415 17.212C66.045 16.8323 66.7434 16.6425 67.5368 16.6425C68.4566 16.6425 69.2037 16.8177 69.7781 17.1682C70.3475 17.5186 70.6323 18.0637 70.6323 18.8035V23.308C70.6323 23.4443 70.659 23.5538 70.7126 23.6366C70.771 23.7193 70.8902 23.7607 71.0703 23.7607C71.1287 23.7607 71.1944 23.7582 71.2674 23.7534C71.3404 23.7436 71.4183 23.7315 71.501 23.7169V24.6879C71.2966 24.7463 71.1409 24.7828 71.0338 24.7974C70.9267 24.812 70.7807 24.8193 70.5957 24.8193C70.1431 24.8193 69.8146 24.6587 69.6102 24.3374C69.5031 24.1671 69.4276 23.9262 69.3838 23.6147C69.1161 23.9651 68.7316 24.2693 68.2303 24.5273C67.729 24.7852 67.1766 24.9142 66.5731 24.9142C65.8479 24.9142 65.2541 24.6952 64.7917 24.2571C64.3342 23.8142 64.1054 23.2618 64.1054 22.5999C64.1054 21.8747 64.3317 21.3125 64.7844 20.9134C65.237 20.5143 65.8308 20.2685 66.5658 20.176L68.6611 19.9132ZM73.6255 20.8331C73.6255 21.6702 73.8032 22.3711 74.1585 22.9357C74.5138 23.5003 75.0832 23.7826 75.8669 23.7826C76.4752 23.7826 76.9741 23.5222 77.3635 23.0014C77.7577 22.4758 77.9548 21.7238 77.9548 20.7455C77.9548 19.7575 77.7529 19.0274 77.3489 18.5553C76.9449 18.0783 76.446 17.8398 75.8522 17.8398C75.1903 17.8398 74.6525 18.0929 74.2388 18.5991C73.83 19.1053 73.6255 19.8499 73.6255 20.8331ZM75.604 16.6936C76.2027 16.6936 76.704 16.8202 77.108 17.0732C77.3416 17.2193 77.6068 17.4748 77.9037 17.8398V13.8901H79.1668V24.6514H77.9841V23.5636C77.6774 24.0454 77.3148 24.3934 76.8962 24.6076C76.4777 24.8217 75.9983 24.9288 75.458 24.9288C74.5868 24.9288 73.8324 24.5638 73.1948 23.8337C72.5572 23.0988 72.2384 22.1229 72.2384 20.9061C72.2384 19.7672 72.528 18.7816 73.1072 17.9493C73.6912 17.1122 74.5235 16.6936 75.604 16.6936ZM84.3722 16.6571C84.927 16.6571 85.4648 16.7885 85.9856 17.0513C86.5064 17.3093 86.9031 17.6451 87.1756 18.0588C87.4385 18.4531 87.6137 18.913 87.7013 19.4387C87.7792 19.7988 87.8181 20.3732 87.8181 21.1616H82.087C82.1114 21.955 82.2988 22.5926 82.6492 23.0744C82.9996 23.5514 83.5423 23.7899 84.2773 23.7899C84.9635 23.7899 85.5111 23.5636 85.9199 23.1109C86.1535 22.8481 86.319 22.5439 86.4164 22.1983H87.7086C87.6745 22.4855 87.5601 22.8067 87.3654 23.162C87.1756 23.5125 86.9615 23.7996 86.723 24.0235C86.3239 24.4129 85.8299 24.6757 85.2409 24.812C84.9246 24.8899 84.5668 24.9288 84.1677 24.9288C83.1943 24.9288 82.3693 24.5759 81.6928 23.8702C81.0163 23.1596 80.678 22.1667 80.678 20.8915C80.678 19.6358 81.0187 18.6161 81.7001 17.8325C82.3815 17.0489 83.2722 16.6571 84.3722 16.6571ZM86.4675 20.1176C86.4139 19.5482 86.2898 19.0931 86.0951 18.7524C85.735 18.1197 85.1339 17.8033 84.2919 17.8033C83.6883 17.8033 83.1821 18.0223 82.7733 18.4604C82.3645 18.8936 82.1479 19.446 82.1235 20.1176H86.4675ZM89.4388 16.8323H90.7384V17.942C91.0499 17.5575 91.3322 17.2777 91.5852 17.1024C92.0184 16.8056 92.51 16.6571 93.06 16.6571C93.683 16.6571 94.1843 16.8104 94.5639 17.117C94.7781 17.2923 94.9728 17.5502 95.148 17.8909C95.44 17.4723 95.7831 17.1633 96.1774 16.9637C96.5716 16.7593 97.0145 16.6571 97.5061 16.6571C98.5574 16.6571 99.2729 17.0367 99.6525 17.796C99.8569 18.2049 99.9591 18.7548 99.9591 19.446V24.6514H98.5939V19.2196C98.5939 18.6989 98.4625 18.3411 98.1997 18.1464C97.9417 17.9518 97.6254 17.8544 97.2506 17.8544C96.7347 17.8544 96.2893 18.0272 95.9146 18.3728C95.5447 18.7183 95.3597 19.2951 95.3597 20.103V24.6514H94.0237V19.5482C94.0237 19.0177 93.9604 18.6307 93.8339 18.3874C93.6343 18.0223 93.262 17.8398 92.7169 17.8398C92.2204 17.8398 91.7678 18.0321 91.3589 18.4166C90.955 18.8011 90.753 19.4971 90.753 20.5046V24.6514H89.4388V16.8323ZM106.778 16.8323H108.231C108.046 17.3336 107.635 18.4774 106.997 20.2636C106.52 21.607 106.121 22.7021 105.8 23.549C105.04 25.5445 104.505 26.7613 104.194 27.1993C103.882 27.6374 103.347 27.8564 102.587 27.8564C102.402 27.8564 102.259 27.8491 102.157 27.8345C102.059 27.8199 101.938 27.7931 101.792 27.7542V26.5568C102.02 26.6201 102.186 26.6591 102.288 26.6737C102.39 26.6883 102.48 26.6956 102.558 26.6956C102.802 26.6956 102.979 26.6542 103.091 26.5715C103.208 26.4936 103.305 26.3962 103.383 26.2794C103.408 26.2405 103.495 26.0409 103.646 25.6808C103.797 25.3206 103.906 25.0529 103.975 24.8777L101.083 16.8323H102.573L104.668 23.1985L106.778 16.8323Z" fill="white"/>
</g>
<defs>
<clipPath id="clip0_156_41178">
<rect width="109.169" height="28.8409" fill="white" transform="translate(0.409668 0.195801)"/>
</clipPath>
</defs>
</svg>
