<svg width="104" height="33" viewBox="0 0 104 33" fill="none" xmlns="http://www.w3.org/2000/svg">
<g clip-path="url(#clip0_81_426)">
<path d="M6.95048 24.2152V26.144H5.33224C5.33224 27.3427 5.1034 28.2309 4.64572 28.8084C4.18803 29.386 3.48516 29.6747 2.5371 29.6747C2.00314 29.6747 1.40924 29.5876 0.755409 29.4132L1.1804 27.5988C1.65988 27.7187 2.03583 27.7786 2.30826 27.7786C2.68967 27.7786 2.95665 27.6533 3.10921 27.4027C3.27267 27.1629 3.3544 26.7434 3.3544 26.144V19.6057C3.3544 19.1916 3.44157 18.881 3.61593 18.674C3.79028 18.467 4.08451 18.3634 4.4986 18.3634C4.72744 18.3634 5.00532 18.3961 5.33224 18.4615V24.2152H6.95048ZM4.30245 17.1865C3.99733 17.1865 3.73035 17.0776 3.50151 16.8596C3.28356 16.6308 3.17459 16.3638 3.17459 16.0587C3.17459 15.7427 3.28356 15.4757 3.50151 15.2577C3.73035 15.0398 3.99733 14.9308 4.30245 14.9308C4.61847 14.9308 4.88545 15.0398 5.1034 15.2577C5.32134 15.4757 5.43031 15.7427 5.43031 16.0587C5.43031 16.3638 5.32134 16.6308 5.1034 16.8596C4.88545 17.0776 4.61847 17.1865 4.30245 17.1865ZM10.2181 16.9904C9.91299 16.9904 9.646 16.8814 9.41716 16.6635C9.19922 16.4346 9.09025 16.1676 9.09025 15.8625C9.09025 15.5465 9.19922 15.2795 9.41716 15.0616C9.646 14.8436 9.91299 14.7347 10.2181 14.7347C10.5341 14.7347 10.8011 14.8436 11.0191 15.0616C11.237 15.2795 11.346 15.5465 11.346 15.8625C11.346 16.1676 11.237 16.4346 11.0191 16.6635C10.8011 16.8814 10.5341 16.9904 10.2181 16.9904ZM11.2152 21.8778C11.2152 22.6951 11.4059 23.289 11.7873 23.6595C12.1687 24.03 12.7899 24.2152 13.6507 24.2152V26.144C12.0815 26.144 10.9973 25.6428 10.3979 24.6402C10.0383 25.1306 9.56428 25.5066 8.97583 25.7681C8.38738 26.0187 7.71175 26.144 6.94894 26.144C6.64382 26.144 6.39319 26.0514 6.19704 25.8662C5.98999 25.67 5.88647 25.4303 5.88647 25.1469C5.88647 24.8636 5.98454 24.6402 6.18069 24.4768C6.37684 24.3024 6.63292 24.2152 6.94894 24.2152C7.73354 24.2152 8.3111 24.03 8.6816 23.6595C9.05211 23.2781 9.23736 22.6842 9.23736 21.8778V19.6057C9.23736 19.1916 9.32454 18.881 9.49889 18.674C9.67325 18.467 9.96747 18.3634 10.3816 18.3634C10.6104 18.3634 10.8883 18.3961 11.2152 18.4615V21.8778ZM26.7299 18.4779C26.7299 18.1291 26.828 17.8404 27.0242 17.6115C27.2203 17.3718 27.5472 17.2519 28.0049 17.2519C28.1793 17.2519 28.4136 17.2792 28.7078 17.3336V26.144H25.5857C24.1364 26.144 23.123 25.67 22.5454 24.722C22.2294 25.1796 21.8262 25.5338 21.3358 25.7844C20.8454 26.0242 20.3006 26.144 19.7012 26.144C18.4808 26.144 17.609 25.6537 17.0859 24.6729C16.7154 25.1524 16.2359 25.5175 15.6475 25.7681C15.0699 26.0187 14.4052 26.144 13.6533 26.144C13.3373 26.144 13.0812 26.0569 12.885 25.8825C12.6889 25.6973 12.5908 25.463 12.5908 25.1796C12.5908 24.8963 12.6889 24.6675 12.885 24.4931C13.0812 24.3079 13.3373 24.2152 13.6533 24.2152C14.4379 24.2152 15.0154 24.03 15.3859 23.6595C15.7564 23.2781 15.9417 22.6842 15.9417 21.8778V19.0173C15.9417 18.6686 16.0398 18.3798 16.2359 18.1509C16.4321 17.9112 16.759 17.7913 17.2167 17.7913C17.391 17.7913 17.6253 17.8186 17.9195 17.8731V21.8778C17.9195 22.6515 18.0721 23.2345 18.3772 23.6268C18.6824 24.0191 19.1237 24.2152 19.7012 24.2152C20.2243 24.2152 20.6275 24.0245 20.9108 23.6431C21.1942 23.2508 21.3358 22.6624 21.3358 21.8778V19.0173C21.3358 18.6686 21.4339 18.3798 21.63 18.1509C21.8262 17.9112 22.1531 17.7913 22.6108 17.7913C22.7852 17.7913 23.0194 17.8186 23.3137 17.8731V21.8778C23.3137 23.4361 23.9621 24.2152 25.2588 24.2152H26.7299V18.4779ZM21.3685 16.0423C21.0634 16.0423 20.7964 15.9334 20.5676 15.7154C20.3496 15.4866 20.2407 15.2196 20.2407 14.9145C20.2407 14.5984 20.3496 14.3315 20.5676 14.1135C20.7964 13.8956 21.0634 13.7866 21.3685 13.7866C21.6845 13.7866 21.9515 13.8956 22.1695 14.1135C22.3874 14.3315 22.4964 14.5984 22.4964 14.9145C22.4964 15.2196 22.3874 15.4866 22.1695 15.7154C21.9515 15.9334 21.6845 16.0423 21.3685 16.0423ZM25.3569 16.0423C25.0518 16.0423 24.7848 15.9334 24.556 15.7154C24.338 15.4866 24.229 15.2196 24.229 14.9145C24.229 14.5984 24.338 14.3315 24.556 14.1135C24.7848 13.8956 25.0518 13.7866 25.3569 13.7866C25.6729 13.7866 25.9399 13.8956 26.1578 14.1135C26.3758 14.3315 26.4848 14.5984 26.4848 14.9145C26.4848 15.2196 26.3758 15.4866 26.1578 15.7154C25.9399 15.9334 25.6729 16.0423 25.3569 16.0423ZM23.3464 13.7376C23.0412 13.7376 22.7743 13.6286 22.5454 13.4106C22.3275 13.1818 22.2185 12.9148 22.2185 12.6097C22.2185 12.2937 22.3275 12.0267 22.5454 11.8088C22.7743 11.5908 23.0412 11.4818 23.3464 11.4818C23.6624 11.4818 23.9294 11.5908 24.1473 11.8088C24.3652 12.0267 24.4742 12.2937 24.4742 12.6097C24.4742 12.9148 24.3652 13.1818 24.1473 13.4106C23.9294 13.6286 23.6624 13.7376 23.3464 13.7376ZM40.906 26.144H39.206C39.0208 27.4517 38.5195 28.4488 37.7022 29.1353C36.8958 29.8219 35.8333 30.1651 34.5148 30.1651C33.9372 30.1651 33.3052 30.0997 32.6187 29.969V28.0729C33.109 28.1491 33.594 28.1873 34.0734 28.1873C35.7952 28.1873 36.8359 27.5062 37.1955 26.144H35.0869C34.2042 26.144 33.4414 25.9424 32.7985 25.5392C32.1664 25.1252 31.6869 24.5912 31.36 23.9374C31.044 23.2726 30.886 22.5643 30.886 21.8124C30.886 21.0496 31.0495 20.3249 31.3764 19.6384C31.7142 18.9519 32.2046 18.3961 32.8475 17.9711C33.4904 17.5461 34.2478 17.3336 35.1196 17.3336C35.9151 17.3336 36.6234 17.5352 37.2445 17.9384C37.8766 18.3307 38.3724 18.8974 38.732 19.6384C39.0916 20.3685 39.2714 21.2294 39.2714 22.221V24.2152H40.906V26.144ZM32.7658 21.7634C32.7658 22.1884 32.8584 22.5861 33.0436 22.9566C33.2289 23.3271 33.4959 23.6322 33.8446 23.872C34.2042 24.1008 34.6292 24.2152 35.1196 24.2152H37.3263V22.172C37.3263 21.2566 37.1138 20.5538 36.6888 20.0634C36.2638 19.5621 35.7298 19.3115 35.0869 19.3115C34.6074 19.3115 34.1933 19.4314 33.8446 19.6711C33.4959 19.8999 33.2289 20.2051 33.0436 20.5865C32.8584 20.957 32.7658 21.3493 32.7658 21.7634ZM45.1679 21.8778C45.1679 22.6951 45.3586 23.289 45.74 23.6595C46.1214 24.03 46.7425 24.2152 47.6034 24.2152V26.144C46.0342 26.144 44.95 25.6428 44.3506 24.6402C43.991 25.1306 43.517 25.5066 42.9285 25.7681C42.3401 26.0187 41.6644 26.144 40.9016 26.144C40.5856 26.144 40.3295 26.0569 40.1334 25.8825C39.9372 25.6973 39.8392 25.463 39.8392 25.1796C39.8392 24.8963 39.9372 24.6675 40.1334 24.4931C40.3295 24.3079 40.5856 24.2152 40.9016 24.2152C41.6862 24.2152 42.2638 24.03 42.6343 23.6595C43.0048 23.2781 43.1901 22.6842 43.1901 21.8778V15.2904C43.1901 14.8763 43.2772 14.5658 43.4516 14.3587C43.6259 14.1517 43.9202 14.0481 44.3343 14.0481C44.5631 14.0481 44.841 14.0808 45.1679 14.1462V21.8778ZM60.6826 18.4779C60.6826 18.1291 60.7807 17.8404 60.9769 17.6115C61.173 17.3718 61.4999 17.2519 61.9576 17.2519C62.132 17.2519 62.3663 17.2792 62.6605 17.3336V26.144H59.5384C58.0891 26.144 57.0757 25.67 56.4981 24.722C56.1821 25.1796 55.7789 25.5338 55.2885 25.7844C54.7981 26.0242 54.2533 26.144 53.6539 26.144C52.4335 26.144 51.5617 25.6537 51.0386 24.6729C50.6681 25.1524 50.1886 25.5175 49.6002 25.7681C49.0226 26.0187 48.3579 26.144 47.606 26.144C47.29 26.144 47.0339 26.0569 46.8377 25.8825C46.6416 25.6973 46.5435 25.463 46.5435 25.1796C46.5435 24.8963 46.6416 24.6675 46.8377 24.4931C47.0339 24.3079 47.29 24.2152 47.606 24.2152C48.3906 24.2152 48.9681 24.03 49.3386 23.6595C49.7091 23.2781 49.8944 22.6842 49.8944 21.8778V19.0173C49.8944 18.6686 49.9925 18.3798 50.1886 18.1509C50.3848 17.9112 50.7117 17.7913 51.1694 17.7913C51.3437 17.7913 51.578 17.8186 51.8722 17.8731V21.8778C51.8722 22.6515 52.0248 23.2345 52.3299 23.6268C52.635 24.0191 53.0764 24.2152 53.6539 24.2152C54.177 24.2152 54.5802 24.0245 54.8635 23.6431C55.1469 23.2508 55.2885 22.6624 55.2885 21.8778V19.0173C55.2885 18.6686 55.3866 18.3798 55.5827 18.1509C55.7789 17.9112 56.1058 17.7913 56.5635 17.7913C56.7379 17.7913 56.9721 17.8186 57.2664 17.8731V21.8778C57.2664 23.4361 57.9148 24.2152 59.2115 24.2152H60.6826V18.4779Z" fill="white"/>
<path d="M65.2955 23.4347H73.0604V21.2036C73.083 20.7029 72.9737 20.2049 72.7434 19.7596C72.513 19.3144 72.1698 18.9375 71.748 18.6666C70.7445 18.0486 69.5794 17.7442 68.4019 17.7923C67.7711 17.7966 67.1418 17.8551 66.5211 17.967C66.4414 17.5266 66.3975 17.0804 66.3898 16.6328C66.3374 16.111 66.4903 15.5893 66.8161 15.1783C67.1915 14.8566 67.6668 14.675 68.1611 14.6642C68.6545 14.6356 69.0216 14.6209 69.2544 14.6209C70.5561 14.5911 71.8472 14.8611 73.0278 15.4102C74.0602 15.9006 74.9202 16.6918 75.4947 17.6798C76.0919 18.7552 76.39 19.971 76.3582 21.2006V26.6683H65.2955V23.4347Z" fill="white"/>
<path d="M78.8387 28.6969C79.0366 28.7149 79.2359 28.6878 79.4217 28.6175C79.6075 28.5473 79.7749 28.4357 79.9114 28.2913C80.1737 27.8723 80.2909 27.3785 80.2449 26.8862V17.5948C80.195 16.9771 80.373 16.3625 80.7452 15.867C80.9718 15.6598 81.2396 15.5029 81.531 15.4065C81.8225 15.3101 82.1311 15.2763 82.4365 15.3075C82.9081 15.3146 83.3783 15.3625 83.8417 15.4506V26.8862C83.9414 28.2688 83.5349 29.6405 82.698 30.7455C82.2854 31.1924 81.7784 31.5417 81.214 31.7684C80.6496 31.9951 80.0418 32.0933 79.4348 32.0559C78.4128 32.041 77.3996 31.8641 76.433 31.532L77.1237 28.4344C77.684 28.5847 78.2592 28.6727 78.8387 28.6969ZM80.6258 12.7587C80.297 12.4289 80.0927 11.9954 80.0475 11.5319C80.0024 11.0685 80.1193 10.6037 80.3783 10.2167C80.6373 9.82969 81.0224 9.54432 81.468 9.40928C81.9137 9.27424 82.3923 9.29786 82.8226 9.47601C83.2528 9.65416 83.608 9.97585 83.8278 10.3864C84.0475 10.797 84.1182 11.271 84.0277 11.7278C83.9373 12.1846 83.6914 12.596 83.3318 12.8919C82.9722 13.1878 82.5213 13.3499 82.0556 13.3507C81.7895 13.3548 81.5254 13.3044 81.2795 13.2025C81.0336 13.1007 80.8111 12.9497 80.6258 12.7587Z" fill="white"/>
<path d="M94.441 17.6579C94.1832 17.6651 93.9266 17.6206 93.6862 17.5271C93.4459 17.4335 93.2267 17.2928 93.0417 17.1132C92.8566 16.9335 92.7094 16.7187 92.6088 16.4812C92.5081 16.2438 92.456 15.9886 92.4556 15.7307C92.4092 14.0538 92.8641 12.4012 93.7621 10.9843C93.5753 10.7416 93.3732 10.5108 93.1572 10.2936C92.9399 10.0758 92.7092 9.87184 92.4665 9.6828C91.0434 10.5711 89.3878 11.0146 87.7112 10.9567C87.1937 10.9387 86.7035 10.72 86.3443 10.3469C85.9852 9.97379 85.7854 9.47557 85.7872 8.95772C85.789 8.43987 85.9923 7.94306 86.354 7.57246C86.7157 7.20185 87.2074 6.98654 87.725 6.97214C89.402 6.92574 91.0547 7.38101 92.4714 8.27962C92.714 8.09216 92.9447 7.8898 93.1621 7.67373C93.3794 7.45595 93.5834 7.22527 93.7729 6.98298C92.8847 5.55958 92.4411 3.90361 92.499 2.22678C92.517 1.70923 92.7357 1.219 93.1088 0.859882C93.4819 0.500764 93.9802 0.300951 94.498 0.302746C95.0159 0.304542 95.5127 0.507792 95.8833 0.869488C96.2539 1.23118 96.4692 1.72291 96.4836 2.24057C96.5295 3.91782 96.0743 5.57069 95.1762 6.98792C95.3635 7.23054 95.5659 7.46125 95.782 7.67867C95.9988 7.89697 96.2296 8.10099 96.4728 8.28947C97.8963 7.40151 99.5522 6.95801 101.229 7.01556C101.747 7.03366 102.237 7.25247 102.596 7.62567C102.955 7.99887 103.154 8.49716 103.153 9.01503C103.151 9.53289 102.947 10.0296 102.585 10.4002C102.224 10.7707 101.732 10.9859 101.214 11.0001C99.5372 11.0459 97.8847 10.5907 96.4678 9.69265C96.2255 9.88036 95.9948 10.0827 95.7771 10.2985C95.5596 10.5159 95.356 10.7466 95.1673 10.9893C96.0553 12.4124 96.4985 14.0681 96.4402 15.7445C96.438 16.0024 96.3841 16.2571 96.2819 16.4938C96.1796 16.7306 96.0309 16.9444 95.8447 17.1227C95.6585 17.301 95.4384 17.4403 95.1975 17.5322C94.9566 17.6241 94.6997 17.6668 94.442 17.6579M94.4617 12.0728C93.8676 13.1882 93.5735 14.4388 93.6082 15.7021C93.6251 15.9125 93.7204 16.1088 93.8753 16.2522C94.0301 16.3955 94.2332 16.4755 94.4442 16.4763C94.6552 16.477 94.8589 16.3985 95.0147 16.2562C95.1706 16.1139 95.2673 15.9182 95.2857 15.708C95.3289 14.445 95.0436 13.1924 94.4578 12.0728M93.4335 8.98416C93.6177 9.14204 93.797 9.3065 93.9713 9.47754C94.1456 9.64858 94.3101 9.82917 94.4647 10.0193C94.6216 9.83378 94.7883 9.65417 94.9581 9.48149C95.1278 9.3088 95.3133 9.14401 95.4998 8.9881C95.3143 8.83022 95.135 8.66576 94.962 8.49472C94.789 8.32368 94.6245 8.14309 94.4686 7.95297C94.3114 8.13849 94.1469 8.31776 93.9752 8.49078C93.8035 8.66379 93.6233 8.82825 93.4345 8.98416M87.9688 8.12173C87.8977 8.12173 87.8267 8.12173 87.7556 8.12173C87.5453 8.13866 87.349 8.23397 87.2056 8.38881C87.0622 8.54365 86.9822 8.74671 86.9814 8.95775C86.9807 9.16879 87.0592 9.37241 87.2015 9.52826C87.3438 9.68411 87.5395 9.78081 87.7497 9.79922C89.0127 9.84278 90.2654 9.55751 91.385 8.97133C90.3333 8.41127 89.1603 8.11751 87.9688 8.1158M97.5542 8.99304C98.6695 9.58759 99.9202 9.88173 101.184 9.84659C101.394 9.82966 101.59 9.73435 101.734 9.57951C101.877 9.42467 101.957 9.22161 101.958 9.01057C101.959 8.79953 101.88 8.59591 101.738 8.44006C101.595 8.28421 101.4 8.18751 101.19 8.1691C99.9265 8.12545 98.6738 8.41072 97.5542 8.99699M94.4953 1.46794C94.3864 1.46042 94.2771 1.47559 94.1744 1.51245C94.0716 1.5493 93.9776 1.60706 93.8984 1.68208C93.8191 1.7571 93.7562 1.84774 93.7137 1.94828C93.6713 2.04883 93.6501 2.15708 93.6516 2.26623C93.6075 3.52928 93.8928 4.78209 94.4795 5.9015C95.0736 4.78609 95.3677 3.53545 95.333 2.27216C95.3353 2.16305 95.3149 2.05468 95.2731 1.95386C95.2314 1.85303 95.1692 1.76196 95.0905 1.68638C95.0118 1.61081 94.9182 1.55236 94.8157 1.51477C94.7133 1.47717 94.6042 1.46123 94.4953 1.46794Z" fill="white"/>
</g>
<defs>
<clipPath id="clip0_81_426">
<rect width="102.56" height="31.9891" fill="white" transform="translate(0.615341 0.0673828)"/>
</clipPath>
</defs>
</svg>
