<svg width="86" height="27" viewBox="0 0 86 27" fill="none" xmlns="http://www.w3.org/2000/svg">
<path d="M27.9687 26.4113L15.8193 26.3294L15.8412 23.4189C16.2317 23.0932 16.686 22.7222 17.2005 22.2955C17.715 21.8687 18.2496 21.4246 18.7969 20.977C19.3443 20.5293 19.8697 20.0904 20.3696 19.6741C20.8696 19.2578 21.302 18.8938 21.6705 18.589L22.4696 17.9167L17.9084 17.8853C17.3557 17.931 16.8036 17.7918 16.3466 17.4917C16.1834 17.3317 16.0584 17.1399 15.9803 16.9294C15.9022 16.7189 15.8728 16.4948 15.8941 16.2724C15.893 15.8877 15.9622 15.5058 16.0985 15.1438C16.1793 14.9084 16.278 14.679 16.394 14.4575L26.0639 14.5254C26.5741 14.5076 27.0727 14.673 27.4615 14.9888C27.6518 15.1591 27.7997 15.368 27.8944 15.6001C27.9892 15.8322 28.0282 16.0815 28.0088 16.3299C28.0143 16.6953 27.9193 17.0556 27.7333 17.375C27.4923 17.7447 27.2023 18.0831 26.8704 18.3817C26.7572 18.4915 26.5055 18.7005 26.1406 19.0175C25.7756 19.3345 25.3451 19.6933 24.8634 20.1061C24.3817 20.5189 23.8873 20.9282 23.3874 21.3514C22.8875 21.7747 22.435 22.1544 22.0263 22.4836C21.6176 22.8128 21.2965 23.0584 21.0922 23.2116L27.9979 23.2587L27.9687 26.4113Z" fill="white"/>
<path d="M29.516 12.8263C29.126 12.4202 28.9115 11.8882 28.9156 11.3373C28.9196 10.7864 29.142 10.2574 29.5379 9.85659C29.7372 9.6597 29.9775 9.50495 30.2434 9.40234C30.5093 9.29973 30.7948 9.25154 31.0814 9.26091C31.3716 9.25403 31.66 9.30535 31.9281 9.41156C32.1962 9.51777 32.4379 9.6765 32.6377 9.87749C33.0253 10.2847 33.2382 10.8162 33.2342 11.3664C33.2301 11.9166 33.0094 12.4452 32.6158 12.8472C32.4147 13.0488 32.1709 13.2073 31.9007 13.3121C31.6305 13.4169 31.34 13.4657 31.0486 13.4551C30.761 13.4605 30.4754 13.4072 30.2111 13.2988C29.9468 13.1904 29.7098 13.0293 29.516 12.8263ZM32.9297 26.4435L29.0015 26.4156L29.0745 16.1897C29.0606 15.9583 29.1028 15.7271 29.1978 15.5138C29.2927 15.3006 29.4378 15.111 29.6218 14.96C30.0622 14.6598 30.598 14.5145 31.138 14.5489C31.466 14.5525 31.7929 14.5863 32.1141 14.6499C32.423 14.7085 32.725 14.7966 33.0154 14.9129L32.9297 26.4435Z" fill="white"/>
<path d="M47.5906 20.1832C47.6175 21.4286 47.3276 22.6616 46.7458 23.7765C46.2264 24.7432 45.4129 25.5373 44.4123 26.0547C43.3148 26.5976 42.0899 26.8626 40.8545 26.8246C39.5989 26.8449 38.3586 26.5589 37.2511 25.9938C36.2523 25.4791 35.4291 24.7017 34.8792 23.7538C34.3121 22.7603 34.0289 21.6418 34.0582 20.5107C34.0447 19.3868 34.3303 18.2781 34.8884 17.2884C35.4029 16.3818 36.1579 15.6202 37.0778 15.0798C37.8354 14.6469 38.6852 14.3823 39.5645 14.3054C40.4437 14.2285 41.3298 14.3414 42.1572 14.6357C42.7356 14.8419 43.259 15.1679 43.6898 15.5902L43.7317 9.69603C44.0269 9.58491 44.3323 9.50035 44.644 9.44347C44.9618 9.38761 45.2842 9.35905 45.6073 9.35813C46.1472 9.33074 46.6804 9.48277 47.1162 9.78835C47.2987 9.94152 47.4414 10.1332 47.533 10.3481C47.6245 10.5631 47.6623 10.7954 47.6435 11.0267L47.5906 20.1832ZM38.8931 18.4589C38.3824 19.0335 38.0995 19.7613 38.0938 20.5149C38.0881 21.2685 38.3601 22 38.8621 22.5816C39.4026 23.0854 40.1265 23.3696 40.8818 23.3744C41.6371 23.3793 42.365 23.1045 42.9125 22.6078C43.4198 22.0319 43.7005 21.305 43.7062 20.5526C43.7118 19.8002 43.4421 19.0695 42.9435 18.4867C42.4033 17.9827 41.6795 17.6983 40.9242 17.6931C40.1689 17.6879 39.4409 17.9624 38.8931 18.4589Z" fill="white"/>
<path d="M9.21984 16.8574C8.96607 16.8641 8.71346 16.8223 8.47691 16.7343C8.24035 16.6463 8.02464 16.514 7.84251 16.3452C7.66038 16.1764 7.51551 15.9744 7.41646 15.7513C7.31741 15.5281 7.26618 15.2883 7.2658 15.0459C7.21914 13.4699 7.66708 11.9165 8.55207 10.5853C8.18098 10.1298 7.75197 9.72029 7.27493 9.36603C5.87379 10.2006 4.24374 10.6172 2.59325 10.5626C2.08773 10.5401 1.61086 10.332 1.26215 9.98193C0.913431 9.63181 0.71981 9.16667 0.721693 8.68355C0.723576 8.20043 0.920817 7.73666 1.27225 7.38904C1.62369 7.04141 2.10216 6.83677 2.60783 6.81782C4.2589 6.77412 5.88601 7.20233 7.2804 8.04751C7.51805 7.87043 7.74468 7.68025 7.95912 7.47795C8.17326 7.27433 8.37431 7.05853 8.56119 6.83175C7.68595 5.49451 7.24887 3.93826 7.30594 2.36238C7.32955 1.87979 7.54746 1.42453 7.91421 1.09163C8.28096 0.758726 8.7682 0.573899 9.27426 0.575697C9.78033 0.577494 10.2661 0.765778 10.6303 1.10128C10.9944 1.43677 11.2088 1.89356 11.2286 2.37631C11.2735 3.95216 10.8257 5.50507 9.94235 6.83699C10.3121 7.29354 10.7413 7.70325 11.2195 8.05622C12.6205 7.22127 14.2506 6.80461 15.9012 6.85962C16.4067 6.88216 16.8836 7.0902 17.2323 7.44032C17.581 7.79043 17.7746 8.25558 17.7727 8.7387C17.7708 9.22181 17.5736 9.68558 17.2222 10.0332C16.8707 10.3808 16.3923 10.5855 15.8866 10.6044C14.2356 10.6475 12.6087 10.2193 11.214 9.37473C10.9753 9.5513 10.7481 9.7415 10.5335 9.9443C10.3204 10.1477 10.1199 10.3629 9.93322 10.5888C10.8076 11.9263 11.2441 13.4824 11.1867 15.0581C11.1844 15.3004 11.1313 15.5399 11.0306 15.7623C10.9299 15.9848 10.7837 16.1857 10.6004 16.3534C10.4171 16.5211 10.2006 16.652 9.96346 16.7386C9.72637 16.8251 9.47353 16.8655 9.21984 16.8574ZM9.23809 11.6077C8.65406 12.6561 8.36489 13.8311 8.39882 15.0181C8.40881 15.2211 8.50034 15.4127 8.65441 15.5531C8.80849 15.6934 9.01327 15.7717 9.22623 15.7717C9.43918 15.7717 9.64397 15.6934 9.79804 15.5531C9.95212 15.4127 10.0436 15.2211 10.0536 15.0181C10.0965 13.8307 9.81544 12.6532 9.23809 11.6007M8.23096 8.69892C8.41341 8.84697 8.59586 9.002 8.76007 9.16573C8.92427 9.32945 9.09212 9.50015 9.24538 9.67432C9.40046 9.50015 9.56468 9.32597 9.73618 9.16921C9.90768 9.01245 10.0847 8.85221 10.2689 8.7059C10.0865 8.55785 9.90403 8.40108 9.73983 8.2391C9.57562 8.07711 9.40595 7.90468 9.25269 7.7305C9.09761 7.90468 8.93521 8.07886 8.76371 8.23562C8.59221 8.39237 8.41341 8.55262 8.23096 8.69892ZM2.8505 7.88727H2.64069C2.4305 7.90059 2.23347 7.98969 2.08954 8.13652C1.94561 8.28335 1.86554 8.47694 1.86554 8.67803C1.86554 8.87913 1.94561 9.0727 2.08954 9.21953C2.23347 9.36636 2.4305 9.45546 2.64069 9.46879C3.88381 9.50945 5.11667 9.24117 6.21853 8.69022C5.18339 8.16374 4.02886 7.88745 2.85597 7.88553M12.2923 8.71112C13.3901 9.26964 14.6212 9.54577 15.8647 9.51233C16.0774 9.5028 16.2781 9.41542 16.4251 9.26833C16.5721 9.12124 16.6541 8.92575 16.6541 8.72244C16.6541 8.51914 16.5721 8.32365 16.4251 8.17656C16.2781 8.02947 16.0774 7.94209 15.8647 7.93255C14.6215 7.89149 13.3885 8.1598 12.2868 8.71112M9.27641 1.63606C9.16915 1.62856 9.06143 1.64244 8.96009 1.67682C8.85876 1.7112 8.76602 1.76533 8.68778 1.83577C8.60954 1.9062 8.5475 1.99141 8.50561 2.08596C8.46372 2.18052 8.44288 2.28236 8.44443 2.38501C8.40252 3.57226 8.6835 4.74963 9.25998 5.80237C9.84558 4.75388 10.1354 3.57801 10.1011 2.39025C10.1036 2.28771 10.0837 2.1858 10.0427 2.091C10.0017 1.9962 9.94042 1.9106 9.86284 1.83965C9.78526 1.76869 9.69305 1.71395 9.59208 1.67889C9.49111 1.64384 9.38361 1.62926 9.27641 1.63606Z" fill="white"/>
<path d="M49.9382 21.4254C50.4696 21.7908 52.2964 22.7872 54.9535 22.7872C58.0922 22.7872 59.7861 21.3922 59.7861 19.2832C59.7861 17.3734 58.5572 16.46 56.1492 16.0116L54.2892 15.6629C52.7614 15.3806 52.1635 14.9488 52.1635 14.1018C52.1635 13.1386 52.7946 12.5076 54.7874 12.5076C56.7968 12.5076 58.1586 13.2881 58.5406 13.7199C58.8063 13.5372 59.2048 13.0722 59.2048 12.5574C59.2048 12.1754 58.9557 11.9097 58.607 11.6606C58.2416 11.4281 57.1622 10.7971 54.7542 10.7971C51.4993 10.7971 50.1541 12.3581 50.1541 14.2347C50.1541 16.2939 51.8812 17.1575 53.7412 17.473L55.5679 17.8052C56.8965 18.021 57.677 18.403 57.677 19.416C57.677 20.4622 56.9131 21.0435 54.9867 21.0435C52.8112 21.0435 51.2668 20.2131 50.8018 19.881L49.9382 21.4254ZM61.637 22.4883H63.5301V18.021C63.5301 16.5762 64.2941 15.6297 65.8053 15.6297C67.2833 15.6297 67.8313 16.3936 67.8313 17.855V22.4883H69.7245V17.2903C69.7245 15.0484 68.3129 13.9025 66.2537 13.9025C64.8421 13.9025 63.9785 14.4672 63.5301 14.9986V10.4317C63.4139 10.3819 63.0485 10.249 62.65 10.249C62.0023 10.249 61.637 10.5314 61.637 11.1292V22.4883ZM71.7263 22.4883H73.6194V14.3343C73.5032 14.2845 73.1378 14.1516 72.7393 14.1516C72.0916 14.1516 71.7263 14.4174 71.7263 15.0318V22.4883ZM72.6729 10.4151C72.0252 10.4151 71.527 10.9133 71.527 11.561C71.527 12.2086 72.0252 12.7068 72.6729 12.7068C73.3205 12.7068 73.8187 12.2086 73.8187 11.561C73.8187 10.9133 73.3205 10.4151 72.6729 10.4151ZM75.4497 25.8097H77.3429V21.442C77.8909 22.1561 78.9039 22.7042 80.166 22.7042C82.5906 22.7042 84.4174 20.894 84.4174 18.32C84.4174 15.7791 82.5408 13.9191 80.0332 13.9191C77.2931 13.9191 75.4497 15.613 75.4497 18.7019V25.8097ZM79.9003 21.0269C78.3725 21.0269 77.3263 19.8478 77.3263 18.3034C77.3263 16.7257 78.3891 15.6297 79.9003 15.6297C81.4282 15.6297 82.4578 16.7921 82.4578 18.3034C82.4578 19.8478 81.4282 21.0269 79.9003 21.0269Z" fill="#F3CA23"/>
</svg>
