<svg width="104" height="37" viewBox="0 0 104 37" fill="none" xmlns="http://www.w3.org/2000/svg">
<g clip-path="url(#clip0_81_481)">
<path d="M15.5981 27.3188H15.3039C15.3801 27.6131 15.4183 27.9454 15.4183 28.3159C15.4183 29.6345 14.9551 30.5989 14.0289 31.2092C13.1026 31.8303 11.6478 32.1409 9.66455 32.1409H8.70014C6.86941 32.1409 5.38194 31.7104 4.23773 30.8495C3.09352 29.9996 2.52142 28.6973 2.52142 26.9429C2.52142 26.3544 2.59225 25.7279 2.73392 25.0631C2.7993 24.6926 2.92462 24.4147 3.10987 24.2295C3.30602 24.0442 3.58935 23.9516 3.95985 23.9516C4.21049 23.9516 4.48837 23.9897 4.79349 24.066C4.56465 24.9596 4.45023 25.7769 4.45023 26.5179C4.45023 27.7275 4.79349 28.6483 5.48001 29.2803C6.16654 29.9124 7.23991 30.2284 8.70014 30.2284H9.66455C10.6671 30.2284 11.4353 30.1685 11.9693 30.0486C12.5033 29.9396 12.8792 29.7489 13.0972 29.4765C13.326 29.2041 13.4404 28.8172 13.4404 28.3159C13.4404 27.9563 13.3478 27.6567 13.1626 27.4169C12.9882 27.1881 12.6613 27.0137 12.1818 26.8939C12.1709 26.8939 11.8767 26.823 11.2991 26.6814L9.63185 26.2891C9.59916 25.2538 9.94787 24.7362 10.678 24.7362C10.8305 24.7362 10.9886 24.7526 11.152 24.7852C12.2417 25.0141 13.0808 25.1721 13.6693 25.2593C14.2686 25.3465 14.9116 25.39 15.5981 25.39V27.3188ZM7.57228 35.6879C7.26716 35.6879 7.00018 35.5735 6.77133 35.3446C6.55339 35.1267 6.44442 34.8652 6.44442 34.56C6.44442 34.244 6.55339 33.977 6.77133 33.7591C7.00018 33.5412 7.26716 33.4322 7.57228 33.4322C7.8883 33.4322 8.15528 33.5412 8.37323 33.7591C8.59117 33.977 8.70014 34.244 8.70014 34.56C8.70014 34.8652 8.59117 35.1267 8.37323 35.3446C8.15528 35.5735 7.8883 35.6879 7.57228 35.6879ZM10.5145 35.6879C10.2094 35.6879 9.94242 35.5735 9.71358 35.3446C9.49564 35.1267 9.38667 34.8652 9.38667 34.56C9.38667 34.244 9.49564 33.977 9.71358 33.7591C9.94242 33.5412 10.2094 33.4322 10.5145 33.4322C10.8305 33.4322 11.0975 33.5412 11.3155 33.7591C11.5334 33.977 11.6424 34.244 11.6424 34.56C11.6424 34.8652 11.5334 35.1267 11.3155 35.3446C11.0975 35.5735 10.8305 35.6879 10.5145 35.6879ZM25.7181 23.2978C25.7616 24.0279 25.9741 24.5619 26.3555 24.8997C26.7369 25.2266 27.3363 25.39 28.1536 25.39V27.3188C26.5517 27.3188 25.4565 26.7958 24.8681 25.7496C24.4867 26.2618 24.0126 26.6596 23.446 26.9429C22.8793 27.2153 22.28 27.3515 21.6479 27.3515C21.0813 27.3515 20.5201 27.2371 19.9643 27.0083C19.4086 26.7794 18.8964 26.4362 18.4278 25.9785C18.1227 26.4144 17.725 26.7467 17.2346 26.9756C16.7551 27.2044 16.2102 27.3188 15.6 27.3188C15.2949 27.3188 15.0442 27.2262 14.8481 27.041C14.641 26.8448 14.5375 26.6051 14.5375 26.3218C14.5375 26.0384 14.6356 25.815 14.8317 25.6516C15.0279 25.4772 15.284 25.39 15.6 25.39C15.9378 25.39 16.232 25.3192 16.4827 25.1775C16.7333 25.025 16.9131 24.8179 17.0221 24.5564C17.1093 24.3385 17.1801 24.126 17.2346 23.9189C17.2891 23.7119 17.3381 23.4994 17.3817 23.2814C17.4471 22.9327 17.5234 22.5895 17.6105 22.2516C17.9048 21.0529 18.3897 20.1321 19.0653 19.4892C19.7409 18.8354 20.5691 18.5084 21.5499 18.5084C22.3236 18.5084 23.0319 18.7046 23.6748 19.0969C24.3178 19.4783 24.819 20.0068 25.1786 20.6824C25.5492 21.3581 25.7344 22.11 25.7344 22.9382C25.7344 23.1016 25.729 23.2215 25.7181 23.2978ZM21.5989 25.4227C22.2092 25.4227 22.7213 25.1993 23.1354 24.7526C23.5495 24.3058 23.7566 23.701 23.7566 22.9382C23.7566 22.219 23.5495 21.6305 23.1354 21.1728C22.7213 20.7151 22.1928 20.4863 21.5499 20.4863C21.0486 20.4863 20.6345 20.6552 20.3076 20.993C19.9916 21.3308 19.7355 21.8539 19.5393 22.5622C19.4086 23.0308 19.2887 23.5593 19.1797 24.1478C19.5393 24.5727 19.9262 24.8942 20.3403 25.1122C20.7653 25.3192 21.1848 25.4227 21.5989 25.4227ZM30.4351 20.7805C30.4351 20.3664 30.5223 20.0559 30.6966 19.8488C30.871 19.6418 31.1652 19.5382 31.5793 19.5382C31.8082 19.5382 32.086 19.5709 32.413 19.6363V27.3188H28.1467C27.8416 27.3188 27.5909 27.2262 27.3948 27.041C27.1877 26.8448 27.0842 26.6051 27.0842 26.3218C27.0842 26.0384 27.1823 25.815 27.3784 25.6516C27.5746 25.4772 27.8307 25.39 28.1467 25.39H30.4351V20.7805ZM29.5524 31.0293C29.2473 31.0293 28.9803 30.9149 28.7515 30.6861C28.5335 30.4681 28.4246 30.2066 28.4246 29.9015C28.4246 29.5855 28.5335 29.3185 28.7515 29.1005C28.9803 28.8826 29.2473 28.7736 29.5524 28.7736C29.8685 28.7736 30.1354 28.8826 30.3534 29.1005C30.5713 29.3185 30.6803 29.5855 30.6803 29.9015C30.6803 30.2066 30.5713 30.4681 30.3534 30.6861C30.1354 30.9149 29.8685 31.0293 29.5524 31.0293ZM32.4947 31.0293C32.1896 31.0293 31.9226 30.9149 31.6937 30.6861C31.4758 30.4681 31.3668 30.2066 31.3668 29.9015C31.3668 29.5855 31.4758 29.3185 31.6937 29.1005C31.9226 28.8826 32.1896 28.7736 32.4947 28.7736C32.8107 28.7736 33.0777 28.8826 33.2956 29.1005C33.5136 29.3185 33.6225 29.5855 33.6225 29.9015C33.6225 30.2066 33.5136 30.4681 33.2956 30.6861C33.0777 30.9149 32.8107 31.0293 32.4947 31.0293ZM35.2283 25.39H41.3743V23.6083C41.3743 22.5731 41.0419 21.7885 40.3772 21.2545C39.7125 20.7097 38.7699 20.4373 37.5494 20.4373C37.1244 20.4373 36.6558 20.4699 36.1436 20.5353C36.0674 20.1321 36.0292 19.8488 36.0292 19.6853C36.0292 19.293 36.1273 19.0206 36.3234 18.8681C36.5305 18.7046 36.852 18.6011 37.2878 18.5575C37.6365 18.5357 37.8981 18.5248 38.0724 18.5248C39.1513 18.5248 40.0884 18.7318 40.8839 19.1459C41.6794 19.5491 42.2897 20.1321 42.7147 20.8949C43.1396 21.6468 43.3521 22.535 43.3521 23.5593V27.3188H35.2283V25.39ZM49.822 25.39V27.3188H45.5721V16.4652C45.5721 16.0511 45.6593 15.7406 45.8336 15.5335C46.008 15.3265 46.3022 15.2229 46.7163 15.2229C46.9452 15.2229 47.223 15.2556 47.55 15.321V25.39H49.822ZM57.0489 15.321C57.2451 15.2992 57.3758 15.2883 57.4412 15.2883C58.1495 15.2883 58.5037 15.7515 58.5037 16.6777C58.5037 16.8412 58.4982 16.9665 58.4873 17.0537C57.3976 17.1626 56.3188 17.4078 55.2509 17.7892C54.1938 18.1597 53.2894 18.612 52.5375 19.1459C54.4009 19.3748 55.8339 19.9905 56.8364 20.993C57.839 21.9956 58.3402 23.4612 58.3402 25.39V27.3188H49.8241C49.5189 27.3188 49.2792 27.2262 49.1048 27.041C48.9305 26.8448 48.8433 26.616 48.8433 26.3544C48.8433 26.0929 48.9305 25.8695 49.1048 25.6843C49.2792 25.4881 49.5189 25.39 49.8241 25.39H56.3624C56.3624 24.2676 56.1553 23.3904 55.7413 22.7584C55.3272 22.1154 54.7278 21.6577 53.9432 21.3853C53.1695 21.102 52.167 20.9331 50.9356 20.8786L50.625 19.3094C50.6032 19.2222 50.5923 19.0914 50.5923 18.9171C50.5923 18.4812 50.7721 18.1161 51.1317 17.8219C52.69 16.6014 54.6624 15.7678 57.0489 15.321ZM63.4018 14.9941H60.0019V13.9643H60.3778C60.1272 13.7355 60.0019 13.414 60.0019 12.9999C60.0019 12.4877 60.1926 12.0845 60.574 11.7903C60.9554 11.4961 61.4131 11.349 61.947 11.349C62.1977 11.349 62.4374 11.3817 62.6663 11.4471C62.9714 11.5451 63.1239 11.714 63.1239 11.9538C63.1239 12.139 63.0259 12.3733 62.8297 12.6566C62.5464 12.515 62.2685 12.4441 61.9961 12.4441C61.7563 12.4441 61.5602 12.5095 61.4076 12.6403C61.266 12.7602 61.1951 12.9345 61.1951 13.1634C61.1951 13.4031 61.2769 13.5993 61.4403 13.7518C61.6147 13.8935 61.8326 13.9643 62.0942 13.9643H63.4018V14.9941ZM60.7375 17.446C60.7375 17.0319 60.8246 16.7213 60.999 16.5143C61.1733 16.3072 61.4676 16.2037 61.8817 16.2037C62.1105 16.2037 62.3884 16.2364 62.7153 16.3018V27.3188H60.7375V17.446Z" fill="white"/>
<path d="M65.3907 24.2536H73.1556V22.0224C73.1783 21.5216 73.0689 21.0237 72.8386 20.5785C72.6083 20.1332 72.265 19.7563 71.8432 19.4855C70.8397 18.8675 69.6746 18.5631 68.4971 18.6112C67.8663 18.6155 67.2371 18.6739 66.6163 18.7859C66.5366 18.3454 66.4927 17.8992 66.4851 17.4517C66.4327 16.9299 66.5856 16.4082 66.9114 15.9972C67.287 15.6759 67.7622 15.4943 68.2563 15.4831C68.7497 15.4545 69.1168 15.4397 69.3497 15.4397C70.6514 15.4099 71.9425 15.6799 73.1231 16.2291C74.1555 16.7194 75.0155 17.5106 75.59 18.4987C76.1872 19.5741 76.4853 20.7898 76.4534 22.0195V27.4872H65.3907V24.2536Z" fill="white"/>
<path d="M78.934 29.5158C79.1318 29.5337 79.3311 29.5066 79.5169 29.4364C79.7027 29.3661 79.8702 29.2546 80.0066 29.1102C80.269 28.6911 80.3862 28.1974 80.3401 27.7051V18.4137C80.2903 17.7959 80.4682 17.1814 80.8404 16.6858C81.067 16.4787 81.3348 16.3218 81.6263 16.2253C81.9178 16.1289 82.2263 16.0952 82.5317 16.1263C83.0034 16.1335 83.4735 16.1814 83.9369 16.2694V27.7051C84.0366 29.0877 83.6302 30.4593 82.7933 31.5643C82.3806 32.0112 81.8737 32.3606 81.3093 32.5873C80.7449 32.8139 80.1371 32.9121 79.53 32.8748C78.508 32.8604 77.4947 32.6835 76.5283 32.3508L77.219 29.2533C77.7793 29.4035 78.3544 29.4916 78.934 29.5158ZM80.721 13.5775C80.3923 13.2477 80.1879 12.8143 80.1428 12.3508C80.0977 11.8873 80.2145 11.4225 80.4735 11.0355C80.7325 10.6485 81.1176 10.3632 81.5633 10.2281C82.0089 10.0931 82.4876 10.1167 82.9178 10.2949C83.3481 10.473 83.7033 10.7947 83.923 11.2053C84.1427 11.6158 84.2134 12.0898 84.123 12.5466C84.0326 13.0034 83.7866 13.4148 83.4271 13.7107C83.0675 14.0066 82.6165 14.1687 82.1509 14.1695C81.8848 14.1736 81.6206 14.1232 81.3747 14.0214C81.1288 13.9196 80.9064 13.7685 80.721 13.5775Z" fill="white"/>
<path d="M94.6021 18.2404C94.3444 18.2476 94.0877 18.2031 93.8474 18.1096C93.6071 18.0161 93.3879 17.8753 93.2028 17.6957C93.0178 17.5161 92.8706 17.3012 92.7699 17.0637C92.6693 16.8263 92.6172 16.5711 92.6168 16.3132C92.5703 14.6364 93.0252 12.9838 93.9233 11.5669C93.7364 11.3241 93.5344 11.0934 93.3184 10.8761C93.101 10.6583 92.8704 10.4544 92.6276 10.2653C91.2046 11.1536 89.5489 11.5971 87.8724 11.5392C87.3549 11.5212 86.8646 11.3025 86.5055 10.9294C86.1464 10.5563 85.9466 10.0581 85.9484 9.54024C85.9502 9.02239 86.1534 8.52558 86.5151 8.15497C86.8768 7.78437 87.3685 7.56906 87.8862 7.55466C89.5632 7.50826 91.2159 7.96353 92.6326 8.86214C92.8751 8.67468 93.1058 8.47232 93.3233 8.25625C93.5406 8.03847 93.7445 7.80779 93.9341 7.5655C93.0458 6.1421 92.6023 4.48613 92.6602 2.8093C92.6782 2.29175 92.8969 1.80152 93.27 1.4424C93.6431 1.08328 94.1413 0.88347 94.6592 0.885266C95.177 0.887061 95.6739 1.09031 96.0445 1.45201C96.4151 1.8137 96.6304 2.30543 96.6448 2.82309C96.6907 4.50034 96.2355 6.15321 95.3373 7.57044C95.5247 7.81306 95.727 8.04377 95.9432 8.26119C96.16 8.47949 96.3907 8.68351 96.6339 8.87198C98.0575 7.98403 99.7133 7.54053 101.39 7.59808C101.908 7.61618 102.398 7.83499 102.757 8.20819C103.116 8.58138 103.316 9.07968 103.314 9.59755C103.312 10.1154 103.108 10.6122 102.747 10.9827C102.385 11.3532 101.893 11.5684 101.375 11.5826C99.6984 11.6284 98.0459 11.1732 96.629 10.2752C96.3866 10.4629 96.1559 10.6652 95.9382 10.8811C95.7208 11.0984 95.5171 11.3291 95.3284 11.5718C96.2165 12.9949 96.6597 14.6506 96.6013 16.327C96.5991 16.5849 96.5453 16.8397 96.443 17.0764C96.3408 17.3131 96.1921 17.5269 96.0059 17.7052C95.8196 17.8836 95.5996 18.0228 95.3586 18.1147C95.1177 18.2066 94.8608 18.2494 94.6031 18.2404M94.6229 12.6553C94.0288 13.7707 93.7346 15.0213 93.7693 16.2846C93.7862 16.495 93.8816 16.6913 94.0364 16.8347C94.1913 16.9781 94.3943 17.0581 94.6054 17.0588C94.8164 17.0596 95.02 16.981 95.1759 16.8387C95.3317 16.6964 95.4284 16.5007 95.4468 16.2905C95.4901 15.0275 95.2048 13.775 94.6189 12.6553M93.5947 9.56668C93.7789 9.72456 93.9581 9.88902 94.1325 10.0601C94.3068 10.2311 94.4713 10.4117 94.6258 10.6018C94.7827 10.4163 94.9495 10.2367 95.1192 10.064C95.289 9.89132 95.4744 9.72653 95.6609 9.57062C95.4754 9.41274 95.2962 9.24828 95.1232 9.07724C94.9502 8.9062 94.7857 8.72561 94.6298 8.53549C94.4726 8.72101 94.3081 8.90028 94.1364 9.0733C93.9647 9.24631 93.7845 9.41077 93.5957 9.56668M88.1299 8.70425C88.0589 8.70425 87.9878 8.70425 87.9168 8.70425C87.7064 8.72118 87.5101 8.81649 87.3667 8.97133C87.2233 9.12617 87.1433 9.32923 87.1426 9.54027C87.1419 9.75131 87.2204 9.95493 87.3627 10.1108C87.505 10.2666 87.7007 10.3633 87.9109 10.3817C89.1739 10.4253 90.4265 10.14 91.5461 9.55385C90.4944 8.99378 89.3215 8.70003 88.1299 8.69832M97.7154 9.57556C98.8306 10.1701 100.081 10.4643 101.345 10.4291C101.555 10.4122 101.751 10.3169 101.895 10.162C102.038 10.0072 102.118 9.80413 102.119 9.59309C102.12 9.38205 102.041 9.17843 101.899 9.02258C101.757 8.86673 101.561 8.77003 101.351 8.75162C100.088 8.70797 98.835 8.99324 97.7154 9.57951M94.6564 2.05046C94.5475 2.04294 94.4383 2.05811 94.3355 2.09497C94.2328 2.13182 94.1388 2.18958 94.0595 2.2646C93.9802 2.33962 93.9174 2.43026 93.8749 2.5308C93.8324 2.63135 93.8113 2.7396 93.8127 2.84875C93.7687 4.1118 94.054 5.36461 94.6406 6.48402C95.2347 5.36861 95.5289 4.11797 95.4942 2.85468C95.4965 2.74557 95.4761 2.6372 95.4343 2.53637C95.3926 2.43555 95.3304 2.34448 95.2516 2.2689C95.1729 2.19333 95.0794 2.13488 94.9769 2.09729C94.8745 2.05969 94.7654 2.04375 94.6564 2.05046Z" fill="white"/>
</g>
<defs>
<clipPath id="clip0_81_481">
<rect width="102.56" height="35.4615" fill="white" transform="translate(0.714462 0.885254)"/>
</clipPath>
</defs>
</svg>
